<svg width="159" height="50" viewBox="0 0 159 50" fill="none" xmlns="http://www.w3.org/2000/svg">
<rect x="1" y="4" width="157" height="42" rx="14" fill="#FFFBFA" stroke="#FFF1EB" stroke-width="2"/>
<path d="M25.284 20.576V29H23.232V23.948L21.348 29H19.692L17.796 23.936V29H15.744V20.576H18.168L20.532 26.408L22.872 20.576H25.284ZM29.8076 29.096C29.1516 29.096 28.5596 28.956 28.0316 28.676C27.5116 28.396 27.0996 27.996 26.7956 27.476C26.4996 26.956 26.3516 26.348 26.3516 25.652C26.3516 24.964 26.5036 24.36 26.8076 23.84C27.1116 23.312 27.5276 22.908 28.0556 22.628C28.5836 22.348 29.1756 22.208 29.8316 22.208C30.4876 22.208 31.0796 22.348 31.6076 22.628C32.1356 22.908 32.5516 23.312 32.8556 23.84C33.1596 24.36 33.3116 24.964 33.3116 25.652C33.3116 26.34 33.1556 26.948 32.8436 27.476C32.5396 27.996 32.1196 28.396 31.5836 28.676C31.0556 28.956 30.4636 29.096 29.8076 29.096ZM29.8076 27.32C30.1996 27.32 30.5316 27.176 30.8036 26.888C31.0836 26.6 31.2236 26.188 31.2236 25.652C31.2236 25.116 31.0876 24.704 30.8156 24.416C30.5516 24.128 30.2236 23.984 29.8316 23.984C29.4316 23.984 29.0996 24.128 28.8356 24.416C28.5716 24.696 28.4396 25.108 28.4396 25.652C28.4396 26.188 28.5676 26.6 28.8236 26.888C29.0876 27.176 29.4156 27.32 29.8076 27.32ZM38.4803 22.232C39.2643 22.232 39.8883 22.488 40.3523 23C40.8243 23.504 41.0603 24.2 41.0603 25.088V29H39.0203V25.364C39.0203 24.916 38.9043 24.568 38.6723 24.32C38.4403 24.072 38.1283 23.948 37.7363 23.948C37.3443 23.948 37.0323 24.072 36.8003 24.32C36.5683 24.568 36.4523 24.916 36.4523 25.364V29H34.4003V22.304H36.4523V23.192C36.6603 22.896 36.9403 22.664 37.2923 22.496C37.6443 22.32 38.0403 22.232 38.4803 22.232ZM46.2182 27.26V29H45.1742C44.4302 29 43.8502 28.82 43.4342 28.46C43.0182 28.092 42.8102 27.496 42.8102 26.672V24.008H41.9942V22.304H42.8102V20.672H44.8622V22.304H46.2062V24.008H44.8622V26.696C44.8622 26.896 44.9102 27.04 45.0062 27.128C45.1022 27.216 45.2622 27.26 45.4862 27.26H46.2182ZM49.4132 23.42C49.6532 23.052 49.9532 22.764 50.3132 22.556C50.6732 22.34 51.0732 22.232 51.5132 22.232V24.404H50.9492C50.4372 24.404 50.0532 24.516 49.7972 24.74C49.5412 24.956 49.4132 25.34 49.4132 25.892V29H47.3612V22.304H49.4132V23.42ZM58.806 25.544C58.806 25.736 58.794 25.936 58.77 26.144H54.126C54.158 26.56 54.29 26.88 54.522 27.104C54.762 27.32 55.054 27.428 55.398 27.428C55.91 27.428 56.266 27.212 56.466 26.78H58.65C58.538 27.22 58.334 27.616 58.038 27.968C57.75 28.32 57.386 28.596 56.946 28.796C56.506 28.996 56.014 29.096 55.47 29.096C54.814 29.096 54.23 28.956 53.718 28.676C53.206 28.396 52.806 27.996 52.518 27.476C52.23 26.956 52.086 26.348 52.086 25.652C52.086 24.956 52.226 24.348 52.506 23.828C52.794 23.308 53.194 22.908 53.706 22.628C54.218 22.348 54.806 22.208 55.47 22.208C56.118 22.208 56.694 22.344 57.198 22.616C57.702 22.888 58.094 23.276 58.374 23.78C58.662 24.284 58.806 24.872 58.806 25.544ZM56.706 25.004C56.706 24.652 56.586 24.372 56.346 24.164C56.106 23.956 55.806 23.852 55.446 23.852C55.102 23.852 54.81 23.952 54.57 24.152C54.338 24.352 54.194 24.636 54.138 25.004H56.706ZM59.4805 25.64C59.4805 24.952 59.6085 24.348 59.8645 23.828C60.1285 23.308 60.4845 22.908 60.9325 22.628C61.3805 22.348 61.8805 22.208 62.4325 22.208C62.9045 22.208 63.3165 22.304 63.6685 22.496C64.0285 22.688 64.3045 22.94 64.4965 23.252V22.304H66.5485V29H64.4965V28.052C64.2965 28.364 64.0165 28.616 63.6565 28.808C63.3045 29 62.8925 29.096 62.4205 29.096C61.8765 29.096 61.3805 28.956 60.9325 28.676C60.4845 28.388 60.1285 27.984 59.8645 27.464C59.6085 26.936 59.4805 26.328 59.4805 25.64ZM64.4965 25.652C64.4965 25.14 64.3525 24.736 64.0645 24.44C63.7845 24.144 63.4405 23.996 63.0325 23.996C62.6245 23.996 62.2765 24.144 61.9885 24.44C61.7085 24.728 61.5685 25.128 61.5685 25.64C61.5685 26.152 61.7085 26.56 61.9885 26.864C62.2765 27.16 62.6245 27.308 63.0325 27.308C63.4405 27.308 63.7845 27.16 64.0645 26.864C64.3525 26.568 64.4965 26.164 64.4965 25.652ZM70.0851 20.12V29H68.0331V20.12H70.0851Z" fill="black"/>
<path fill-rule="evenodd" clip-rule="evenodd" d="M138.999 23.5573L142.243 20.3131C143.2 19.356 144.642 20.8103 143.685 21.7674L140.453 24.9992L143.685 28.2434C144.642 29.2005 143.2 30.6423 142.243 29.6852L138.999 26.4535L135.767 29.6852C134.81 30.6423 133.356 29.2005 134.313 28.2434L137.557 24.9992L134.313 21.7674C133.356 20.8103 134.81 19.356 135.767 20.3131L138.999 23.5573Z" fill="black"/>
</svg>
