<svg width="163" height="58" viewBox="0 0 163 58" fill="none" xmlns="http://www.w3.org/2000/svg">
<rect x="4" y="4" width="155" height="50" rx="15" fill="#FFF8F5" stroke="#FFF1EB" stroke-width="8"/>
<path d="M27.485 32.14H23.555L22.925 34H20.24L24.05 23.47H27.02L30.83 34H28.115L27.485 32.14ZM26.825 30.16L25.52 26.305L24.23 30.16H26.825ZM40.2546 25.63V34H37.6896V32.86C37.4296 33.23 37.0746 33.53 36.6246 33.76C36.1846 33.98 35.6946 34.09 35.1546 34.09C34.5146 34.09 33.9496 33.95 33.4596 33.67C32.9696 33.38 32.5896 32.965 32.3196 32.425C32.0496 31.885 31.9146 31.25 31.9146 30.52V25.63H34.4646V30.175C34.4646 30.735 34.6096 31.17 34.8996 31.48C35.1896 31.79 35.5796 31.945 36.0696 31.945C36.5696 31.945 36.9646 31.79 37.2546 31.48C37.5446 31.17 37.6896 30.735 37.6896 30.175V25.63H40.2546ZM45.502 34.12C44.772 34.12 44.122 33.995 43.552 33.745C42.982 33.495 42.532 33.155 42.202 32.725C41.872 32.285 41.687 31.795 41.647 31.255H44.182C44.212 31.545 44.347 31.78 44.587 31.96C44.827 32.14 45.122 32.23 45.472 32.23C45.792 32.23 46.037 32.17 46.207 32.05C46.387 31.92 46.477 31.755 46.477 31.555C46.477 31.315 46.352 31.14 46.102 31.03C45.852 30.91 45.447 30.78 44.887 30.64C44.287 30.5 43.787 30.355 43.387 30.205C42.987 30.045 42.642 29.8 42.352 29.47C42.062 29.13 41.917 28.675 41.917 28.105C41.917 27.625 42.047 27.19 42.307 26.8C42.577 26.4 42.967 26.085 43.477 25.855C43.997 25.625 44.612 25.51 45.322 25.51C46.372 25.51 47.197 25.77 47.797 26.29C48.407 26.81 48.757 27.5 48.847 28.36H46.477C46.437 28.07 46.307 27.84 46.087 27.67C45.877 27.5 45.597 27.415 45.247 27.415C44.947 27.415 44.717 27.475 44.557 27.595C44.397 27.705 44.317 27.86 44.317 28.06C44.317 28.3 44.442 28.48 44.692 28.6C44.952 28.72 45.352 28.84 45.892 28.96C46.512 29.12 47.017 29.28 47.407 29.44C47.797 29.59 48.137 29.84 48.427 30.19C48.727 30.53 48.882 30.99 48.892 31.57C48.892 32.06 48.752 32.5 48.472 32.89C48.202 33.27 47.807 33.57 47.287 33.79C46.777 34.01 46.182 34.12 45.502 34.12ZM55.1263 31.825V34H53.8213C52.8913 34 52.1663 33.775 51.6463 33.325C51.1263 32.865 50.8663 32.12 50.8663 31.09V27.76H49.8463V25.63H50.8663V23.59H53.4313V25.63H55.1113V27.76H53.4313V31.12C53.4313 31.37 53.4913 31.55 53.6113 31.66C53.7313 31.77 53.9313 31.825 54.2113 31.825H55.1263ZM57.845 24.76C57.395 24.76 57.025 24.63 56.735 24.37C56.455 24.1 56.315 23.77 56.315 23.38C56.315 22.98 56.455 22.65 56.735 22.39C57.025 22.12 57.395 21.985 57.845 21.985C58.285 21.985 58.645 22.12 58.925 22.39C59.215 22.65 59.36 22.98 59.36 23.38C59.36 23.77 59.215 24.1 58.925 24.37C58.645 24.63 58.285 24.76 57.845 24.76ZM59.12 25.63V34H56.555V25.63H59.12ZM66.0788 25.54C67.0588 25.54 67.8388 25.86 68.4188 26.5C69.0088 27.13 69.3038 28 69.3038 29.11V34H66.7538V29.455C66.7538 28.895 66.6088 28.46 66.3188 28.15C66.0288 27.84 65.6388 27.685 65.1488 27.685C64.6588 27.685 64.2688 27.84 63.9788 28.15C63.6888 28.46 63.5438 28.895 63.5438 29.455V34H60.9788V25.63H63.5438V26.74C63.8038 26.37 64.1538 26.08 64.5938 25.87C65.0338 25.65 65.5288 25.54 66.0788 25.54Z" fill="#2E2E2E"/>
<path fill-rule="evenodd" clip-rule="evenodd" d="M136.999 27.2688L140.892 23.3757C142.041 22.2272 143.771 23.9724 142.622 25.1209L138.744 28.999L142.622 32.892C143.771 34.0405 142.041 35.7708 140.892 34.6223L136.999 30.7441L133.121 34.6223C131.972 35.7708 130.227 34.0405 131.376 32.892L135.269 28.999L131.376 25.1209C130.227 23.9724 131.972 22.2272 133.121 23.3757L136.999 27.2688Z" fill="#2E2E2E"/>
</svg>
