<svg width="34" height="34" viewBox="0 0 34 34" fill="none" xmlns="http://www.w3.org/2000/svg">
<path d="M1.23941 12.8573L1.24842 12.8541L1.2573 12.8505L31.8601 0.576024C32.3708 0.410259 32.8289 0.525264 33.1203 0.816773C33.4912 1.18795 33.5905 1.6453 33.416 2.05269L33.4159 2.05263L33.4114 2.06383L21.1376 32.7425L21.1341 32.7513L21.1309 32.7602C20.9833 33.1738 20.5115 33.5 20.0397 33.5H19.9859C19.5012 33.4257 19.1458 33.1405 18.994 32.7178C18.9937 32.7171 18.9934 32.7163 18.9931 32.7155L14.5318 19.7704L14.4524 19.5401L14.2221 19.4607L1.27887 14.9951L1.26616 14.9907L1.25323 14.987C0.845349 14.8704 0.5 14.4432 0.5 13.9494C0.5 13.4769 0.826327 13.0049 1.23941 12.8573ZM14.7898 17.1912L15.0849 17.2922L15.3053 17.0716L18.5635 13.8117C18.993 13.3819 19.7475 13.3819 20.177 13.8117C20.402 14.0368 20.5216 14.3139 20.5216 14.6193C20.5216 14.9241 20.4024 15.2008 20.1782 15.4257C20.1778 15.4261 20.1774 15.4265 20.177 15.4269L16.9213 18.6397L16.6982 18.8598L16.7992 19.1566L19.7002 27.6859L20.1338 28.9605L20.6373 27.7119L29.8761 4.80334L30.3147 3.71581L29.2263 4.15225L6.28553 13.3514L5.03586 13.8525L6.3097 14.2885L14.7898 17.1912Z" fill="#FFD4C0" stroke="#FFD4C0"/>
</svg>
