<svg width="163" height="58" viewBox="0 0 163 58" fill="none" xmlns="http://www.w3.org/2000/svg">
<rect x="4" y="4" width="155" height="50" rx="15" fill="#FFF8F5" stroke="#FFF1EB" stroke-width="8"/>
<path d="M20.495 28.72C20.495 27.68 20.72 26.755 21.17 25.945C21.62 25.125 22.245 24.49 23.045 24.04C23.855 23.58 24.77 23.35 25.79 23.35C27.04 23.35 28.11 23.68 29 24.34C29.89 25 30.485 25.9 30.785 27.04H27.965C27.755 26.6 27.455 26.265 27.065 26.035C26.685 25.805 26.25 25.69 25.76 25.69C24.97 25.69 24.33 25.965 23.84 26.515C23.35 27.065 23.105 27.8 23.105 28.72C23.105 29.64 23.35 30.375 23.84 30.925C24.33 31.475 24.97 31.75 25.76 31.75C26.25 31.75 26.685 31.635 27.065 31.405C27.455 31.175 27.755 30.84 27.965 30.4H30.785C30.485 31.54 29.89 32.44 29 33.1C28.11 33.75 27.04 34.075 25.79 34.075C24.77 34.075 23.855 33.85 23.045 33.4C22.245 32.94 21.62 32.305 21.17 31.495C20.72 30.685 20.495 29.76 20.495 28.72ZM40.6208 25.63V34H38.0558V32.86C37.7958 33.23 37.4408 33.53 36.9908 33.76C36.5508 33.98 36.0608 34.09 35.5208 34.09C34.8808 34.09 34.3158 33.95 33.8258 33.67C33.3358 33.38 32.9558 32.965 32.6858 32.425C32.4158 31.885 32.2808 31.25 32.2808 30.52V25.63H34.8308V30.175C34.8308 30.735 34.9758 31.17 35.2658 31.48C35.5558 31.79 35.9458 31.945 36.4358 31.945C36.9358 31.945 37.3308 31.79 37.6208 31.48C37.9108 31.17 38.0558 30.735 38.0558 30.175V25.63H40.6208ZM45.0282 26.815C45.2782 26.425 45.6232 26.11 46.0632 25.87C46.5032 25.63 47.0182 25.51 47.6082 25.51C48.2982 25.51 48.9232 25.685 49.4832 26.035C50.0432 26.385 50.4832 26.885 50.8032 27.535C51.1332 28.185 51.2982 28.94 51.2982 29.8C51.2982 30.66 51.1332 31.42 50.8032 32.08C50.4832 32.73 50.0432 33.235 49.4832 33.595C48.9232 33.945 48.2982 34.12 47.6082 34.12C47.0282 34.12 46.5132 34 46.0632 33.76C45.6232 33.52 45.2782 33.21 45.0282 32.83V37.99H42.4632V25.63H45.0282V26.815ZM48.6882 29.8C48.6882 29.16 48.5082 28.66 48.1482 28.3C47.7982 27.93 47.3632 27.745 46.8432 27.745C46.3332 27.745 45.8982 27.93 45.5382 28.3C45.1882 28.67 45.0132 29.175 45.0132 29.815C45.0132 30.455 45.1882 30.96 45.5382 31.33C45.8982 31.7 46.3332 31.885 46.8432 31.885C47.3532 31.885 47.7882 31.7 48.1482 31.33C48.5082 30.95 48.6882 30.44 48.6882 29.8ZM60.5339 29.68C60.5339 29.92 60.5189 30.17 60.4889 30.43H54.6839C54.7239 30.95 54.8889 31.35 55.1789 31.63C55.4789 31.9 55.8439 32.035 56.2739 32.035C56.9139 32.035 57.3589 31.765 57.6089 31.225H60.3389C60.1989 31.775 59.9439 32.27 59.5739 32.71C59.2139 33.15 58.7589 33.495 58.2089 33.745C57.6589 33.995 57.0439 34.12 56.3639 34.12C55.5439 34.12 54.8139 33.945 54.1739 33.595C53.5339 33.245 53.0339 32.745 52.6739 32.095C52.3139 31.445 52.1339 30.685 52.1339 29.815C52.1339 28.945 52.3089 28.185 52.6589 27.535C53.0189 26.885 53.5189 26.385 54.1589 26.035C54.7989 25.685 55.5339 25.51 56.3639 25.51C57.1739 25.51 57.8939 25.68 58.5239 26.02C59.1539 26.36 59.6439 26.845 59.9939 27.475C60.3539 28.105 60.5339 28.84 60.5339 29.68ZM57.9089 29.005C57.9089 28.565 57.7589 28.215 57.4589 27.955C57.1589 27.695 56.7839 27.565 56.3339 27.565C55.9039 27.565 55.5389 27.69 55.2389 27.94C54.9489 28.19 54.7689 28.545 54.6989 29.005H57.9089ZM64.452 27.025C64.752 26.565 65.127 26.205 65.577 25.945C66.027 25.675 66.527 25.54 67.077 25.54V28.255H66.372C65.732 28.255 65.252 28.395 64.932 28.675C64.612 28.945 64.452 29.425 64.452 30.115V34H61.887V25.63H64.452V27.025ZM72.968 31.825V34H71.663C70.733 34 70.008 33.775 69.488 33.325C68.968 32.865 68.708 32.12 68.708 31.09V27.76H67.688V25.63H68.708V23.59H71.273V25.63H72.953V27.76H71.273V31.12C71.273 31.37 71.333 31.55 71.453 31.66C71.573 31.77 71.773 31.825 72.053 31.825H72.968ZM75.6868 24.76C75.2368 24.76 74.8668 24.63 74.5768 24.37C74.2968 24.1 74.1568 23.77 74.1568 23.38C74.1568 22.98 74.2968 22.65 74.5768 22.39C74.8668 22.12 75.2368 21.985 75.6868 21.985C76.1268 21.985 76.4868 22.12 76.7668 22.39C77.0568 22.65 77.2018 22.98 77.2018 23.38C77.2018 23.77 77.0568 24.1 76.7668 24.37C76.4868 24.63 76.1268 24.76 75.6868 24.76ZM76.9618 25.63V34H74.3968V25.63H76.9618ZM83.9206 25.54C84.9006 25.54 85.6806 25.86 86.2606 26.5C86.8506 27.13 87.1456 28 87.1456 29.11V34H84.5956V29.455C84.5956 28.895 84.4506 28.46 84.1606 28.15C83.8706 27.84 83.4806 27.685 82.9906 27.685C82.5006 27.685 82.1106 27.84 81.8206 28.15C81.5306 28.46 81.3856 28.895 81.3856 29.455V34H78.8206V25.63H81.3856V26.74C81.6456 26.37 81.9956 26.08 82.4356 25.87C82.8756 25.65 83.3706 25.54 83.9206 25.54ZM92.738 34.12C91.918 34.12 91.178 33.945 90.518 33.595C89.868 33.245 89.353 32.745 88.973 32.095C88.603 31.445 88.418 30.685 88.418 29.815C88.418 28.955 88.608 28.2 88.988 27.55C89.368 26.89 89.888 26.385 90.548 26.035C91.208 25.685 91.948 25.51 92.768 25.51C93.588 25.51 94.328 25.685 94.988 26.035C95.648 26.385 96.168 26.89 96.548 27.55C96.928 28.2 97.118 28.955 97.118 29.815C97.118 30.675 96.923 31.435 96.533 32.095C96.153 32.745 95.628 33.245 94.958 33.595C94.298 33.945 93.558 34.12 92.738 34.12ZM92.738 31.9C93.228 31.9 93.643 31.72 93.983 31.36C94.333 31 94.508 30.485 94.508 29.815C94.508 29.145 94.338 28.63 93.998 28.27C93.668 27.91 93.258 27.73 92.768 27.73C92.268 27.73 91.853 27.91 91.523 28.27C91.193 28.62 91.028 29.135 91.028 29.815C91.028 30.485 91.188 31 91.508 31.36C91.838 31.72 92.248 31.9 92.738 31.9Z" fill="#2E2E2E"/>
<path fill-rule="evenodd" clip-rule="evenodd" d="M136.999 27.2688L140.892 23.3757C142.041 22.2272 143.771 23.9724 142.622 25.1209L138.744 28.999L142.622 32.892C143.771 34.0405 142.041 35.7708 140.892 34.6223L136.999 30.7441L133.121 34.6223C131.972 35.7708 130.227 34.0405 131.376 32.892L135.269 28.999L131.376 25.1209C130.227 23.9724 131.972 22.2272 133.121 23.3757L136.999 27.2688Z" fill="#2E2E2E"/>
</svg>
