<svg height='100px' width='100px'  fill="#000000" xmlns="http://www.w3.org/2000/svg" xmlns:xlink="http://www.w3.org/1999/xlink" version="1.1" x="0px" y="0px" viewBox="0 0 100 100" enable-background="new 0 0 100 100" xml:space="preserve"><g><path d="M59.787,95c-0.079,0-0.16-0.002-0.24-0.007c-1.839-0.104-3.398-1.388-3.854-3.173l-9.656-37.857L8.18,44.308   c-1.785-0.455-3.069-2.015-3.173-3.854c-0.105-1.839,0.994-3.533,2.716-4.188l81.551-30.99c1.556-0.593,3.312-0.213,4.487,0.962   c1.177,1.176,1.553,2.932,0.962,4.487l-30.99,81.551C63.109,93.923,61.532,95,59.787,95z M23.204,39.42l27.349,6.976   c1.498,0.382,2.668,1.551,3.05,3.05l6.976,27.35l22.908-60.283L23.204,39.42z"></path></g></svg>