<svg width="37" height="29" viewBox="0 0 37 29" fill="none" xmlns="http://www.w3.org/2000/svg">
<path d="M34.7903 5.27075C28.9897 5.27075 23.7712 8.90536 21.7053 14.2432C21.4131 14.1956 21.1145 14.1676 20.8093 14.1676C19.3128 14.1676 17.8634 14.7904 16.8325 15.8763C16.3723 16.3614 16.3923 17.1276 16.8772 17.5881C17.3621 18.0483 18.1282 18.0279 18.5889 17.5434C19.1731 16.928 19.9616 16.5889 20.8093 16.5889C22.0629 16.5889 23.149 17.3338 23.6204 18.437C23.1557 18.8258 22.7676 19.3144 22.4875 19.8839C22.1927 20.4839 22.4398 21.2097 23.0398 21.5048C23.2116 21.5893 23.3937 21.6293 23.5732 21.6293C24.0202 21.6293 24.45 21.3807 24.6606 20.9525C24.9987 20.2647 25.6846 19.8374 26.4504 19.8374C27.1849 19.8374 27.8581 20.2399 28.2068 20.8879C28.5242 21.4769 29.2583 21.6971 29.8468 21.3801C30.4355 21.0631 30.656 20.3288 30.339 19.7401C29.5671 18.3065 28.077 17.4162 26.4503 17.4162C26.2422 17.4162 26.037 17.4312 25.8353 17.4589C25.4283 16.5165 24.772 15.7215 23.95 15.1495C25.6497 10.7145 29.978 7.69199 34.7902 7.69199C35.4588 7.69199 36.0009 7.14999 36.0009 6.48135C36.0009 5.81271 35.4589 5.27075 34.7903 5.27075Z" fill="url(#paint0_linear)" stroke="url(#paint1_linear)" stroke-width="0.4"/>
<path d="M36 10.7528C36 10.0842 35.458 9.54218 34.7894 9.54218C31.4776 9.54218 28.4203 11.2012 26.6109 13.9801C26.2462 14.5405 26.4047 15.2906 26.9648 15.6554C27.1688 15.7882 27.398 15.8516 27.6244 15.8516C27.6724 15.8516 27.7191 15.84 27.7667 15.8343L27.7677 15.8435C27.9696 15.8195 28.1764 15.8074 28.3827 15.8074C31.2477 15.8074 33.5787 18.1384 33.5787 21.0034C33.5787 23.8685 31.2478 26.1994 28.3827 26.1994H6.90884C4.98582 26.1994 3.42128 24.6349 3.42128 22.7119C3.42128 21.0337 4.61834 19.593 6.26758 19.2867C6.80125 19.1874 7.20376 18.7451 7.25215 18.2043C7.59294 14.4031 10.7299 11.5364 14.5493 11.5364C16.0504 11.5364 17.4919 11.9873 18.718 12.84L18.719 12.8383C18.7706 12.8742 18.8225 12.9096 18.8807 12.9378C19.0508 13.0204 19.2308 13.0596 19.4081 13.0596C19.8573 13.0596 20.289 12.8083 20.4982 12.3768C23.1776 6.85293 28.6536 3.42124 34.7894 3.42124C35.458 3.42124 36 2.87924 36 2.2106C36 1.54196 35.458 1 34.7894 1C28.2645 1 22.1784 4.55619 18.9357 10.1609C17.583 9.47606 16.0902 9.11507 14.5492 9.11507C9.75676 9.11507 5.77158 12.5082 4.95324 17.1375C2.61708 17.954 1 20.1724 1 22.7119C1 25.97 3.65068 28.6207 6.90884 28.6207H28.3827C32.5829 28.6207 36 25.2036 36 21.0034C36 17.4172 33.5059 14.4099 30.1633 13.6049C31.4526 12.5549 33.0757 11.9634 34.7894 11.9634C35.458 11.9634 36 11.4214 36 10.7528Z" fill="url(#paint2_linear)" stroke="url(#paint3_linear)" stroke-width="0.4"/>
<defs>
<linearGradient id="paint0_linear" x1="26.2733" y1="4.63863" x2="26.2733" y2="22.3189" gradientUnits="userSpaceOnUse">
<stop stop-color="#EDF6E5"/>
<stop offset="0.359375" stop-color="#B5EAEA"/>
<stop offset="0.458333" stop-color="#B5EAEA" stop-opacity="0.651042"/>
<stop offset="0.552083" stop-color="#FFBCBC" stop-opacity="0.651"/>
<stop offset="0.75" stop-color="#FFBCBC"/>
<stop offset="1" stop-color="#FDE29D" stop-opacity="0.35"/>
</linearGradient>
<linearGradient id="paint1_linear" x1="26.2733" y1="4.63863" x2="26.2733" y2="22.3189" gradientUnits="userSpaceOnUse">
<stop stop-color="#EDF6E5"/>
<stop offset="0.359375" stop-color="#B5EAEA"/>
<stop offset="0.458333" stop-color="#B5EAEA" stop-opacity="0.651042"/>
<stop offset="0.552083" stop-color="#FFBCBC" stop-opacity="0.651"/>
<stop offset="0.75" stop-color="#FFBCBC"/>
<stop offset="1" stop-color="#FDE29D" stop-opacity="0.35"/>
</linearGradient>
<linearGradient id="paint2_linear" x1="18.541" y1="-0.0673108" x2="18.541" y2="29.785" gradientUnits="userSpaceOnUse">
<stop stop-color="#EDF6E5"/>
<stop offset="0.359375" stop-color="#B5EAEA"/>
<stop offset="0.458333" stop-color="#B5EAEA" stop-opacity="0.651042"/>
<stop offset="0.552083" stop-color="#FFBCBC" stop-opacity="0.651"/>
<stop offset="0.75" stop-color="#FFBCBC"/>
<stop offset="1" stop-color="#FDE29D" stop-opacity="0.35"/>
</linearGradient>
<linearGradient id="paint3_linear" x1="18.541" y1="-0.0673108" x2="18.541" y2="29.785" gradientUnits="userSpaceOnUse">
<stop stop-color="#EDF6E5"/>
<stop offset="0.359375" stop-color="#B5EAEA"/>
<stop offset="0.458333" stop-color="#B5EAEA" stop-opacity="0.651042"/>
<stop offset="0.552083" stop-color="#FFBCBC" stop-opacity="0.651"/>
<stop offset="0.75" stop-color="#FFBCBC"/>
<stop offset="1" stop-color="#FDE29D" stop-opacity="0.35"/>
</linearGradient>
</defs>
</svg>
