<svg width="174" height="63" viewBox="0 0 174 63" fill="none" xmlns="http://www.w3.org/2000/svg">
<g filter="url(#filter0_i)">
<rect x="4" y="4" width="166" height="55" rx="15" fill="#FFF8F5"/>
</g>
<rect x="4" y="4" width="166" height="55" rx="15" stroke="#FFF1EB" stroke-width="8"/>
<path d="M27.485 35.14H23.555L22.925 37H20.24L24.05 26.47H27.02L30.83 37H28.115L27.485 35.14ZM26.825 33.16L25.52 29.305L24.23 33.16H26.825ZM40.2546 28.63V37H37.6896V35.86C37.4296 36.23 37.0746 36.53 36.6246 36.76C36.1846 36.98 35.6946 37.09 35.1546 37.09C34.5146 37.09 33.9496 36.95 33.4596 36.67C32.9696 36.38 32.5896 35.965 32.3196 35.425C32.0496 34.885 31.9146 34.25 31.9146 33.52V28.63H34.4646V33.175C34.4646 33.735 34.6096 34.17 34.8996 34.48C35.1896 34.79 35.5796 34.945 36.0696 34.945C36.5696 34.945 36.9646 34.79 37.2546 34.48C37.5446 34.17 37.6896 33.735 37.6896 33.175V28.63H40.2546ZM45.502 37.12C44.772 37.12 44.122 36.995 43.552 36.745C42.982 36.495 42.532 36.155 42.202 35.725C41.872 35.285 41.687 34.795 41.647 34.255H44.182C44.212 34.545 44.347 34.78 44.587 34.96C44.827 35.14 45.122 35.23 45.472 35.23C45.792 35.23 46.037 35.17 46.207 35.05C46.387 34.92 46.477 34.755 46.477 34.555C46.477 34.315 46.352 34.14 46.102 34.03C45.852 33.91 45.447 33.78 44.887 33.64C44.287 33.5 43.787 33.355 43.387 33.205C42.987 33.045 42.642 32.8 42.352 32.47C42.062 32.13 41.917 31.675 41.917 31.105C41.917 30.625 42.047 30.19 42.307 29.8C42.577 29.4 42.967 29.085 43.477 28.855C43.997 28.625 44.612 28.51 45.322 28.51C46.372 28.51 47.197 28.77 47.797 29.29C48.407 29.81 48.757 30.5 48.847 31.36H46.477C46.437 31.07 46.307 30.84 46.087 30.67C45.877 30.5 45.597 30.415 45.247 30.415C44.947 30.415 44.717 30.475 44.557 30.595C44.397 30.705 44.317 30.86 44.317 31.06C44.317 31.3 44.442 31.48 44.692 31.6C44.952 31.72 45.352 31.84 45.892 31.96C46.512 32.12 47.017 32.28 47.407 32.44C47.797 32.59 48.137 32.84 48.427 33.19C48.727 33.53 48.882 33.99 48.892 34.57C48.892 35.06 48.752 35.5 48.472 35.89C48.202 36.27 47.807 36.57 47.287 36.79C46.777 37.01 46.182 37.12 45.502 37.12ZM55.1263 34.825V37H53.8213C52.8913 37 52.1663 36.775 51.6463 36.325C51.1263 35.865 50.8663 35.12 50.8663 34.09V30.76H49.8463V28.63H50.8663V26.59H53.4313V28.63H55.1113V30.76H53.4313V34.12C53.4313 34.37 53.4913 34.55 53.6113 34.66C53.7313 34.77 53.9313 34.825 54.2113 34.825H55.1263ZM57.845 27.76C57.395 27.76 57.025 27.63 56.735 27.37C56.455 27.1 56.315 26.77 56.315 26.38C56.315 25.98 56.455 25.65 56.735 25.39C57.025 25.12 57.395 24.985 57.845 24.985C58.285 24.985 58.645 25.12 58.925 25.39C59.215 25.65 59.36 25.98 59.36 26.38C59.36 26.77 59.215 27.1 58.925 27.37C58.645 27.63 58.285 27.76 57.845 27.76ZM59.12 28.63V37H56.555V28.63H59.12ZM66.0788 28.54C67.0588 28.54 67.8388 28.86 68.4188 29.5C69.0088 30.13 69.3038 31 69.3038 32.11V37H66.7538V32.455C66.7538 31.895 66.6088 31.46 66.3188 31.15C66.0288 30.84 65.6388 30.685 65.1488 30.685C64.6588 30.685 64.2688 30.84 63.9788 31.15C63.6888 31.46 63.5438 31.895 63.5438 32.455V37H60.9788V28.63H63.5438V29.74C63.8038 29.37 64.1538 29.08 64.5938 28.87C65.0338 28.65 65.5288 28.54 66.0788 28.54Z" fill="#2E2E2E"/>
<path fill-rule="evenodd" clip-rule="evenodd" d="M146.999 30.2688L150.892 26.3757C152.041 25.2272 153.771 26.9724 152.622 28.1209L148.744 31.999L152.622 35.892C153.771 37.0405 152.041 38.7708 150.892 37.6223L146.999 33.7441L143.121 37.6223C141.972 38.7708 140.227 37.0405 141.376 35.892L145.269 31.999L141.376 28.1209C140.227 26.9724 141.972 25.2272 143.121 26.3757L146.999 30.2688Z" fill="#2E2E2E"/>
<defs>
<filter id="filter0_i" x="0" y="0" width="174" height="63" filterUnits="userSpaceOnUse" color-interpolation-filters="sRGB">
<feFlood flood-opacity="0" result="BackgroundImageFix"/>
<feBlend mode="normal" in="SourceGraphic" in2="BackgroundImageFix" result="shape"/>
<feColorMatrix in="SourceAlpha" type="matrix" values="0 0 0 0 0 0 0 0 0 0 0 0 0 0 0 0 0 0 127 0" result="hardAlpha"/>
<feOffset/>
<feGaussianBlur stdDeviation="2"/>
<feComposite in2="hardAlpha" operator="arithmetic" k2="-1" k3="1"/>
<feColorMatrix type="matrix" values="0 0 0 0 0.898039 0 0 0 0 0.898039 0 0 0 0 0.898039 0 0 0 0.49 0"/>
<feBlend mode="normal" in2="shape" result="effect1_innerShadow"/>
</filter>
</defs>
</svg>
