<svg width="166" height="55" viewBox="0 0 166 55" fill="none" xmlns="http://www.w3.org/2000/svg">
<g filter="url(#filter0_i)">
<rect width="166" height="55" rx="10" fill="#FFE9DF"/>
</g>
<path d="M26.35 33H23.785L19.495 26.505V33H16.93V22.47H19.495L23.785 28.995V22.47H26.35V33ZM27.6993 28.8C27.6993 27.94 27.8593 27.185 28.1793 26.535C28.5093 25.885 28.9543 25.385 29.5143 25.035C30.0743 24.685 30.6993 24.51 31.3893 24.51C31.9793 24.51 32.4943 24.63 32.9343 24.87C33.3843 25.11 33.7293 25.425 33.9693 25.815V24.63H36.5343V33H33.9693V31.815C33.7193 32.205 33.3693 32.52 32.9193 32.76C32.4793 33 31.9643 33.12 31.3743 33.12C30.6943 33.12 30.0743 32.945 29.5143 32.595C28.9543 32.235 28.5093 31.73 28.1793 31.08C27.8593 30.42 27.6993 29.66 27.6993 28.8ZM33.9693 28.815C33.9693 28.175 33.7893 27.67 33.4293 27.3C33.0793 26.93 32.6493 26.745 32.1393 26.745C31.6293 26.745 31.1943 26.93 30.8343 27.3C30.4843 27.66 30.3093 28.16 30.3093 28.8C30.3093 29.44 30.4843 29.95 30.8343 30.33C31.1943 30.7 31.6293 30.885 32.1393 30.885C32.6493 30.885 33.0793 30.7 33.4293 30.33C33.7893 29.96 33.9693 29.455 33.9693 28.815ZM41.795 33.12C41.065 33.12 40.415 32.995 39.845 32.745C39.275 32.495 38.825 32.155 38.495 31.725C38.165 31.285 37.98 30.795 37.94 30.255H40.475C40.505 30.545 40.64 30.78 40.88 30.96C41.12 31.14 41.415 31.23 41.765 31.23C42.085 31.23 42.33 31.17 42.5 31.05C42.68 30.92 42.77 30.755 42.77 30.555C42.77 30.315 42.645 30.14 42.395 30.03C42.145 29.91 41.74 29.78 41.18 29.64C40.58 29.5 40.08 29.355 39.68 29.205C39.28 29.045 38.935 28.8 38.645 28.47C38.355 28.13 38.21 27.675 38.21 27.105C38.21 26.625 38.34 26.19 38.6 25.8C38.87 25.4 39.26 25.085 39.77 24.855C40.29 24.625 40.905 24.51 41.615 24.51C42.665 24.51 43.49 24.77 44.09 25.29C44.7 25.81 45.05 26.5 45.14 27.36H42.77C42.73 27.07 42.6 26.84 42.38 26.67C42.17 26.5 41.89 26.415 41.54 26.415C41.24 26.415 41.01 26.475 40.85 26.595C40.69 26.705 40.61 26.86 40.61 27.06C40.61 27.3 40.735 27.48 40.985 27.6C41.245 27.72 41.645 27.84 42.185 27.96C42.805 28.12 43.31 28.28 43.7 28.44C44.09 28.59 44.43 28.84 44.72 29.19C45.02 29.53 45.175 29.99 45.185 30.57C45.185 31.06 45.045 31.5 44.765 31.89C44.495 32.27 44.1 32.57 43.58 32.79C43.07 33.01 42.475 33.12 41.795 33.12ZM51.8992 24.54C52.8592 24.54 53.6292 24.86 54.2092 25.5C54.7892 26.13 55.0792 27 55.0792 28.11V33H52.5292V28.455C52.5292 27.895 52.3842 27.46 52.0942 27.15C51.8042 26.84 51.4142 26.685 50.9242 26.685C50.4342 26.685 50.0442 26.84 49.7542 27.15C49.4642 27.46 49.3192 27.895 49.3192 28.455V33H46.7542V21.9H49.3192V25.755C49.5792 25.385 49.9342 25.09 50.3842 24.87C50.8342 24.65 51.3392 24.54 51.8992 24.54ZM60.6266 30.6L62.4416 24.63H65.1716L62.2016 33H59.0366L56.0666 24.63H58.8116L60.6266 30.6ZM67.5413 23.76C67.0913 23.76 66.7213 23.63 66.4313 23.37C66.1513 23.1 66.0113 22.77 66.0113 22.38C66.0113 21.98 66.1513 21.65 66.4313 21.39C66.7213 21.12 67.0913 20.985 67.5413 20.985C67.9813 20.985 68.3413 21.12 68.6213 21.39C68.9113 21.65 69.0563 21.98 69.0563 22.38C69.0563 22.77 68.9113 23.1 68.6213 23.37C68.3413 23.63 67.9813 23.76 67.5413 23.76ZM68.8163 24.63V33H66.2513V24.63H68.8163ZM73.2401 21.9V33H70.6751V21.9H73.2401ZM77.6639 21.9V33H75.0989V21.9H77.6639ZM87.4128 28.68C87.4128 28.92 87.3978 29.17 87.3678 29.43H81.5628C81.6028 29.95 81.7678 30.35 82.0578 30.63C82.3578 30.9 82.7228 31.035 83.1528 31.035C83.7928 31.035 84.2378 30.765 84.4878 30.225H87.2178C87.0778 30.775 86.8228 31.27 86.4528 31.71C86.0928 32.15 85.6378 32.495 85.0878 32.745C84.5378 32.995 83.9228 33.12 83.2428 33.12C82.4228 33.12 81.6928 32.945 81.0528 32.595C80.4128 32.245 79.9128 31.745 79.5528 31.095C79.1928 30.445 79.0128 29.685 79.0128 28.815C79.0128 27.945 79.1878 27.185 79.5378 26.535C79.8978 25.885 80.3978 25.385 81.0378 25.035C81.6778 24.685 82.4128 24.51 83.2428 24.51C84.0528 24.51 84.7728 24.68 85.4028 25.02C86.0328 25.36 86.5228 25.845 86.8728 26.475C87.2328 27.105 87.4128 27.84 87.4128 28.68ZM84.7878 28.005C84.7878 27.565 84.6378 27.215 84.3378 26.955C84.0378 26.695 83.6628 26.565 83.2128 26.565C82.7828 26.565 82.4178 26.69 82.1178 26.94C81.8278 27.19 81.6478 27.545 81.5778 28.005H84.7878Z" fill="#2E2E2E"/>
<path fill-rule="evenodd" clip-rule="evenodd" d="M142.999 26.2688L146.892 22.3757C148.041 21.2272 149.771 22.9724 148.622 24.1209L144.744 27.999L148.622 31.892C149.771 33.0405 148.041 34.7708 146.892 33.6223L142.999 29.7441L139.121 33.6223C137.972 34.7708 136.227 33.0405 137.376 31.892L141.269 27.999L137.376 24.1209C136.227 22.9724 137.972 21.2272 139.121 22.3757L142.999 26.2688Z" fill="#2E2E2E"/>
<defs>
<filter id="filter0_i" x="0" y="0" width="166" height="55" filterUnits="userSpaceOnUse" color-interpolation-filters="sRGB">
<feFlood flood-opacity="0" result="BackgroundImageFix"/>
<feBlend mode="normal" in="SourceGraphic" in2="BackgroundImageFix" result="shape"/>
<feColorMatrix in="SourceAlpha" type="matrix" values="0 0 0 0 0 0 0 0 0 0 0 0 0 0 0 0 0 0 127 0" result="hardAlpha"/>
<feOffset/>
<feGaussianBlur stdDeviation="2"/>
<feComposite in2="hardAlpha" operator="arithmetic" k2="-1" k3="1"/>
<feColorMatrix type="matrix" values="0 0 0 0 0.898039 0 0 0 0 0.898039 0 0 0 0 0.898039 0 0 0 0.49 0"/>
<feBlend mode="normal" in2="shape" result="effect1_innerShadow"/>
</filter>
</defs>
</svg>
