<svg width="174" height="63" viewBox="0 0 174 63" fill="none" xmlns="http://www.w3.org/2000/svg">
<g filter="url(#filter0_i)">
<rect x="4" y="4" width="166" height="55" rx="10" fill="#FFF8F5"/>
</g>
<rect x="4" y="4" width="166" height="55" rx="10" stroke="#FFF1EB" stroke-width="8"/>
<path d="M20.495 31.72C20.495 30.68 20.72 29.755 21.17 28.945C21.62 28.125 22.245 27.49 23.045 27.04C23.855 26.58 24.77 26.35 25.79 26.35C27.04 26.35 28.11 26.68 29 27.34C29.89 28 30.485 28.9 30.785 30.04H27.965C27.755 29.6 27.455 29.265 27.065 29.035C26.685 28.805 26.25 28.69 25.76 28.69C24.97 28.69 24.33 28.965 23.84 29.515C23.35 30.065 23.105 30.8 23.105 31.72C23.105 32.64 23.35 33.375 23.84 33.925C24.33 34.475 24.97 34.75 25.76 34.75C26.25 34.75 26.685 34.635 27.065 34.405C27.455 34.175 27.755 33.84 27.965 33.4H30.785C30.485 34.54 29.89 35.44 29 36.1C28.11 36.75 27.04 37.075 25.79 37.075C24.77 37.075 23.855 36.85 23.045 36.4C22.245 35.94 21.62 35.305 21.17 34.495C20.72 33.685 20.495 32.76 20.495 31.72ZM31.8458 32.8C31.8458 31.94 32.0058 31.185 32.3258 30.535C32.6558 29.885 33.1008 29.385 33.6608 29.035C34.2208 28.685 34.8458 28.51 35.5358 28.51C36.1258 28.51 36.6408 28.63 37.0808 28.87C37.5308 29.11 37.8758 29.425 38.1158 29.815V28.63H40.6808V37H38.1158V35.815C37.8658 36.205 37.5158 36.52 37.0658 36.76C36.6258 37 36.1108 37.12 35.5208 37.12C34.8408 37.12 34.2208 36.945 33.6608 36.595C33.1008 36.235 32.6558 35.73 32.3258 35.08C32.0058 34.42 31.8458 33.66 31.8458 32.8ZM38.1158 32.815C38.1158 32.175 37.9358 31.67 37.5758 31.3C37.2258 30.93 36.7958 30.745 36.2858 30.745C35.7758 30.745 35.3408 30.93 34.9808 31.3C34.6308 31.66 34.4558 32.16 34.4558 32.8C34.4558 33.44 34.6308 33.95 34.9808 34.33C35.3408 34.7 35.7758 34.885 36.2858 34.885C36.7958 34.885 37.2258 34.7 37.5758 34.33C37.9358 33.96 38.1158 33.455 38.1158 32.815ZM47.2014 34.825V37H45.8964C44.9664 37 44.2414 36.775 43.7214 36.325C43.2014 35.865 42.9414 35.12 42.9414 34.09V30.76H41.9214V28.63H42.9414V26.59H45.5064V28.63H47.1864V30.76H45.5064V34.12C45.5064 34.37 45.5664 34.55 45.6864 34.66C45.8064 34.77 46.0064 34.825 46.2864 34.825H47.2014ZM48.1202 32.8C48.1202 31.94 48.2802 31.185 48.6002 30.535C48.9302 29.885 49.3752 29.385 49.9352 29.035C50.4952 28.685 51.1202 28.51 51.8102 28.51C52.4002 28.51 52.9152 28.63 53.3552 28.87C53.8052 29.11 54.1502 29.425 54.3902 29.815V28.63H56.9552V37H54.3902V35.815C54.1402 36.205 53.7902 36.52 53.3402 36.76C52.9002 37 52.3852 37.12 51.7952 37.12C51.1152 37.12 50.4952 36.945 49.9352 36.595C49.3752 36.235 48.9302 35.73 48.6002 35.08C48.2802 34.42 48.1202 33.66 48.1202 32.8ZM54.3902 32.815C54.3902 32.175 54.2102 31.67 53.8502 31.3C53.5002 30.93 53.0702 30.745 52.5602 30.745C52.0502 30.745 51.6152 30.93 51.2552 31.3C50.9052 31.66 50.7302 32.16 50.7302 32.8C50.7302 33.44 50.9052 33.95 51.2552 34.33C51.6152 34.7 52.0502 34.885 52.5602 34.885C53.0702 34.885 53.5002 34.7 53.8502 34.33C54.2102 33.96 54.3902 33.455 54.3902 32.815ZM63.9109 28.54C64.8909 28.54 65.6709 28.86 66.2509 29.5C66.8409 30.13 67.1359 31 67.1359 32.11V37H64.5859V32.455C64.5859 31.895 64.4409 31.46 64.1509 31.15C63.8609 30.84 63.4709 30.685 62.9809 30.685C62.4909 30.685 62.1009 30.84 61.8109 31.15C61.5209 31.46 61.3759 31.895 61.3759 32.455V37H58.8109V28.63H61.3759V29.74C61.6359 29.37 61.9859 29.08 62.4259 28.87C62.8659 28.65 63.3609 28.54 63.9109 28.54ZM71.3183 34.885H74.9483V37H68.4533V34.96L71.9333 30.745H68.4833V28.63H74.8733V30.67L71.3183 34.885ZM75.8497 32.8C75.8497 31.94 76.0097 31.185 76.3297 30.535C76.6597 29.885 77.1047 29.385 77.6647 29.035C78.2247 28.685 78.8497 28.51 79.5397 28.51C80.1297 28.51 80.6447 28.63 81.0847 28.87C81.5347 29.11 81.8797 29.425 82.1197 29.815V28.63H84.6847V37H82.1197V35.815C81.8697 36.205 81.5197 36.52 81.0697 36.76C80.6297 37 80.1147 37.12 79.5247 37.12C78.8447 37.12 78.2247 36.945 77.6647 36.595C77.1047 36.235 76.6597 35.73 76.3297 35.08C76.0097 34.42 75.8497 33.66 75.8497 32.8ZM82.1197 32.815C82.1197 32.175 81.9397 31.67 81.5797 31.3C81.2297 30.93 80.7997 30.745 80.2897 30.745C79.7797 30.745 79.3447 30.93 78.9847 31.3C78.6347 31.66 78.4597 32.16 78.4597 32.8C78.4597 33.44 78.6347 33.95 78.9847 34.33C79.3447 34.7 79.7797 34.885 80.2897 34.885C80.7997 34.885 81.2297 34.7 81.5797 34.33C81.9397 33.96 82.1197 33.455 82.1197 32.815ZM89.1054 30.025C89.4054 29.565 89.7804 29.205 90.2304 28.945C90.6804 28.675 91.1804 28.54 91.7304 28.54V31.255H91.0254C90.3854 31.255 89.9054 31.395 89.5854 31.675C89.2654 31.945 89.1054 32.425 89.1054 33.115V37H86.5404V28.63H89.1054V30.025ZM96.7664 37.12C95.9464 37.12 95.2064 36.945 94.5464 36.595C93.8964 36.245 93.3814 35.745 93.0014 35.095C92.6314 34.445 92.4464 33.685 92.4464 32.815C92.4464 31.955 92.6364 31.2 93.0164 30.55C93.3964 29.89 93.9164 29.385 94.5764 29.035C95.2364 28.685 95.9764 28.51 96.7964 28.51C97.6164 28.51 98.3564 28.685 99.0164 29.035C99.6764 29.385 100.196 29.89 100.576 30.55C100.956 31.2 101.146 31.955 101.146 32.815C101.146 33.675 100.951 34.435 100.561 35.095C100.181 35.745 99.6564 36.245 98.9864 36.595C98.3264 36.945 97.5864 37.12 96.7664 37.12ZM96.7664 34.9C97.2564 34.9 97.6714 34.72 98.0114 34.36C98.3614 34 98.5364 33.485 98.5364 32.815C98.5364 32.145 98.3664 31.63 98.0264 31.27C97.6964 30.91 97.2864 30.73 96.7964 30.73C96.2964 30.73 95.8814 30.91 95.5514 31.27C95.2214 31.62 95.0564 32.135 95.0564 32.815C95.0564 33.485 95.2164 34 95.5364 34.36C95.8664 34.72 96.2764 34.9 96.7664 34.9Z" fill="#2E2E2E"/>
<path fill-rule="evenodd" clip-rule="evenodd" d="M146.999 30.2688L150.892 26.3757C152.041 25.2272 153.771 26.9724 152.622 28.1209L148.744 31.999L152.622 35.892C153.771 37.0405 152.041 38.7708 150.892 37.6223L146.999 33.7441L143.121 37.6223C141.972 38.7708 140.227 37.0405 141.376 35.892L145.269 31.999L141.376 28.1209C140.227 26.9724 141.972 25.2272 143.121 26.3757L146.999 30.2688Z" fill="#2E2E2E"/>
<defs>
<filter id="filter0_i" x="0" y="0" width="174" height="63" filterUnits="userSpaceOnUse" color-interpolation-filters="sRGB">
<feFlood flood-opacity="0" result="BackgroundImageFix"/>
<feBlend mode="normal" in="SourceGraphic" in2="BackgroundImageFix" result="shape"/>
<feColorMatrix in="SourceAlpha" type="matrix" values="0 0 0 0 0 0 0 0 0 0 0 0 0 0 0 0 0 0 127 0" result="hardAlpha"/>
<feOffset/>
<feGaussianBlur stdDeviation="2"/>
<feComposite in2="hardAlpha" operator="arithmetic" k2="-1" k3="1"/>
<feColorMatrix type="matrix" values="0 0 0 0 0.898039 0 0 0 0 0.898039 0 0 0 0 0.898039 0 0 0 0.49 0"/>
<feBlend mode="normal" in2="shape" result="effect1_innerShadow"/>
</filter>
</defs>
</svg>
