<svg width="163" height="58" viewBox="0 0 163 58" fill="none" xmlns="http://www.w3.org/2000/svg">
<rect x="4" y="4" width="155" height="50" rx="15" fill="#FFF8F5" stroke="#FFF1EB" stroke-width="8"/>
<path d="M24.74 34.105C23.97 34.105 23.28 33.98 22.67 33.73C22.06 33.48 21.57 33.11 21.2 32.62C20.84 32.13 20.65 31.54 20.63 30.85H23.36C23.4 31.24 23.535 31.54 23.765 31.75C23.995 31.95 24.295 32.05 24.665 32.05C25.045 32.05 25.345 31.965 25.565 31.795C25.785 31.615 25.895 31.37 25.895 31.06C25.895 30.8 25.805 30.585 25.625 30.415C25.455 30.245 25.24 30.105 24.98 29.995C24.73 29.885 24.37 29.76 23.9 29.62C23.22 29.41 22.665 29.2 22.235 28.99C21.805 28.78 21.435 28.47 21.125 28.06C20.815 27.65 20.66 27.115 20.66 26.455C20.66 25.475 21.015 24.71 21.725 24.16C22.435 23.6 23.36 23.32 24.5 23.32C25.66 23.32 26.595 23.6 27.305 24.16C28.015 24.71 28.395 25.48 28.445 26.47H25.67C25.65 26.13 25.525 25.865 25.295 25.675C25.065 25.475 24.77 25.375 24.41 25.375C24.1 25.375 23.85 25.46 23.66 25.63C23.47 25.79 23.375 26.025 23.375 26.335C23.375 26.675 23.535 26.94 23.855 27.13C24.175 27.32 24.675 27.525 25.355 27.745C26.035 27.975 26.585 28.195 27.005 28.405C27.435 28.615 27.805 28.92 28.115 29.32C28.425 29.72 28.58 30.235 28.58 30.865C28.58 31.465 28.425 32.01 28.115 32.5C27.815 32.99 27.375 33.38 26.795 33.67C26.215 33.96 25.53 34.105 24.74 34.105ZM31.4485 24.76C30.9985 24.76 30.6285 24.63 30.3385 24.37C30.0585 24.1 29.9185 23.77 29.9185 23.38C29.9185 22.98 30.0585 22.65 30.3385 22.39C30.6285 22.12 30.9985 21.985 31.4485 21.985C31.8885 21.985 32.2485 22.12 32.5285 22.39C32.8185 22.65 32.9635 22.98 32.9635 23.38C32.9635 23.77 32.8185 24.1 32.5285 24.37C32.2485 24.63 31.8885 24.76 31.4485 24.76ZM32.7235 25.63V34H30.1585V25.63H32.7235ZM42.4723 29.68C42.4723 29.92 42.4573 30.17 42.4273 30.43H36.6223C36.6623 30.95 36.8273 31.35 37.1173 31.63C37.4173 31.9 37.7823 32.035 38.2123 32.035C38.8523 32.035 39.2973 31.765 39.5473 31.225H42.2773C42.1373 31.775 41.8823 32.27 41.5123 32.71C41.1523 33.15 40.6973 33.495 40.1473 33.745C39.5973 33.995 38.9823 34.12 38.3023 34.12C37.4823 34.12 36.7523 33.945 36.1123 33.595C35.4723 33.245 34.9723 32.745 34.6123 32.095C34.2523 31.445 34.0723 30.685 34.0723 29.815C34.0723 28.945 34.2473 28.185 34.5973 27.535C34.9573 26.885 35.4573 26.385 36.0973 26.035C36.7373 25.685 37.4723 25.51 38.3023 25.51C39.1123 25.51 39.8323 25.68 40.4623 26.02C41.0923 26.36 41.5823 26.845 41.9323 27.475C42.2923 28.105 42.4723 28.84 42.4723 29.68ZM39.8473 29.005C39.8473 28.565 39.6973 28.215 39.3973 27.955C39.0973 27.695 38.7223 27.565 38.2723 27.565C37.8423 27.565 37.4773 27.69 37.1773 27.94C36.8873 28.19 36.7073 28.545 36.6373 29.005H39.8473ZM54.5055 25.54C55.5455 25.54 56.3705 25.855 56.9805 26.485C57.6005 27.115 57.9105 27.99 57.9105 29.11V34H55.3605V29.455C55.3605 28.915 55.2155 28.5 54.9255 28.21C54.6455 27.91 54.2555 27.76 53.7555 27.76C53.2555 27.76 52.8605 27.91 52.5705 28.21C52.2905 28.5 52.1505 28.915 52.1505 29.455V34H49.6005V29.455C49.6005 28.915 49.4555 28.5 49.1655 28.21C48.8855 27.91 48.4955 27.76 47.9955 27.76C47.4955 27.76 47.1005 27.91 46.8105 28.21C46.5305 28.5 46.3905 28.915 46.3905 29.455V34H43.8255V25.63H46.3905V26.68C46.6505 26.33 46.9905 26.055 47.4105 25.855C47.8305 25.645 48.3055 25.54 48.8355 25.54C49.4655 25.54 50.0255 25.675 50.5155 25.945C51.0155 26.215 51.4055 26.6 51.6855 27.1C51.9755 26.64 52.3705 26.265 52.8705 25.975C53.3705 25.685 53.9155 25.54 54.5055 25.54ZM68.2531 34L66.0631 30.025H65.4481V34H62.8831V23.47H67.1881C68.0181 23.47 68.7231 23.615 69.3031 23.905C69.8931 24.195 70.3331 24.595 70.6231 25.105C70.9131 25.605 71.0581 26.165 71.0581 26.785C71.0581 27.485 70.8581 28.11 70.4581 28.66C70.0681 29.21 69.4881 29.6 68.7181 29.83L71.1481 34H68.2531ZM65.4481 28.21H67.0381C67.5081 28.21 67.8581 28.095 68.0881 27.865C68.3281 27.635 68.4481 27.31 68.4481 26.89C68.4481 26.49 68.3281 26.175 68.0881 25.945C67.8581 25.715 67.5081 25.6 67.0381 25.6H65.4481V28.21ZM73.9583 24.76C73.5083 24.76 73.1383 24.63 72.8483 24.37C72.5683 24.1 72.4283 23.77 72.4283 23.38C72.4283 22.98 72.5683 22.65 72.8483 22.39C73.1383 22.12 73.5083 21.985 73.9583 21.985C74.3983 21.985 74.7583 22.12 75.0383 22.39C75.3283 22.65 75.4733 22.98 75.4733 23.38C75.4733 23.77 75.3283 24.1 75.0383 24.37C74.7583 24.63 74.3983 24.76 73.9583 24.76ZM75.2333 25.63V34H72.6683V25.63H75.2333ZM84.9821 29.68C84.9821 29.92 84.9671 30.17 84.9371 30.43H79.1321C79.1721 30.95 79.3371 31.35 79.6271 31.63C79.9271 31.9 80.2921 32.035 80.7221 32.035C81.3621 32.035 81.8071 31.765 82.0571 31.225H84.7871C84.6471 31.775 84.3921 32.27 84.0221 32.71C83.6621 33.15 83.2071 33.495 82.6571 33.745C82.1071 33.995 81.4921 34.12 80.8121 34.12C79.9921 34.12 79.2621 33.945 78.6221 33.595C77.9821 33.245 77.4821 32.745 77.1221 32.095C76.7621 31.445 76.5821 30.685 76.5821 29.815C76.5821 28.945 76.7571 28.185 77.1071 27.535C77.4671 26.885 77.9671 26.385 78.6071 26.035C79.2471 25.685 79.9821 25.51 80.8121 25.51C81.6221 25.51 82.3421 25.68 82.9721 26.02C83.6021 26.36 84.0921 26.845 84.4421 27.475C84.8021 28.105 84.9821 28.84 84.9821 29.68ZM82.3571 29.005C82.3571 28.565 82.2071 28.215 81.9071 27.955C81.6071 27.695 81.2321 27.565 80.7821 27.565C80.3521 27.565 79.9871 27.69 79.6871 27.94C79.3971 28.19 79.2171 28.545 79.1471 29.005H82.3571ZM88.9003 26.815C89.1503 26.425 89.4953 26.11 89.9353 25.87C90.3753 25.63 90.8903 25.51 91.4803 25.51C92.1703 25.51 92.7953 25.685 93.3553 26.035C93.9153 26.385 94.3553 26.885 94.6753 27.535C95.0053 28.185 95.1703 28.94 95.1703 29.8C95.1703 30.66 95.0053 31.42 94.6753 32.08C94.3553 32.73 93.9153 33.235 93.3553 33.595C92.7953 33.945 92.1703 34.12 91.4803 34.12C90.9003 34.12 90.3853 34 89.9353 33.76C89.4953 33.52 89.1503 33.21 88.9003 32.83V37.99H86.3353V25.63H88.9003V26.815ZM92.5603 29.8C92.5603 29.16 92.3803 28.66 92.0203 28.3C91.6703 27.93 91.2353 27.745 90.7153 27.745C90.2053 27.745 89.7703 27.93 89.4103 28.3C89.0603 28.67 88.8853 29.175 88.8853 29.815C88.8853 30.455 89.0603 30.96 89.4103 31.33C89.7703 31.7 90.2053 31.885 90.7153 31.885C91.2253 31.885 91.6603 31.7 92.0203 31.33C92.3803 30.95 92.5603 30.44 92.5603 29.8Z" fill="#2E2E2E"/>
<path fill-rule="evenodd" clip-rule="evenodd" d="M136.999 27.2688L140.892 23.3757C142.041 22.2272 143.771 23.9724 142.622 25.1209L138.744 28.999L142.622 32.892C143.771 34.0405 142.041 35.7708 140.892 34.6223L136.999 30.7441L133.121 34.6223C131.972 35.7708 130.227 34.0405 131.376 32.892L135.269 28.999L131.376 25.1209C130.227 23.9724 131.972 22.2272 133.121 23.3757L136.999 27.2688Z" fill="#2E2E2E"/>
</svg>
