<svg width="34" height="34" viewBox="0 0 34 34" fill="none" xmlns="http://www.w3.org/2000/svg">
<path d="M26.269 24.0024C28.2929 21.4524 29.5071 18.2548 29.5071 14.7738C29.5476 6.6381 22.9095 0 14.7738 0C6.6381 0 0 6.6381 0 14.7738C0 22.9095 6.6381 29.5476 14.7738 29.5476C18.2548 29.5476 21.4524 28.3333 24.0024 26.3095L31.2476 33.5548C31.5714 33.8381 31.9762 34 32.381 34C32.7857 34 33.1905 33.8381 33.5143 33.5143C34.1619 32.8667 34.1619 31.8548 33.5143 31.2071L26.269 24.0024ZM14.7738 26.3095C8.41905 26.3095 3.2381 21.1286 3.2381 14.7738C3.2381 8.41905 8.41905 3.2381 14.7738 3.2381C21.1286 3.2381 26.3095 8.41905 26.3095 14.7738C26.3095 21.1286 21.1286 26.3095 14.7738 26.3095Z" fill="#FFE487"/>
<path d="M20.9263 11.7784C20.2787 9.14745 17.9311 7.20459 15.0978 7.20459C12.6692 7.20459 10.5644 8.66173 9.63348 10.7665C9.59301 10.7665 9.59301 10.7665 9.55253 10.7665C7.12396 10.7665 5.14062 12.7498 5.14062 15.1784C5.14062 17.607 7.32634 19.8332 9.71443 19.8332H19.8335C22.1406 19.8332 23.8811 18.0927 23.8811 15.7855C23.8811 13.8832 22.6263 12.3046 20.9263 11.7784ZM19.8335 16.5951H9.71443C9.10729 16.5951 8.37872 15.826 8.37872 15.1784C8.37872 14.5308 8.90491 14.0046 9.55253 14.0046C9.71443 14.0046 9.91682 14.0451 10.0787 14.126C10.5644 14.3689 11.0906 14.3284 11.5763 14.0855C12.0216 13.8427 12.3454 13.357 12.4263 12.8308C12.5882 11.4546 13.7621 10.4022 15.1382 10.4022C16.6359 10.4022 17.8906 11.6165 17.8906 13.1141V13.1546C17.8906 13.5998 18.093 14.0451 18.4168 14.3284C18.7406 14.6522 19.1859 14.7736 19.6311 14.7736C19.6716 14.7736 19.6716 14.7736 19.7121 14.7736C20.2382 14.7736 20.6835 15.2189 20.6835 15.7451C20.643 16.3117 20.3597 16.5951 19.8335 16.5951Z" fill="#FFE487"/>
</svg>
