<svg width="174" height="63" viewBox="0 0 174 63" fill="none" xmlns="http://www.w3.org/2000/svg">
<g filter="url(#filter0_i)">
<rect x="4" y="4" width="166" height="55" rx="10" fill="#FFF8F5"/>
</g>
<rect x="4" y="4" width="166" height="55" rx="10" stroke="#FFF1EB" stroke-width="8"/>
<path d="M28.43 38.8L27.08 36.985C26.68 37.065 26.29 37.105 25.91 37.105C24.92 37.105 24.01 36.875 23.18 36.415C22.36 35.955 21.705 35.315 21.215 34.495C20.735 33.665 20.495 32.735 20.495 31.705C20.495 30.675 20.735 29.75 21.215 28.93C21.705 28.11 22.36 27.47 23.18 27.01C24.01 26.55 24.92 26.32 25.91 26.32C26.9 26.32 27.805 26.55 28.625 27.01C29.455 27.47 30.105 28.11 30.575 28.93C31.055 29.75 31.295 30.675 31.295 31.705C31.295 32.605 31.11 33.43 30.74 34.18C30.38 34.92 29.875 35.535 29.225 36.025L31.535 38.8H28.43ZM23.12 31.705C23.12 32.635 23.37 33.38 23.87 33.94C24.38 34.49 25.06 34.765 25.91 34.765C26.75 34.765 27.42 34.485 27.92 33.925C28.43 33.365 28.685 32.625 28.685 31.705C28.685 30.775 28.43 30.035 27.92 29.485C27.42 28.925 26.75 28.645 25.91 28.645C25.06 28.645 24.38 28.92 23.87 29.47C23.37 30.02 23.12 30.765 23.12 31.705ZM41.0163 28.63V37H38.4513V35.86C38.1913 36.23 37.8363 36.53 37.3863 36.76C36.9463 36.98 36.4563 37.09 35.9163 37.09C35.2763 37.09 34.7113 36.95 34.2213 36.67C33.7313 36.38 33.3513 35.965 33.0813 35.425C32.8113 34.885 32.6763 34.25 32.6763 33.52V28.63H35.2263V33.175C35.2263 33.735 35.3713 34.17 35.6613 34.48C35.9513 34.79 36.3413 34.945 36.8313 34.945C37.3313 34.945 37.7263 34.79 38.0163 34.48C38.3063 34.17 38.4513 33.735 38.4513 33.175V28.63H41.0163ZM44.1487 27.76C43.6987 27.76 43.3287 27.63 43.0387 27.37C42.7587 27.1 42.6187 26.77 42.6187 26.38C42.6187 25.98 42.7587 25.65 43.0387 25.39C43.3287 25.12 43.6987 24.985 44.1487 24.985C44.5887 24.985 44.9487 25.12 45.2287 25.39C45.5187 25.65 45.6637 25.98 45.6637 26.38C45.6637 26.77 45.5187 27.1 45.2287 27.37C44.9487 27.63 44.5887 27.76 44.1487 27.76ZM45.4237 28.63V37H42.8587V28.63H45.4237ZM51.9475 34.825V37H50.6425C49.7125 37 48.9875 36.775 48.4675 36.325C47.9475 35.865 47.6875 35.12 47.6875 34.09V30.76H46.6675V28.63H47.6875V26.59H50.2525V28.63H51.9325V30.76H50.2525V34.12C50.2525 34.37 50.3125 34.55 50.4325 34.66C50.5525 34.77 50.7525 34.825 51.0325 34.825H51.9475ZM57.1863 37.12C56.3663 37.12 55.6263 36.945 54.9663 36.595C54.3163 36.245 53.8013 35.745 53.4213 35.095C53.0513 34.445 52.8663 33.685 52.8663 32.815C52.8663 31.955 53.0563 31.2 53.4363 30.55C53.8163 29.89 54.3363 29.385 54.9963 29.035C55.6563 28.685 56.3963 28.51 57.2163 28.51C58.0363 28.51 58.7763 28.685 59.4363 29.035C60.0963 29.385 60.6163 29.89 60.9963 30.55C61.3763 31.2 61.5663 31.955 61.5663 32.815C61.5663 33.675 61.3713 34.435 60.9813 35.095C60.6013 35.745 60.0763 36.245 59.4063 36.595C58.7463 36.945 58.0063 37.12 57.1863 37.12ZM57.1863 34.9C57.6763 34.9 58.0913 34.72 58.4313 34.36C58.7813 34 58.9563 33.485 58.9563 32.815C58.9563 32.145 58.7863 31.63 58.4463 31.27C58.1163 30.91 57.7063 30.73 57.2163 30.73C56.7163 30.73 56.3013 30.91 55.9713 31.27C55.6413 31.62 55.4763 32.135 55.4763 32.815C55.4763 33.485 55.6363 34 55.9563 34.36C56.2863 34.72 56.6963 34.9 57.1863 34.9Z" fill="#2E2E2E"/>
<path fill-rule="evenodd" clip-rule="evenodd" d="M146.999 30.2688L150.892 26.3757C152.041 25.2272 153.771 26.9724 152.622 28.1209L148.744 31.999L152.622 35.892C153.771 37.0405 152.041 38.7708 150.892 37.6223L146.999 33.7441L143.121 37.6223C141.972 38.7708 140.227 37.0405 141.376 35.892L145.269 31.999L141.376 28.1209C140.227 26.9724 141.972 25.2272 143.121 26.3757L146.999 30.2688Z" fill="#2E2E2E"/>
<defs>
<filter id="filter0_i" x="0" y="0" width="174" height="63" filterUnits="userSpaceOnUse" color-interpolation-filters="sRGB">
<feFlood flood-opacity="0" result="BackgroundImageFix"/>
<feBlend mode="normal" in="SourceGraphic" in2="BackgroundImageFix" result="shape"/>
<feColorMatrix in="SourceAlpha" type="matrix" values="0 0 0 0 0 0 0 0 0 0 0 0 0 0 0 0 0 0 127 0" result="hardAlpha"/>
<feOffset/>
<feGaussianBlur stdDeviation="2"/>
<feComposite in2="hardAlpha" operator="arithmetic" k2="-1" k3="1"/>
<feColorMatrix type="matrix" values="0 0 0 0 0.898039 0 0 0 0 0.898039 0 0 0 0 0.898039 0 0 0 0.49 0"/>
<feBlend mode="normal" in2="shape" result="effect1_innerShadow"/>
</filter>
</defs>
</svg>
