<svg width="43" height="43" viewBox="0 0 43 43" fill="none" xmlns="http://www.w3.org/2000/svg">
<path d="M33.2226 30.356C35.7821 27.131 37.3179 23.0869 37.3179 18.6845C37.369 8.39524 28.9738 0 18.6845 0C8.39524 0 0 8.39524 0 18.6845C0 28.9738 8.39524 37.369 18.6845 37.369C23.0869 37.369 27.131 35.8333 30.356 33.2738L39.519 42.4369C39.9286 42.7952 40.4405 43 40.9524 43C41.4643 43 41.9762 42.7952 42.3857 42.3857C43.2048 41.5667 43.2048 40.2869 42.3857 39.4679L33.2226 30.356ZM18.6845 33.2738C10.6476 33.2738 4.09524 26.7214 4.09524 18.6845C4.09524 10.6476 10.6476 4.09524 18.6845 4.09524C26.7214 4.09524 33.2738 10.6476 33.2738 18.6845C33.2738 26.7214 26.7214 33.2738 18.6845 33.2738Z" fill="#FFE9DF"/>
<path d="M26.4653 14.8966C25.6462 11.5692 22.6772 9.11205 19.0938 9.11205C16.0224 9.11205 13.3605 10.9549 12.1831 13.6168C12.1319 13.6168 12.1319 13.6168 12.0807 13.6168C9.00931 13.6168 6.50098 16.1251 6.50098 19.1966C6.50098 22.268 9.26526 25.0835 12.2855 25.0835H25.0831C28.001 25.0835 30.2022 22.8823 30.2022 19.9644C30.2022 17.5585 28.6153 15.562 26.4653 14.8966ZM25.0831 20.9882H12.2855C11.5176 20.9882 10.5962 20.0156 10.5962 19.1966C10.5962 18.3775 11.2617 17.712 12.0807 17.712C12.2855 17.712 12.5415 17.7632 12.7462 17.8656C13.3605 18.1728 14.026 18.1216 14.6403 17.8144C15.2034 17.5073 15.6129 16.893 15.7153 16.2275C15.92 14.487 17.4045 13.1561 19.145 13.1561C21.0391 13.1561 22.626 14.6918 22.626 16.5859V16.637C22.626 17.2001 22.8819 17.7632 23.2915 18.1216C23.701 18.5311 24.2641 18.6847 24.8272 18.6847C24.8784 18.6847 24.8784 18.6847 24.9296 18.6847C25.595 18.6847 26.1581 19.2478 26.1581 19.9132C26.1069 20.6299 25.7486 20.9882 25.0831 20.9882Z" fill="#FFE9DF"/>
</svg>
