<svg width="174" height="63" viewBox="0 0 174 63" fill="none" xmlns="http://www.w3.org/2000/svg">
<g filter="url(#filter0_i)">
<rect x="4" y="4" width="166" height="55" rx="10" fill="#FFF1EB"/>
</g>
<rect x="4" y="4" width="166" height="55" rx="10" stroke="#FFF1EB" stroke-width="8"/>
<path d="M32.855 26.47V37H30.29V30.685L27.935 37H25.865L23.495 30.67V37H20.93V26.47H23.96L26.915 33.76L29.84 26.47H32.855ZM38.5095 37.12C37.6895 37.12 36.9495 36.945 36.2895 36.595C35.6395 36.245 35.1245 35.745 34.7445 35.095C34.3745 34.445 34.1895 33.685 34.1895 32.815C34.1895 31.955 34.3795 31.2 34.7595 30.55C35.1395 29.89 35.6595 29.385 36.3195 29.035C36.9795 28.685 37.7195 28.51 38.5395 28.51C39.3595 28.51 40.0995 28.685 40.7595 29.035C41.4195 29.385 41.9395 29.89 42.3195 30.55C42.6995 31.2 42.8895 31.955 42.8895 32.815C42.8895 33.675 42.6945 34.435 42.3045 35.095C41.9245 35.745 41.3995 36.245 40.7295 36.595C40.0695 36.945 39.3295 37.12 38.5095 37.12ZM38.5095 34.9C38.9995 34.9 39.4145 34.72 39.7545 34.36C40.1045 34 40.2795 33.485 40.2795 32.815C40.2795 32.145 40.1095 31.63 39.7695 31.27C39.4395 30.91 39.0295 30.73 38.5395 30.73C38.0395 30.73 37.6245 30.91 37.2945 31.27C36.9645 31.62 36.7995 32.135 36.7995 32.815C36.7995 33.485 36.9595 34 37.2795 34.36C37.6095 34.72 38.0195 34.9 38.5095 34.9ZM49.3503 28.54C50.3303 28.54 51.1103 28.86 51.6903 29.5C52.2803 30.13 52.5753 31 52.5753 32.11V37H50.0253V32.455C50.0253 31.895 49.8803 31.46 49.5903 31.15C49.3003 30.84 48.9103 30.685 48.4203 30.685C47.9303 30.685 47.5403 30.84 47.2503 31.15C46.9603 31.46 46.8153 31.895 46.8153 32.455V37H44.2503V28.63H46.8153V29.74C47.0753 29.37 47.4253 29.08 47.8653 28.87C48.3053 28.65 48.8003 28.54 49.3503 28.54ZM59.0227 34.825V37H57.7177C56.7877 37 56.0627 36.775 55.5427 36.325C55.0227 35.865 54.7627 35.12 54.7627 34.09V30.76H53.7427V28.63H54.7627V26.59H57.3277V28.63H59.0077V30.76H57.3277V34.12C57.3277 34.37 57.3877 34.55 57.5077 34.66C57.6277 34.77 57.8277 34.825 58.1077 34.825H59.0227ZM63.0165 30.025C63.3165 29.565 63.6915 29.205 64.1415 28.945C64.5915 28.675 65.0915 28.54 65.6415 28.54V31.255H64.9365C64.2965 31.255 63.8165 31.395 63.4965 31.675C63.1765 31.945 63.0165 32.425 63.0165 33.115V37H60.4515V28.63H63.0165V30.025ZM74.7575 32.68C74.7575 32.92 74.7425 33.17 74.7125 33.43H68.9075C68.9475 33.95 69.1125 34.35 69.4025 34.63C69.7025 34.9 70.0675 35.035 70.4975 35.035C71.1375 35.035 71.5825 34.765 71.8325 34.225H74.5625C74.4225 34.775 74.1675 35.27 73.7975 35.71C73.4375 36.15 72.9825 36.495 72.4325 36.745C71.8825 36.995 71.2675 37.12 70.5875 37.12C69.7675 37.12 69.0375 36.945 68.3975 36.595C67.7575 36.245 67.2575 35.745 66.8975 35.095C66.5375 34.445 66.3575 33.685 66.3575 32.815C66.3575 31.945 66.5325 31.185 66.8825 30.535C67.2425 29.885 67.7425 29.385 68.3825 29.035C69.0225 28.685 69.7575 28.51 70.5875 28.51C71.3975 28.51 72.1175 28.68 72.7475 29.02C73.3775 29.36 73.8675 29.845 74.2175 30.475C74.5775 31.105 74.7575 31.84 74.7575 32.68ZM72.1325 32.005C72.1325 31.565 71.9825 31.215 71.6825 30.955C71.3825 30.695 71.0075 30.565 70.5575 30.565C70.1275 30.565 69.7625 30.69 69.4625 30.94C69.1725 31.19 68.9925 31.545 68.9225 32.005H72.1325ZM75.6007 32.8C75.6007 31.94 75.7607 31.185 76.0807 30.535C76.4107 29.885 76.8557 29.385 77.4157 29.035C77.9757 28.685 78.6007 28.51 79.2907 28.51C79.8807 28.51 80.3957 28.63 80.8357 28.87C81.2857 29.11 81.6307 29.425 81.8707 29.815V28.63H84.4357V37H81.8707V35.815C81.6207 36.205 81.2707 36.52 80.8207 36.76C80.3807 37 79.8657 37.12 79.2757 37.12C78.5957 37.12 77.9757 36.945 77.4157 36.595C76.8557 36.235 76.4107 35.73 76.0807 35.08C75.7607 34.42 75.6007 33.66 75.6007 32.8ZM81.8707 32.815C81.8707 32.175 81.6907 31.67 81.3307 31.3C80.9807 30.93 80.5507 30.745 80.0407 30.745C79.5307 30.745 79.0957 30.93 78.7357 31.3C78.3857 31.66 78.2107 32.16 78.2107 32.8C78.2107 33.44 78.3857 33.95 78.7357 34.33C79.0957 34.7 79.5307 34.885 80.0407 34.885C80.5507 34.885 80.9807 34.7 81.3307 34.33C81.6907 33.96 81.8707 33.455 81.8707 32.815ZM88.8563 25.9V37H86.2913V25.9H88.8563Z" fill="black"/>
<path fill-rule="evenodd" clip-rule="evenodd" d="M146.999 30.2688L150.892 26.3757C152.041 25.2272 153.771 26.9724 152.622 28.1209L148.744 31.999L152.622 35.892C153.771 37.0405 152.041 38.7708 150.892 37.6223L146.999 33.7441L143.121 37.6223C141.972 38.7708 140.227 37.0405 141.376 35.892L145.269 31.999L141.376 28.1209C140.227 26.9724 141.972 25.2272 143.121 26.3757L146.999 30.2688Z" fill="#2E2E2E"/>
<defs>
<filter id="filter0_i" x="0" y="0" width="174" height="63" filterUnits="userSpaceOnUse" color-interpolation-filters="sRGB">
<feFlood flood-opacity="0" result="BackgroundImageFix"/>
<feBlend mode="normal" in="SourceGraphic" in2="BackgroundImageFix" result="shape"/>
<feColorMatrix in="SourceAlpha" type="matrix" values="0 0 0 0 0 0 0 0 0 0 0 0 0 0 0 0 0 0 127 0" result="hardAlpha"/>
<feOffset/>
<feGaussianBlur stdDeviation="2"/>
<feComposite in2="hardAlpha" operator="arithmetic" k2="-1" k3="1"/>
<feColorMatrix type="matrix" values="0 0 0 0 0.898039 0 0 0 0 0.898039 0 0 0 0 0.898039 0 0 0 0.49 0"/>
<feBlend mode="normal" in2="shape" result="effect1_innerShadow"/>
</filter>
</defs>
</svg>
