<svg width="43" height="43" viewBox="0 0 43 43" fill="none" xmlns="http://www.w3.org/2000/svg">
<path d="M33.2226 30.356C35.7821 27.131 37.3179 23.0869 37.3179 18.6845C37.369 8.39524 28.9738 0 18.6845 0C8.39524 0 0 8.39524 0 18.6845C0 28.9738 8.39524 37.369 18.6845 37.369C23.0869 37.369 27.131 35.8333 30.356 33.2738L39.519 42.4369C39.9286 42.7952 40.4405 43 40.9524 43C41.4643 43 41.9762 42.7952 42.3857 42.3857C43.2048 41.5667 43.2048 40.2869 42.3857 39.4679L33.2226 30.356ZM18.6845 33.2738C10.6476 33.2738 4.09524 26.7214 4.09524 18.6845C4.09524 10.6476 10.6476 4.09524 18.6845 4.09524C26.7214 4.09524 33.2738 10.6476 33.2738 18.6845C33.2738 26.7214 26.7214 33.2738 18.6845 33.2738Z" fill="#FFE9DF"/>
<path d="M26.4643 14.8966C25.6452 11.5692 22.6762 9.11206 19.0929 9.11206C16.0214 9.11206 13.3595 10.9549 12.1821 13.6168C12.131 13.6168 12.131 13.6168 12.0798 13.6168C9.00833 13.6168 6.5 16.1252 6.5 19.1966C6.5 22.268 9.26429 25.0835 12.2845 25.0835H25.0821C28 25.0835 30.2012 22.8823 30.2012 19.9644C30.2012 17.5585 28.6143 15.5621 26.4643 14.8966ZM25.0821 20.9883H12.2845C11.5167 20.9883 10.5952 20.0156 10.5952 19.1966C10.5952 18.3775 11.2607 17.7121 12.0798 17.7121C12.2845 17.7121 12.5405 17.7633 12.7452 17.8656C13.3595 18.1728 14.025 18.1216 14.6393 17.8144C15.2024 17.5073 15.6119 16.893 15.7143 16.2275C15.919 14.4871 17.4036 13.1561 19.144 13.1561C21.0381 13.1561 22.625 14.6918 22.625 16.5859V16.6371C22.625 17.2002 22.881 17.7633 23.2905 18.1216C23.7 18.5311 24.2631 18.6847 24.8262 18.6847C24.8774 18.6847 24.8774 18.6847 24.9286 18.6847C25.5941 18.6847 26.1571 19.2478 26.1571 19.9133C26.106 20.6299 25.7476 20.9883 25.0821 20.9883Z" fill="#FFE9DF"/>
</svg>
