<svg width="166" height="55" viewBox="0 0 166 55" fill="none" xmlns="http://www.w3.org/2000/svg">
<g filter="url(#filter0_i)">
<rect width="166" height="55" rx="10" fill="#FFE9DF"/>
</g>
<path d="M24.955 25.86C24.955 26.47 24.815 27.03 24.535 27.54C24.255 28.04 23.825 28.445 23.245 28.755C22.665 29.065 21.945 29.22 21.085 29.22H19.495V33H16.93V22.47H21.085C21.925 22.47 22.635 22.615 23.215 22.905C23.795 23.195 24.23 23.595 24.52 24.105C24.81 24.615 24.955 25.2 24.955 25.86ZM20.89 27.18C21.38 27.18 21.745 27.065 21.985 26.835C22.225 26.605 22.345 26.28 22.345 25.86C22.345 25.44 22.225 25.115 21.985 24.885C21.745 24.655 21.38 24.54 20.89 24.54H19.495V27.18H20.89ZM25.7804 28.8C25.7804 27.94 25.9404 27.185 26.2604 26.535C26.5904 25.885 27.0354 25.385 27.5954 25.035C28.1554 24.685 28.7804 24.51 29.4704 24.51C30.0604 24.51 30.5754 24.63 31.0154 24.87C31.4654 25.11 31.8104 25.425 32.0504 25.815V24.63H34.6154V33H32.0504V31.815C31.8004 32.205 31.4504 32.52 31.0004 32.76C30.5604 33 30.0454 33.12 29.4554 33.12C28.7754 33.12 28.1554 32.945 27.5954 32.595C27.0354 32.235 26.5904 31.73 26.2604 31.08C25.9404 30.42 25.7804 29.66 25.7804 28.8ZM32.0504 28.815C32.0504 28.175 31.8704 27.67 31.5104 27.3C31.1604 26.93 30.7304 26.745 30.2204 26.745C29.7104 26.745 29.2754 26.93 28.9154 27.3C28.5654 27.66 28.3904 28.16 28.3904 28.8C28.3904 29.44 28.5654 29.95 28.9154 30.33C29.2754 30.7 29.7104 30.885 30.2204 30.885C30.7304 30.885 31.1604 30.7 31.5104 30.33C31.8704 29.96 32.0504 29.455 32.0504 28.815ZM39.036 26.025C39.336 25.565 39.711 25.205 40.161 24.945C40.611 24.675 41.111 24.54 41.661 24.54V27.255H40.956C40.316 27.255 39.836 27.395 39.516 27.675C39.196 27.945 39.036 28.425 39.036 29.115V33H36.471V24.63H39.036V26.025ZM44.177 23.76C43.727 23.76 43.357 23.63 43.067 23.37C42.787 23.1 42.647 22.77 42.647 22.38C42.647 21.98 42.787 21.65 43.067 21.39C43.357 21.12 43.727 20.985 44.177 20.985C44.617 20.985 44.977 21.12 45.257 21.39C45.547 21.65 45.692 21.98 45.692 22.38C45.692 22.77 45.547 23.1 45.257 23.37C44.977 23.63 44.617 23.76 44.177 23.76ZM45.452 24.63V33H42.887V24.63H45.452ZM50.7159 33.12C49.9859 33.12 49.3359 32.995 48.7659 32.745C48.1959 32.495 47.7459 32.155 47.4159 31.725C47.0859 31.285 46.9009 30.795 46.8609 30.255H49.3959C49.4259 30.545 49.5609 30.78 49.8009 30.96C50.0409 31.14 50.3359 31.23 50.6859 31.23C51.0059 31.23 51.2509 31.17 51.4209 31.05C51.6009 30.92 51.6909 30.755 51.6909 30.555C51.6909 30.315 51.5659 30.14 51.3159 30.03C51.0659 29.91 50.6609 29.78 50.1009 29.64C49.5009 29.5 49.0009 29.355 48.6009 29.205C48.2009 29.045 47.8559 28.8 47.5659 28.47C47.2759 28.13 47.1309 27.675 47.1309 27.105C47.1309 26.625 47.2609 26.19 47.5209 25.8C47.7909 25.4 48.1809 25.085 48.6909 24.855C49.2109 24.625 49.8259 24.51 50.5359 24.51C51.5859 24.51 52.4109 24.77 53.0109 25.29C53.6209 25.81 53.9709 26.5 54.0609 27.36H51.6909C51.6509 27.07 51.5209 26.84 51.3009 26.67C51.0909 26.5 50.8109 26.415 50.4609 26.415C50.1609 26.415 49.9309 26.475 49.7709 26.595C49.6109 26.705 49.5309 26.86 49.5309 27.06C49.5309 27.3 49.6559 27.48 49.9059 27.6C50.1659 27.72 50.5659 27.84 51.1059 27.96C51.7259 28.12 52.2309 28.28 52.6209 28.44C53.0109 28.59 53.3509 28.84 53.6409 29.19C53.9409 29.53 54.0959 29.99 54.1059 30.57C54.1059 31.06 53.9659 31.5 53.6859 31.89C53.4159 32.27 53.0209 32.57 52.5009 32.79C51.9909 33.01 51.3959 33.12 50.7159 33.12Z" fill="#2E2E2E"/>
<path fill-rule="evenodd" clip-rule="evenodd" d="M142.999 26.2688L146.892 22.3757C148.041 21.2272 149.771 22.9724 148.622 24.1209L144.744 27.999L148.622 31.892C149.771 33.0405 148.041 34.7708 146.892 33.6223L142.999 29.7441L139.121 33.6223C137.972 34.7708 136.227 33.0405 137.376 31.892L141.269 27.999L137.376 24.1209C136.227 22.9724 137.972 21.2272 139.121 22.3757L142.999 26.2688Z" fill="#2E2E2E"/>
<defs>
<filter id="filter0_i" x="0" y="0" width="166" height="55" filterUnits="userSpaceOnUse" color-interpolation-filters="sRGB">
<feFlood flood-opacity="0" result="BackgroundImageFix"/>
<feBlend mode="normal" in="SourceGraphic" in2="BackgroundImageFix" result="shape"/>
<feColorMatrix in="SourceAlpha" type="matrix" values="0 0 0 0 0 0 0 0 0 0 0 0 0 0 0 0 0 0 127 0" result="hardAlpha"/>
<feOffset/>
<feGaussianBlur stdDeviation="2"/>
<feComposite in2="hardAlpha" operator="arithmetic" k2="-1" k3="1"/>
<feColorMatrix type="matrix" values="0 0 0 0 0.898039 0 0 0 0 0.898039 0 0 0 0 0.898039 0 0 0 0.49 0"/>
<feBlend mode="normal" in2="shape" result="effect1_innerShadow"/>
</filter>
</defs>
</svg>
