<svg width="174" height="63" viewBox="0 0 174 63" fill="none" xmlns="http://www.w3.org/2000/svg">
<g filter="url(#filter0_i)">
<rect x="4" y="4" width="166" height="55" rx="10" fill="#FFF8F5"/>
</g>
<rect x="4" y="4" width="166" height="55" rx="10" stroke="#FFF1EB" stroke-width="8"/>
<path d="M30.35 37H27.785L23.495 30.505V37H20.93V26.47H23.495L27.785 32.995V26.47H30.35V37ZM31.6993 32.8C31.6993 31.94 31.8593 31.185 32.1793 30.535C32.5093 29.885 32.9543 29.385 33.5143 29.035C34.0743 28.685 34.6993 28.51 35.3893 28.51C35.9793 28.51 36.4943 28.63 36.9343 28.87C37.3843 29.11 37.7293 29.425 37.9693 29.815V28.63H40.5343V37H37.9693V35.815C37.7193 36.205 37.3693 36.52 36.9193 36.76C36.4793 37 35.9643 37.12 35.3743 37.12C34.6943 37.12 34.0743 36.945 33.5143 36.595C32.9543 36.235 32.5093 35.73 32.1793 35.08C31.8593 34.42 31.6993 33.66 31.6993 32.8ZM37.9693 32.815C37.9693 32.175 37.7893 31.67 37.4293 31.3C37.0793 30.93 36.6493 30.745 36.1393 30.745C35.6293 30.745 35.1943 30.93 34.8343 31.3C34.4843 31.66 34.3093 32.16 34.3093 32.8C34.3093 33.44 34.4843 33.95 34.8343 34.33C35.1943 34.7 35.6293 34.885 36.1393 34.885C36.6493 34.885 37.0793 34.7 37.4293 34.33C37.7893 33.96 37.9693 33.455 37.9693 32.815ZM45.795 37.12C45.065 37.12 44.415 36.995 43.845 36.745C43.275 36.495 42.825 36.155 42.495 35.725C42.165 35.285 41.98 34.795 41.94 34.255H44.475C44.505 34.545 44.64 34.78 44.88 34.96C45.12 35.14 45.415 35.23 45.765 35.23C46.085 35.23 46.33 35.17 46.5 35.05C46.68 34.92 46.77 34.755 46.77 34.555C46.77 34.315 46.645 34.14 46.395 34.03C46.145 33.91 45.74 33.78 45.18 33.64C44.58 33.5 44.08 33.355 43.68 33.205C43.28 33.045 42.935 32.8 42.645 32.47C42.355 32.13 42.21 31.675 42.21 31.105C42.21 30.625 42.34 30.19 42.6 29.8C42.87 29.4 43.26 29.085 43.77 28.855C44.29 28.625 44.905 28.51 45.615 28.51C46.665 28.51 47.49 28.77 48.09 29.29C48.7 29.81 49.05 30.5 49.14 31.36H46.77C46.73 31.07 46.6 30.84 46.38 30.67C46.17 30.5 45.89 30.415 45.54 30.415C45.24 30.415 45.01 30.475 44.85 30.595C44.69 30.705 44.61 30.86 44.61 31.06C44.61 31.3 44.735 31.48 44.985 31.6C45.245 31.72 45.645 31.84 46.185 31.96C46.805 32.12 47.31 32.28 47.7 32.44C48.09 32.59 48.43 32.84 48.72 33.19C49.02 33.53 49.175 33.99 49.185 34.57C49.185 35.06 49.045 35.5 48.765 35.89C48.495 36.27 48.1 36.57 47.58 36.79C47.07 37.01 46.475 37.12 45.795 37.12ZM55.8992 28.54C56.8592 28.54 57.6292 28.86 58.2092 29.5C58.7892 30.13 59.0792 31 59.0792 32.11V37H56.5292V32.455C56.5292 31.895 56.3842 31.46 56.0942 31.15C55.8042 30.84 55.4142 30.685 54.9242 30.685C54.4342 30.685 54.0442 30.84 53.7542 31.15C53.4642 31.46 53.3192 31.895 53.3192 32.455V37H50.7542V25.9H53.3192V29.755C53.5792 29.385 53.9342 29.09 54.3842 28.87C54.8342 28.65 55.3392 28.54 55.8992 28.54ZM64.6266 34.6L66.4416 28.63H69.1716L66.2016 37H63.0366L60.0666 28.63H62.8116L64.6266 34.6ZM71.5413 27.76C71.0913 27.76 70.7213 27.63 70.4313 27.37C70.1513 27.1 70.0113 26.77 70.0113 26.38C70.0113 25.98 70.1513 25.65 70.4313 25.39C70.7213 25.12 71.0913 24.985 71.5413 24.985C71.9813 24.985 72.3413 25.12 72.6213 25.39C72.9113 25.65 73.0563 25.98 73.0563 26.38C73.0563 26.77 72.9113 27.1 72.6213 27.37C72.3413 27.63 71.9813 27.76 71.5413 27.76ZM72.8163 28.63V37H70.2513V28.63H72.8163ZM77.2401 25.9V37H74.6751V25.9H77.2401ZM81.6639 25.9V37H79.0989V25.9H81.6639ZM91.4128 32.68C91.4128 32.92 91.3978 33.17 91.3678 33.43H85.5628C85.6028 33.95 85.7678 34.35 86.0578 34.63C86.3578 34.9 86.7228 35.035 87.1528 35.035C87.7928 35.035 88.2378 34.765 88.4878 34.225H91.2178C91.0778 34.775 90.8228 35.27 90.4528 35.71C90.0928 36.15 89.6378 36.495 89.0878 36.745C88.5378 36.995 87.9228 37.12 87.2428 37.12C86.4228 37.12 85.6928 36.945 85.0528 36.595C84.4128 36.245 83.9128 35.745 83.5528 35.095C83.1928 34.445 83.0128 33.685 83.0128 32.815C83.0128 31.945 83.1878 31.185 83.5378 30.535C83.8978 29.885 84.3978 29.385 85.0378 29.035C85.6778 28.685 86.4128 28.51 87.2428 28.51C88.0528 28.51 88.7728 28.68 89.4028 29.02C90.0328 29.36 90.5228 29.845 90.8728 30.475C91.2328 31.105 91.4128 31.84 91.4128 32.68ZM88.7878 32.005C88.7878 31.565 88.6378 31.215 88.3378 30.955C88.0378 30.695 87.6628 30.565 87.2128 30.565C86.7828 30.565 86.4178 30.69 86.1178 30.94C85.8278 31.19 85.6478 31.545 85.5778 32.005H88.7878Z" fill="#2E2E2E"/>
<path fill-rule="evenodd" clip-rule="evenodd" d="M146.999 30.2688L150.892 26.3757C152.041 25.2272 153.771 26.9724 152.622 28.1209L148.744 31.999L152.622 35.892C153.771 37.0405 152.041 38.7708 150.892 37.6223L146.999 33.7441L143.121 37.6223C141.972 38.7708 140.227 37.0405 141.376 35.892L145.269 31.999L141.376 28.1209C140.227 26.9724 141.972 25.2272 143.121 26.3757L146.999 30.2688Z" fill="#2E2E2E"/>
<defs>
<filter id="filter0_i" x="0" y="0" width="174" height="63" filterUnits="userSpaceOnUse" color-interpolation-filters="sRGB">
<feFlood flood-opacity="0" result="BackgroundImageFix"/>
<feBlend mode="normal" in="SourceGraphic" in2="BackgroundImageFix" result="shape"/>
<feColorMatrix in="SourceAlpha" type="matrix" values="0 0 0 0 0 0 0 0 0 0 0 0 0 0 0 0 0 0 127 0" result="hardAlpha"/>
<feOffset/>
<feGaussianBlur stdDeviation="2"/>
<feComposite in2="hardAlpha" operator="arithmetic" k2="-1" k3="1"/>
<feColorMatrix type="matrix" values="0 0 0 0 0.898039 0 0 0 0 0.898039 0 0 0 0 0.898039 0 0 0 0.49 0"/>
<feBlend mode="normal" in2="shape" result="effect1_innerShadow"/>
</filter>
</defs>
</svg>
