<svg width="30" height="30" viewBox="0 0 30 30" fill="none" xmlns="http://www.w3.org/2000/svg">
<path d="M29.5358 0.408808C29.142 0.0147837 28.5513 -0.103423 27.9606 0.0935885L0.945146 10.9292C0.393811 11.1263 0 11.7173 0 12.3083C0 12.9388 0.433192 13.4904 0.984527 13.648L12.405 17.5882L16.3431 29.0149C16.5401 29.5666 17.0126 29.9212 17.6033 30H17.6821C18.2728 30 18.8635 29.606 19.0604 29.0543L29.8902 1.9849C30.1265 1.43327 29.969 0.842234 29.5358 0.408808ZM18.1153 13.9238C18.391 13.648 18.5485 13.2934 18.5485 12.8994C18.5485 12.5053 18.391 12.1507 18.1153 11.8749C17.564 11.3233 16.6188 11.3233 16.0675 11.8749L13.1927 14.7513L5.71026 12.1901L25.9521 4.07323L17.8002 24.2867L15.2405 16.7608L18.1153 13.9238Z" fill="black"/>
</svg>
