<svg width="163" height="58" viewBox="0 0 163 58" fill="none" xmlns="http://www.w3.org/2000/svg">
<rect x="4" y="4" width="155" height="50" rx="15" fill="#FFF8F5" stroke="#FFF1EB" stroke-width="8"/>
<path d="M32.855 23.47V34H30.29V27.685L27.935 34H25.865L23.495 27.67V34H20.93V23.47H23.96L26.915 30.76L29.84 23.47H32.855ZM38.5095 34.12C37.6895 34.12 36.9495 33.945 36.2895 33.595C35.6395 33.245 35.1245 32.745 34.7445 32.095C34.3745 31.445 34.1895 30.685 34.1895 29.815C34.1895 28.955 34.3795 28.2 34.7595 27.55C35.1395 26.89 35.6595 26.385 36.3195 26.035C36.9795 25.685 37.7195 25.51 38.5395 25.51C39.3595 25.51 40.0995 25.685 40.7595 26.035C41.4195 26.385 41.9395 26.89 42.3195 27.55C42.6995 28.2 42.8895 28.955 42.8895 29.815C42.8895 30.675 42.6945 31.435 42.3045 32.095C41.9245 32.745 41.3995 33.245 40.7295 33.595C40.0695 33.945 39.3295 34.12 38.5095 34.12ZM38.5095 31.9C38.9995 31.9 39.4145 31.72 39.7545 31.36C40.1045 31 40.2795 30.485 40.2795 29.815C40.2795 29.145 40.1095 28.63 39.7695 28.27C39.4395 27.91 39.0295 27.73 38.5395 27.73C38.0395 27.73 37.6245 27.91 37.2945 28.27C36.9645 28.62 36.7995 29.135 36.7995 29.815C36.7995 30.485 36.9595 31 37.2795 31.36C37.6095 31.72 38.0195 31.9 38.5095 31.9ZM49.3503 25.54C50.3303 25.54 51.1103 25.86 51.6903 26.5C52.2803 27.13 52.5753 28 52.5753 29.11V34H50.0253V29.455C50.0253 28.895 49.8803 28.46 49.5903 28.15C49.3003 27.84 48.9103 27.685 48.4203 27.685C47.9303 27.685 47.5403 27.84 47.2503 28.15C46.9603 28.46 46.8153 28.895 46.8153 29.455V34H44.2503V25.63H46.8153V26.74C47.0753 26.37 47.4253 26.08 47.8653 25.87C48.3053 25.65 48.8003 25.54 49.3503 25.54ZM59.0227 31.825V34H57.7177C56.7877 34 56.0627 33.775 55.5427 33.325C55.0227 32.865 54.7627 32.12 54.7627 31.09V27.76H53.7427V25.63H54.7627V23.59H57.3277V25.63H59.0077V27.76H57.3277V31.12C57.3277 31.37 57.3877 31.55 57.5077 31.66C57.6277 31.77 57.8277 31.825 58.1077 31.825H59.0227ZM63.0165 27.025C63.3165 26.565 63.6915 26.205 64.1415 25.945C64.5915 25.675 65.0915 25.54 65.6415 25.54V28.255H64.9365C64.2965 28.255 63.8165 28.395 63.4965 28.675C63.1765 28.945 63.0165 29.425 63.0165 30.115V34H60.4515V25.63H63.0165V27.025ZM74.7575 29.68C74.7575 29.92 74.7425 30.17 74.7125 30.43H68.9075C68.9475 30.95 69.1125 31.35 69.4025 31.63C69.7025 31.9 70.0675 32.035 70.4975 32.035C71.1375 32.035 71.5825 31.765 71.8325 31.225H74.5625C74.4225 31.775 74.1675 32.27 73.7975 32.71C73.4375 33.15 72.9825 33.495 72.4325 33.745C71.8825 33.995 71.2675 34.12 70.5875 34.12C69.7675 34.12 69.0375 33.945 68.3975 33.595C67.7575 33.245 67.2575 32.745 66.8975 32.095C66.5375 31.445 66.3575 30.685 66.3575 29.815C66.3575 28.945 66.5325 28.185 66.8825 27.535C67.2425 26.885 67.7425 26.385 68.3825 26.035C69.0225 25.685 69.7575 25.51 70.5875 25.51C71.3975 25.51 72.1175 25.68 72.7475 26.02C73.3775 26.36 73.8675 26.845 74.2175 27.475C74.5775 28.105 74.7575 28.84 74.7575 29.68ZM72.1325 29.005C72.1325 28.565 71.9825 28.215 71.6825 27.955C71.3825 27.695 71.0075 27.565 70.5575 27.565C70.1275 27.565 69.7625 27.69 69.4625 27.94C69.1725 28.19 68.9925 28.545 68.9225 29.005H72.1325ZM75.6007 29.8C75.6007 28.94 75.7607 28.185 76.0807 27.535C76.4107 26.885 76.8557 26.385 77.4157 26.035C77.9757 25.685 78.6007 25.51 79.2907 25.51C79.8807 25.51 80.3957 25.63 80.8357 25.87C81.2857 26.11 81.6307 26.425 81.8707 26.815V25.63H84.4357V34H81.8707V32.815C81.6207 33.205 81.2707 33.52 80.8207 33.76C80.3807 34 79.8657 34.12 79.2757 34.12C78.5957 34.12 77.9757 33.945 77.4157 33.595C76.8557 33.235 76.4107 32.73 76.0807 32.08C75.7607 31.42 75.6007 30.66 75.6007 29.8ZM81.8707 29.815C81.8707 29.175 81.6907 28.67 81.3307 28.3C80.9807 27.93 80.5507 27.745 80.0407 27.745C79.5307 27.745 79.0957 27.93 78.7357 28.3C78.3857 28.66 78.2107 29.16 78.2107 29.8C78.2107 30.44 78.3857 30.95 78.7357 31.33C79.0957 31.7 79.5307 31.885 80.0407 31.885C80.5507 31.885 80.9807 31.7 81.3307 31.33C81.6907 30.96 81.8707 30.455 81.8707 29.815ZM88.8563 22.9V34H86.2913V22.9H88.8563Z" fill="#2E2E2E"/>
<path fill-rule="evenodd" clip-rule="evenodd" d="M136.999 27.2688L140.892 23.3757C142.041 22.2272 143.771 23.9724 142.622 25.1209L138.744 28.999L142.622 32.892C143.771 34.0405 142.041 35.7708 140.892 34.6223L136.999 30.7441L133.121 34.6223C131.972 35.7708 130.227 34.0405 131.376 32.892L135.269 28.999L131.376 25.1209C130.227 23.9724 131.972 22.2272 133.121 23.3757L136.999 27.2688Z" fill="#2E2E2E"/>
</svg>
