<svg width="166" height="55" viewBox="0 0 166 55" fill="none" xmlns="http://www.w3.org/2000/svg">
<g filter="url(#filter0_i)">
<rect width="166" height="55" rx="10" fill="#FFD9B6"/>
</g>
<path d="M16.495 27.72C16.495 26.68 16.72 25.755 17.17 24.945C17.62 24.125 18.245 23.49 19.045 23.04C19.855 22.58 20.77 22.35 21.79 22.35C23.04 22.35 24.11 22.68 25 23.34C25.89 24 26.485 24.9 26.785 26.04H23.965C23.755 25.6 23.455 25.265 23.065 25.035C22.685 24.805 22.25 24.69 21.76 24.69C20.97 24.69 20.33 24.965 19.84 25.515C19.35 26.065 19.105 26.8 19.105 27.72C19.105 28.64 19.35 29.375 19.84 29.925C20.33 30.475 20.97 30.75 21.76 30.75C22.25 30.75 22.685 30.635 23.065 30.405C23.455 30.175 23.755 29.84 23.965 29.4H26.785C26.485 30.54 25.89 31.44 25 32.1C24.11 32.75 23.04 33.075 21.79 33.075C20.77 33.075 19.855 32.85 19.045 32.4C18.245 31.94 17.62 31.305 17.17 30.495C16.72 29.685 16.495 28.76 16.495 27.72ZM27.8458 28.8C27.8458 27.94 28.0058 27.185 28.3258 26.535C28.6558 25.885 29.1008 25.385 29.6608 25.035C30.2208 24.685 30.8458 24.51 31.5358 24.51C32.1258 24.51 32.6408 24.63 33.0808 24.87C33.5308 25.11 33.8758 25.425 34.1158 25.815V24.63H36.6808V33H34.1158V31.815C33.8658 32.205 33.5158 32.52 33.0658 32.76C32.6258 33 32.1108 33.12 31.5208 33.12C30.8408 33.12 30.2208 32.945 29.6608 32.595C29.1008 32.235 28.6558 31.73 28.3258 31.08C28.0058 30.42 27.8458 29.66 27.8458 28.8ZM34.1158 28.815C34.1158 28.175 33.9358 27.67 33.5758 27.3C33.2258 26.93 32.7958 26.745 32.2858 26.745C31.7758 26.745 31.3408 26.93 30.9808 27.3C30.6308 27.66 30.4558 28.16 30.4558 28.8C30.4558 29.44 30.6308 29.95 30.9808 30.33C31.3408 30.7 31.7758 30.885 32.2858 30.885C32.7958 30.885 33.2258 30.7 33.5758 30.33C33.9358 29.96 34.1158 29.455 34.1158 28.815ZM43.2014 30.825V33H41.8964C40.9664 33 40.2414 32.775 39.7214 32.325C39.2014 31.865 38.9414 31.12 38.9414 30.09V26.76H37.9214V24.63H38.9414V22.59H41.5064V24.63H43.1864V26.76H41.5064V30.12C41.5064 30.37 41.5664 30.55 41.6864 30.66C41.8064 30.77 42.0064 30.825 42.2864 30.825H43.2014ZM44.1202 28.8C44.1202 27.94 44.2802 27.185 44.6002 26.535C44.9302 25.885 45.3752 25.385 45.9352 25.035C46.4952 24.685 47.1202 24.51 47.8102 24.51C48.4002 24.51 48.9152 24.63 49.3552 24.87C49.8052 25.11 50.1502 25.425 50.3902 25.815V24.63H52.9552V33H50.3902V31.815C50.1402 32.205 49.7902 32.52 49.3402 32.76C48.9002 33 48.3852 33.12 47.7952 33.12C47.1152 33.12 46.4952 32.945 45.9352 32.595C45.3752 32.235 44.9302 31.73 44.6002 31.08C44.2802 30.42 44.1202 29.66 44.1202 28.8ZM50.3902 28.815C50.3902 28.175 50.2102 27.67 49.8502 27.3C49.5002 26.93 49.0702 26.745 48.5602 26.745C48.0502 26.745 47.6152 26.93 47.2552 27.3C46.9052 27.66 46.7302 28.16 46.7302 28.8C46.7302 29.44 46.9052 29.95 47.2552 30.33C47.6152 30.7 48.0502 30.885 48.5602 30.885C49.0702 30.885 49.5002 30.7 49.8502 30.33C50.2102 29.96 50.3902 29.455 50.3902 28.815ZM59.9109 24.54C60.8909 24.54 61.6709 24.86 62.2509 25.5C62.8409 26.13 63.1359 27 63.1359 28.11V33H60.5859V28.455C60.5859 27.895 60.4409 27.46 60.1509 27.15C59.8609 26.84 59.4709 26.685 58.9809 26.685C58.4909 26.685 58.1009 26.84 57.8109 27.15C57.5209 27.46 57.3759 27.895 57.3759 28.455V33H54.8109V24.63H57.3759V25.74C57.6359 25.37 57.9859 25.08 58.4259 24.87C58.8659 24.65 59.3609 24.54 59.9109 24.54ZM67.3183 30.885H70.9483V33H64.4533V30.96L67.9333 26.745H64.4833V24.63H70.8733V26.67L67.3183 30.885ZM71.8497 28.8C71.8497 27.94 72.0097 27.185 72.3297 26.535C72.6597 25.885 73.1047 25.385 73.6647 25.035C74.2247 24.685 74.8497 24.51 75.5397 24.51C76.1297 24.51 76.6447 24.63 77.0847 24.87C77.5347 25.11 77.8797 25.425 78.1197 25.815V24.63H80.6847V33H78.1197V31.815C77.8697 32.205 77.5197 32.52 77.0697 32.76C76.6297 33 76.1147 33.12 75.5247 33.12C74.8447 33.12 74.2247 32.945 73.6647 32.595C73.1047 32.235 72.6597 31.73 72.3297 31.08C72.0097 30.42 71.8497 29.66 71.8497 28.8ZM78.1197 28.815C78.1197 28.175 77.9397 27.67 77.5797 27.3C77.2297 26.93 76.7997 26.745 76.2897 26.745C75.7797 26.745 75.3447 26.93 74.9847 27.3C74.6347 27.66 74.4597 28.16 74.4597 28.8C74.4597 29.44 74.6347 29.95 74.9847 30.33C75.3447 30.7 75.7797 30.885 76.2897 30.885C76.7997 30.885 77.2297 30.7 77.5797 30.33C77.9397 29.96 78.1197 29.455 78.1197 28.815ZM85.1054 26.025C85.4054 25.565 85.7804 25.205 86.2304 24.945C86.6804 24.675 87.1804 24.54 87.7304 24.54V27.255H87.0254C86.3854 27.255 85.9054 27.395 85.5854 27.675C85.2654 27.945 85.1054 28.425 85.1054 29.115V33H82.5404V24.63H85.1054V26.025ZM92.7664 33.12C91.9464 33.12 91.2064 32.945 90.5464 32.595C89.8964 32.245 89.3814 31.745 89.0014 31.095C88.6314 30.445 88.4464 29.685 88.4464 28.815C88.4464 27.955 88.6364 27.2 89.0164 26.55C89.3964 25.89 89.9164 25.385 90.5764 25.035C91.2364 24.685 91.9764 24.51 92.7964 24.51C93.6164 24.51 94.3564 24.685 95.0164 25.035C95.6764 25.385 96.1964 25.89 96.5764 26.55C96.9564 27.2 97.1464 27.955 97.1464 28.815C97.1464 29.675 96.9514 30.435 96.5614 31.095C96.1814 31.745 95.6564 32.245 94.9864 32.595C94.3264 32.945 93.5864 33.12 92.7664 33.12ZM92.7664 30.9C93.2564 30.9 93.6714 30.72 94.0114 30.36C94.3614 30 94.5364 29.485 94.5364 28.815C94.5364 28.145 94.3664 27.63 94.0264 27.27C93.6964 26.91 93.2864 26.73 92.7964 26.73C92.2964 26.73 91.8814 26.91 91.5514 27.27C91.2214 27.62 91.0564 28.135 91.0564 28.815C91.0564 29.485 91.2164 30 91.5364 30.36C91.8664 30.72 92.2764 30.9 92.7664 30.9Z" fill="#2E2E2E"/>
<path fill-rule="evenodd" clip-rule="evenodd" d="M142.999 26.2688L146.892 22.3757C148.041 21.2272 149.771 22.9724 148.622 24.1209L144.744 27.999L148.622 31.892C149.771 33.0405 148.041 34.7708 146.892 33.6223L142.999 29.7441L139.121 33.6223C137.972 34.7708 136.227 33.0405 137.376 31.892L141.269 27.999L137.376 24.1209C136.227 22.9724 137.972 21.2272 139.121 22.3757L142.999 26.2688Z" fill="#2E2E2E"/>
<defs>
<filter id="filter0_i" x="0" y="0" width="166" height="55" filterUnits="userSpaceOnUse" color-interpolation-filters="sRGB">
<feFlood flood-opacity="0" result="BackgroundImageFix"/>
<feBlend mode="normal" in="SourceGraphic" in2="BackgroundImageFix" result="shape"/>
<feColorMatrix in="SourceAlpha" type="matrix" values="0 0 0 0 0 0 0 0 0 0 0 0 0 0 0 0 0 0 127 0" result="hardAlpha"/>
<feOffset/>
<feGaussianBlur stdDeviation="2"/>
<feComposite in2="hardAlpha" operator="arithmetic" k2="-1" k3="1"/>
<feColorMatrix type="matrix" values="0 0 0 0 0.898039 0 0 0 0 0.898039 0 0 0 0 0.898039 0 0 0 0.49 0"/>
<feBlend mode="normal" in2="shape" result="effect1_innerShadow"/>
</filter>
</defs>
</svg>
