<svg width="166" height="55" viewBox="0 0 166 55" fill="none" xmlns="http://www.w3.org/2000/svg">
<g filter="url(#filter0_i)">
<rect width="166" height="55" rx="10" fill="#B5EAEA"/>
</g>
<path d="M24.43 34.8L23.08 32.985C22.68 33.065 22.29 33.105 21.91 33.105C20.92 33.105 20.01 32.875 19.18 32.415C18.36 31.955 17.705 31.315 17.215 30.495C16.735 29.665 16.495 28.735 16.495 27.705C16.495 26.675 16.735 25.75 17.215 24.93C17.705 24.11 18.36 23.47 19.18 23.01C20.01 22.55 20.92 22.32 21.91 22.32C22.9 22.32 23.805 22.55 24.625 23.01C25.455 23.47 26.105 24.11 26.575 24.93C27.055 25.75 27.295 26.675 27.295 27.705C27.295 28.605 27.11 29.43 26.74 30.18C26.38 30.92 25.875 31.535 25.225 32.025L27.535 34.8H24.43ZM19.12 27.705C19.12 28.635 19.37 29.38 19.87 29.94C20.38 30.49 21.06 30.765 21.91 30.765C22.75 30.765 23.42 30.485 23.92 29.925C24.43 29.365 24.685 28.625 24.685 27.705C24.685 26.775 24.43 26.035 23.92 25.485C23.42 24.925 22.75 24.645 21.91 24.645C21.06 24.645 20.38 24.92 19.87 25.47C19.37 26.02 19.12 26.765 19.12 27.705ZM37.0163 24.63V33H34.4513V31.86C34.1913 32.23 33.8363 32.53 33.3863 32.76C32.9463 32.98 32.4563 33.09 31.9163 33.09C31.2763 33.09 30.7113 32.95 30.2213 32.67C29.7313 32.38 29.3513 31.965 29.0813 31.425C28.8113 30.885 28.6763 30.25 28.6763 29.52V24.63H31.2263V29.175C31.2263 29.735 31.3713 30.17 31.6613 30.48C31.9513 30.79 32.3413 30.945 32.8313 30.945C33.3313 30.945 33.7263 30.79 34.0163 30.48C34.3063 30.17 34.4513 29.735 34.4513 29.175V24.63H37.0163ZM40.1487 23.76C39.6987 23.76 39.3287 23.63 39.0387 23.37C38.7587 23.1 38.6187 22.77 38.6187 22.38C38.6187 21.98 38.7587 21.65 39.0387 21.39C39.3287 21.12 39.6987 20.985 40.1487 20.985C40.5887 20.985 40.9487 21.12 41.2287 21.39C41.5187 21.65 41.6637 21.98 41.6637 22.38C41.6637 22.77 41.5187 23.1 41.2287 23.37C40.9487 23.63 40.5887 23.76 40.1487 23.76ZM41.4237 24.63V33H38.8587V24.63H41.4237ZM47.9475 30.825V33H46.6425C45.7125 33 44.9875 32.775 44.4675 32.325C43.9475 31.865 43.6875 31.12 43.6875 30.09V26.76H42.6675V24.63H43.6875V22.59H46.2525V24.63H47.9325V26.76H46.2525V30.12C46.2525 30.37 46.3125 30.55 46.4325 30.66C46.5525 30.77 46.7525 30.825 47.0325 30.825H47.9475ZM53.1863 33.12C52.3663 33.12 51.6263 32.945 50.9663 32.595C50.3163 32.245 49.8013 31.745 49.4213 31.095C49.0513 30.445 48.8663 29.685 48.8663 28.815C48.8663 27.955 49.0563 27.2 49.4363 26.55C49.8163 25.89 50.3363 25.385 50.9963 25.035C51.6563 24.685 52.3963 24.51 53.2163 24.51C54.0363 24.51 54.7763 24.685 55.4363 25.035C56.0963 25.385 56.6163 25.89 56.9963 26.55C57.3763 27.2 57.5663 27.955 57.5663 28.815C57.5663 29.675 57.3713 30.435 56.9813 31.095C56.6013 31.745 56.0763 32.245 55.4063 32.595C54.7463 32.945 54.0063 33.12 53.1863 33.12ZM53.1863 30.9C53.6763 30.9 54.0913 30.72 54.4313 30.36C54.7813 30 54.9563 29.485 54.9563 28.815C54.9563 28.145 54.7863 27.63 54.4463 27.27C54.1163 26.91 53.7063 26.73 53.2163 26.73C52.7163 26.73 52.3013 26.91 51.9713 27.27C51.6413 27.62 51.4763 28.135 51.4763 28.815C51.4763 29.485 51.6363 30 51.9563 30.36C52.2863 30.72 52.6963 30.9 53.1863 30.9Z" fill="#2E2E2E"/>
<path fill-rule="evenodd" clip-rule="evenodd" d="M142.999 26.2688L146.892 22.3757C148.041 21.2272 149.771 22.9724 148.622 24.1209L144.744 27.999L148.622 31.892C149.771 33.0405 148.041 34.7708 146.892 33.6223L142.999 29.7441L139.121 33.6223C137.972 34.7708 136.227 33.0405 137.376 31.892L141.269 27.999L137.376 24.1209C136.227 22.9724 137.972 21.2272 139.121 22.3757L142.999 26.2688Z" fill="#2E2E2E"/>
<defs>
<filter id="filter0_i" x="0" y="0" width="166" height="55" filterUnits="userSpaceOnUse" color-interpolation-filters="sRGB">
<feFlood flood-opacity="0" result="BackgroundImageFix"/>
<feBlend mode="normal" in="SourceGraphic" in2="BackgroundImageFix" result="shape"/>
<feColorMatrix in="SourceAlpha" type="matrix" values="0 0 0 0 0 0 0 0 0 0 0 0 0 0 0 0 0 0 127 0" result="hardAlpha"/>
<feOffset/>
<feGaussianBlur stdDeviation="2"/>
<feComposite in2="hardAlpha" operator="arithmetic" k2="-1" k3="1"/>
<feColorMatrix type="matrix" values="0 0 0 0 0.898039 0 0 0 0 0.898039 0 0 0 0 0.898039 0 0 0 0.49 0"/>
<feBlend mode="normal" in2="shape" result="effect1_innerShadow"/>
</filter>
</defs>
</svg>
