<svg width="166" height="55" viewBox="0 0 166 55" fill="none" xmlns="http://www.w3.org/2000/svg">
<g filter="url(#filter0_i)">
<rect width="166" height="55" rx="10" fill="#FFE487"/>
</g>
<path d="M24.955 25.86C24.955 26.47 24.815 27.03 24.535 27.54C24.255 28.04 23.825 28.445 23.245 28.755C22.665 29.065 21.945 29.22 21.085 29.22H19.495V33H16.93V22.47H21.085C21.925 22.47 22.635 22.615 23.215 22.905C23.795 23.195 24.23 23.595 24.52 24.105C24.81 24.615 24.955 25.2 24.955 25.86ZM20.89 27.18C21.38 27.18 21.745 27.065 21.985 26.835C22.225 26.605 22.345 26.28 22.345 25.86C22.345 25.44 22.225 25.115 21.985 24.885C21.745 24.655 21.38 24.54 20.89 24.54H19.495V27.18H20.89ZM25.7804 28.8C25.7804 27.94 25.9404 27.185 26.2604 26.535C26.5904 25.885 27.0354 25.385 27.5954 25.035C28.1554 24.685 28.7804 24.51 29.4704 24.51C30.0604 24.51 30.5754 24.63 31.0154 24.87C31.4654 25.11 31.8104 25.425 32.0504 25.815V24.63H34.6154V33H32.0504V31.815C31.8004 32.205 31.4504 32.52 31.0004 32.76C30.5604 33 30.0454 33.12 29.4554 33.12C28.7754 33.12 28.1554 32.945 27.5954 32.595C27.0354 32.235 26.5904 31.73 26.2604 31.08C25.9404 30.42 25.7804 29.66 25.7804 28.8ZM32.0504 28.815C32.0504 28.175 31.8704 27.67 31.5104 27.3C31.1604 26.93 30.7304 26.745 30.2204 26.745C29.7104 26.745 29.2754 26.93 28.9154 27.3C28.5654 27.66 28.3904 28.16 28.3904 28.8C28.3904 29.44 28.5654 29.95 28.9154 30.33C29.2754 30.7 29.7104 30.885 30.2204 30.885C30.7304 30.885 31.1604 30.7 31.5104 30.33C31.8704 29.96 32.0504 29.455 32.0504 28.815ZM39.036 21.9V33H36.471V21.9H39.036ZM48.7848 28.68C48.7848 28.92 48.7698 29.17 48.7398 29.43H42.9348C42.9748 29.95 43.1398 30.35 43.4298 30.63C43.7298 30.9 44.0948 31.035 44.5248 31.035C45.1648 31.035 45.6098 30.765 45.8598 30.225H48.5898C48.4498 30.775 48.1948 31.27 47.8248 31.71C47.4648 32.15 47.0098 32.495 46.4598 32.745C45.9098 32.995 45.2948 33.12 44.6148 33.12C43.7948 33.12 43.0648 32.945 42.4248 32.595C41.7848 32.245 41.2848 31.745 40.9248 31.095C40.5648 30.445 40.3848 29.685 40.3848 28.815C40.3848 27.945 40.5598 27.185 40.9098 26.535C41.2698 25.885 41.7698 25.385 42.4098 25.035C43.0498 24.685 43.7848 24.51 44.6148 24.51C45.4248 24.51 46.1448 24.68 46.7748 25.02C47.4048 25.36 47.8948 25.845 48.2448 26.475C48.6048 27.105 48.7848 27.84 48.7848 28.68ZM46.1598 28.005C46.1598 27.565 46.0098 27.215 45.7098 26.955C45.4098 26.695 45.0348 26.565 44.5848 26.565C44.1548 26.565 43.7898 26.69 43.4898 26.94C43.1998 27.19 43.0198 27.545 42.9498 28.005H46.1598ZM52.703 26.025C53.003 25.565 53.378 25.205 53.828 24.945C54.278 24.675 54.778 24.54 55.328 24.54V27.255H54.623C53.983 27.255 53.503 27.395 53.183 27.675C52.863 27.945 52.703 28.425 52.703 29.115V33H50.138V24.63H52.703V26.025ZM67.234 24.54C68.274 24.54 69.099 24.855 69.709 25.485C70.329 26.115 70.639 26.99 70.639 28.11V33H68.089V28.455C68.089 27.915 67.944 27.5 67.654 27.21C67.374 26.91 66.984 26.76 66.484 26.76C65.984 26.76 65.589 26.91 65.299 27.21C65.019 27.5 64.879 27.915 64.879 28.455V33H62.329V28.455C62.329 27.915 62.184 27.5 61.894 27.21C61.614 26.91 61.224 26.76 60.724 26.76C60.224 26.76 59.829 26.91 59.539 27.21C59.259 27.5 59.119 27.915 59.119 28.455V33H56.554V24.63H59.119V25.68C59.379 25.33 59.719 25.055 60.139 24.855C60.559 24.645 61.034 24.54 61.564 24.54C62.194 24.54 62.754 24.675 63.244 24.945C63.744 25.215 64.134 25.6 64.414 26.1C64.704 25.64 65.099 25.265 65.599 24.975C66.099 24.685 66.644 24.54 67.234 24.54ZM76.2429 33.12C75.4229 33.12 74.6829 32.945 74.0229 32.595C73.3729 32.245 72.8579 31.745 72.4779 31.095C72.1079 30.445 71.9229 29.685 71.9229 28.815C71.9229 27.955 72.1129 27.2 72.4929 26.55C72.8729 25.89 73.3929 25.385 74.0529 25.035C74.7129 24.685 75.4529 24.51 76.2729 24.51C77.0929 24.51 77.8329 24.685 78.4929 25.035C79.1529 25.385 79.6729 25.89 80.0529 26.55C80.4329 27.2 80.6229 27.955 80.6229 28.815C80.6229 29.675 80.4279 30.435 80.0379 31.095C79.6579 31.745 79.1329 32.245 78.4629 32.595C77.8029 32.945 77.0629 33.12 76.2429 33.12ZM76.2429 30.9C76.7329 30.9 77.1479 30.72 77.4879 30.36C77.8379 30 78.0129 29.485 78.0129 28.815C78.0129 28.145 77.8429 27.63 77.5029 27.27C77.1729 26.91 76.7629 26.73 76.2729 26.73C75.7729 26.73 75.3579 26.91 75.0279 27.27C74.6979 27.62 74.5329 28.135 74.5329 28.815C74.5329 29.485 74.6929 30 75.0129 30.36C75.3429 30.72 75.7529 30.9 76.2429 30.9Z" fill="#2E2E2E"/>
<path fill-rule="evenodd" clip-rule="evenodd" d="M142.999 26.2688L146.892 22.3757C148.041 21.2272 149.771 22.9724 148.622 24.1209L144.744 27.999L148.622 31.892C149.771 33.0405 148.041 34.7708 146.892 33.6223L142.999 29.7441L139.121 33.6223C137.972 34.7708 136.227 33.0405 137.376 31.892L141.269 27.999L137.376 24.1209C136.227 22.9724 137.972 21.2272 139.121 22.3757L142.999 26.2688Z" fill="#2E2E2E"/>
<defs>
<filter id="filter0_i" x="0" y="0" width="166" height="55" filterUnits="userSpaceOnUse" color-interpolation-filters="sRGB">
<feFlood flood-opacity="0" result="BackgroundImageFix"/>
<feBlend mode="normal" in="SourceGraphic" in2="BackgroundImageFix" result="shape"/>
<feColorMatrix in="SourceAlpha" type="matrix" values="0 0 0 0 0 0 0 0 0 0 0 0 0 0 0 0 0 0 127 0" result="hardAlpha"/>
<feOffset/>
<feGaussianBlur stdDeviation="2"/>
<feComposite in2="hardAlpha" operator="arithmetic" k2="-1" k3="1"/>
<feColorMatrix type="matrix" values="0 0 0 0 0.898039 0 0 0 0 0.898039 0 0 0 0 0.898039 0 0 0 0.49 0"/>
<feBlend mode="normal" in2="shape" result="effect1_innerShadow"/>
</filter>
</defs>
</svg>
