<svg height='100px' width='100px'  fill="#000000" xmlns="http://www.w3.org/2000/svg" xmlns:xlink="http://www.w3.org/1999/xlink" version="1.1" x="0px" y="0px" viewBox="0 0 100 100" style="enable-background:new 0 0 100 100;" xml:space="preserve"><g><path d="M73.9,68.3c5-6.3,8-14.2,8-22.8C82,25.4,65.6,9,45.5,9S9,25.4,9,45.5S25.4,82,45.5,82c8.6,0,16.5-3,22.8-8l17.9,17.9   C87,92.6,88,93,89,93s2-0.4,2.8-1.2c1.6-1.6,1.6-4.1,0-5.7L73.9,68.3z M45.5,74C29.8,74,17,61.2,17,45.5C17,29.8,29.8,17,45.5,17   C61.2,17,74,29.8,74,45.5C74,61.2,61.2,74,45.5,74z"></path><path d="M60.7,38.1c-1.6-6.5-7.4-11.3-14.4-11.3c-6,0-11.2,3.6-13.5,8.8c-0.1,0-0.1,0-0.2,0c-6,0-10.9,4.9-10.9,10.9   c0,6,5.4,11.5,11.3,11.5h25c5.7,0,10-4.3,10-10C68,43.3,64.9,39.4,60.7,38.1z M58,50H33c-1.5,0-3.3-1.9-3.3-3.5   c0-1.6,1.3-2.9,2.9-2.9c0.4,0,0.9,0.1,1.3,0.3c1.2,0.6,2.5,0.5,3.7-0.1c1.1-0.6,1.9-1.8,2.1-3.1c0.4-3.4,3.3-6,6.7-6   c3.7,0,6.8,3,6.8,6.7c0,0,0,0.1,0,0.1c0,1.1,0.5,2.2,1.3,2.9c0.8,0.8,1.9,1.1,3,1.1c0.1,0,0.1,0,0.2,0c1.3,0,2.4,1.1,2.4,2.4   C60,49.3,59.3,50,58,50z"></path></g></svg>