<svg width="34" height="34" viewBox="0 0 34 34" fill="none" xmlns="http://www.w3.org/2000/svg">
<path d="M33.4739 0.463315C33.0276 0.0167549 32.3581 -0.117213 31.6886 0.106067L1.07117 12.3865C0.446319 12.6098 0 13.2796 0 13.9494C0 14.6639 0.490951 15.2891 1.1158 15.4677L14.059 19.9333L18.5222 32.8836C18.7454 33.5088 19.281 33.9107 19.9505 34H20.0397C20.7092 34 21.3787 33.5534 21.6018 32.9283L33.8756 2.24956C34.1434 1.62437 33.9649 0.954532 33.4739 0.463315ZM20.5307 15.7803C20.8431 15.4677 21.0216 15.0658 21.0216 14.6193C21.0216 14.1727 20.8431 13.7708 20.5307 13.4582C19.9058 12.833 18.8347 12.833 18.2098 13.4582L14.9517 16.7181L6.47162 13.8155L29.4124 4.61633L20.1736 27.5249L17.2725 18.9956L20.5307 15.7803Z" fill="#BFF2F9"/>
</svg>
