<svg width="37" height="29" viewBox="0 0 37 29" fill="none" xmlns="http://www.w3.org/2000/svg">
<path d="M34.7893 5.27081C28.9887 5.27081 23.7702 8.90542 21.7043 14.2432C21.4121 14.1957 21.1135 14.1677 20.8084 14.1677C19.3118 14.1677 17.8624 14.7904 16.8316 15.8764C16.3713 16.3614 16.3913 17.1277 16.8762 17.5881C17.3611 18.0484 18.1273 18.028 18.588 17.5435C19.1721 16.9281 19.9606 16.5889 20.8084 16.5889C22.062 16.5889 23.1481 17.3339 23.6194 18.4371C23.1547 18.8258 22.7666 19.3145 22.4866 19.884C22.1917 20.484 22.4388 21.2098 23.0388 21.5048C23.2106 21.5893 23.3927 21.6293 23.5723 21.6293C24.0192 21.6293 24.449 21.3808 24.6597 20.9526C24.9977 20.2648 25.6836 19.8375 26.4494 19.8375C27.1839 19.8375 27.8571 20.24 28.2058 20.888C28.5232 21.4769 29.2573 21.6971 29.8458 21.3801C30.4345 21.0631 30.655 20.3288 30.338 19.7401C29.5661 18.3066 28.0761 17.4163 26.4494 17.4163C26.2412 17.4163 26.036 17.4313 25.8344 17.459C25.4273 16.5166 24.771 15.7216 23.9491 15.1495C25.6488 10.7145 29.977 7.69205 34.7893 7.69205C35.4579 7.69205 35.9999 7.15005 35.9999 6.48141C35.9999 5.81277 35.4579 5.27081 34.7893 5.27081Z" fill="#2E2E2E" stroke="#2E2E2E" stroke-width="0.4"/>
<path d="M36 10.7528C36 10.0842 35.458 9.54218 34.7894 9.54218C31.4776 9.54218 28.4203 11.2012 26.6109 13.9801C26.2462 14.5405 26.4047 15.2906 26.9648 15.6554C27.1688 15.7882 27.398 15.8516 27.6244 15.8516C27.6724 15.8516 27.7191 15.84 27.7667 15.8343L27.7677 15.8435C27.9696 15.8195 28.1764 15.8074 28.3827 15.8074C31.2477 15.8074 33.5787 18.1384 33.5787 21.0034C33.5787 23.8685 31.2478 26.1994 28.3827 26.1994H6.90884C4.98582 26.1994 3.42128 24.6349 3.42128 22.7119C3.42128 21.0337 4.61834 19.593 6.26758 19.2867C6.80125 19.1874 7.20376 18.7451 7.25215 18.2043C7.59294 14.4031 10.7299 11.5364 14.5493 11.5364C16.0504 11.5364 17.4919 11.9873 18.718 12.84L18.719 12.8383C18.7706 12.8742 18.8225 12.9096 18.8807 12.9378C19.0508 13.0204 19.2308 13.0596 19.4081 13.0596C19.8573 13.0596 20.289 12.8083 20.4982 12.3768C23.1776 6.85293 28.6536 3.42124 34.7894 3.42124C35.458 3.42124 36 2.87924 36 2.2106C36 1.54196 35.458 1 34.7894 1C28.2645 1 22.1784 4.55619 18.9357 10.1609C17.583 9.47606 16.0902 9.11507 14.5492 9.11507C9.75676 9.11507 5.77158 12.5082 4.95324 17.1375C2.61708 17.954 1 20.1724 1 22.7119C1 25.97 3.65068 28.6207 6.90884 28.6207H28.3827C32.5829 28.6207 36 25.2036 36 21.0034C36 17.4172 33.5059 14.4099 30.1633 13.6049C31.4526 12.5549 33.0757 11.9634 34.7894 11.9634C35.458 11.9634 36 11.4214 36 10.7528Z" fill="#2E2E2E" stroke="#2E2E2E" stroke-width="0.4"/>
</svg>
