<svg width="174" height="63" viewBox="0 0 174 63" fill="none" xmlns="http://www.w3.org/2000/svg">
<g filter="url(#filter0_i)">
<rect x="4" y="4" width="166" height="55" rx="10" fill="#FFF8F5"/>
</g>
<rect x="4" y="4" width="166" height="55" rx="10" stroke="#FFF1EB" stroke-width="8"/>
<path d="M24.74 37.105C23.97 37.105 23.28 36.98 22.67 36.73C22.06 36.48 21.57 36.11 21.2 35.62C20.84 35.13 20.65 34.54 20.63 33.85H23.36C23.4 34.24 23.535 34.54 23.765 34.75C23.995 34.95 24.295 35.05 24.665 35.05C25.045 35.05 25.345 34.965 25.565 34.795C25.785 34.615 25.895 34.37 25.895 34.06C25.895 33.8 25.805 33.585 25.625 33.415C25.455 33.245 25.24 33.105 24.98 32.995C24.73 32.885 24.37 32.76 23.9 32.62C23.22 32.41 22.665 32.2 22.235 31.99C21.805 31.78 21.435 31.47 21.125 31.06C20.815 30.65 20.66 30.115 20.66 29.455C20.66 28.475 21.015 27.71 21.725 27.16C22.435 26.6 23.36 26.32 24.5 26.32C25.66 26.32 26.595 26.6 27.305 27.16C28.015 27.71 28.395 28.48 28.445 29.47H25.67C25.65 29.13 25.525 28.865 25.295 28.675C25.065 28.475 24.77 28.375 24.41 28.375C24.1 28.375 23.85 28.46 23.66 28.63C23.47 28.79 23.375 29.025 23.375 29.335C23.375 29.675 23.535 29.94 23.855 30.13C24.175 30.32 24.675 30.525 25.355 30.745C26.035 30.975 26.585 31.195 27.005 31.405C27.435 31.615 27.805 31.92 28.115 32.32C28.425 32.72 28.58 33.235 28.58 33.865C28.58 34.465 28.425 35.01 28.115 35.5C27.815 35.99 27.375 36.38 26.795 36.67C26.215 36.96 25.53 37.105 24.74 37.105ZM31.4485 27.76C30.9985 27.76 30.6285 27.63 30.3385 27.37C30.0585 27.1 29.9185 26.77 29.9185 26.38C29.9185 25.98 30.0585 25.65 30.3385 25.39C30.6285 25.12 30.9985 24.985 31.4485 24.985C31.8885 24.985 32.2485 25.12 32.5285 25.39C32.8185 25.65 32.9635 25.98 32.9635 26.38C32.9635 26.77 32.8185 27.1 32.5285 27.37C32.2485 27.63 31.8885 27.76 31.4485 27.76ZM32.7235 28.63V37H30.1585V28.63H32.7235ZM42.4723 32.68C42.4723 32.92 42.4573 33.17 42.4273 33.43H36.6223C36.6623 33.95 36.8273 34.35 37.1173 34.63C37.4173 34.9 37.7823 35.035 38.2123 35.035C38.8523 35.035 39.2973 34.765 39.5473 34.225H42.2773C42.1373 34.775 41.8823 35.27 41.5123 35.71C41.1523 36.15 40.6973 36.495 40.1473 36.745C39.5973 36.995 38.9823 37.12 38.3023 37.12C37.4823 37.12 36.7523 36.945 36.1123 36.595C35.4723 36.245 34.9723 35.745 34.6123 35.095C34.2523 34.445 34.0723 33.685 34.0723 32.815C34.0723 31.945 34.2473 31.185 34.5973 30.535C34.9573 29.885 35.4573 29.385 36.0973 29.035C36.7373 28.685 37.4723 28.51 38.3023 28.51C39.1123 28.51 39.8323 28.68 40.4623 29.02C41.0923 29.36 41.5823 29.845 41.9323 30.475C42.2923 31.105 42.4723 31.84 42.4723 32.68ZM39.8473 32.005C39.8473 31.565 39.6973 31.215 39.3973 30.955C39.0973 30.695 38.7223 30.565 38.2723 30.565C37.8423 30.565 37.4773 30.69 37.1773 30.94C36.8873 31.19 36.7073 31.545 36.6373 32.005H39.8473ZM54.5055 28.54C55.5455 28.54 56.3705 28.855 56.9805 29.485C57.6005 30.115 57.9105 30.99 57.9105 32.11V37H55.3605V32.455C55.3605 31.915 55.2155 31.5 54.9255 31.21C54.6455 30.91 54.2555 30.76 53.7555 30.76C53.2555 30.76 52.8605 30.91 52.5705 31.21C52.2905 31.5 52.1505 31.915 52.1505 32.455V37H49.6005V32.455C49.6005 31.915 49.4555 31.5 49.1655 31.21C48.8855 30.91 48.4955 30.76 47.9955 30.76C47.4955 30.76 47.1005 30.91 46.8105 31.21C46.5305 31.5 46.3905 31.915 46.3905 32.455V37H43.8255V28.63H46.3905V29.68C46.6505 29.33 46.9905 29.055 47.4105 28.855C47.8305 28.645 48.3055 28.54 48.8355 28.54C49.4655 28.54 50.0255 28.675 50.5155 28.945C51.0155 29.215 51.4055 29.6 51.6855 30.1C51.9755 29.64 52.3705 29.265 52.8705 28.975C53.3705 28.685 53.9155 28.54 54.5055 28.54ZM68.2531 37L66.0631 33.025H65.4481V37H62.8831V26.47H67.1881C68.0181 26.47 68.7231 26.615 69.3031 26.905C69.8931 27.195 70.3331 27.595 70.6231 28.105C70.9131 28.605 71.0581 29.165 71.0581 29.785C71.0581 30.485 70.8581 31.11 70.4581 31.66C70.0681 32.21 69.4881 32.6 68.7181 32.83L71.1481 37H68.2531ZM65.4481 31.21H67.0381C67.5081 31.21 67.8581 31.095 68.0881 30.865C68.3281 30.635 68.4481 30.31 68.4481 29.89C68.4481 29.49 68.3281 29.175 68.0881 28.945C67.8581 28.715 67.5081 28.6 67.0381 28.6H65.4481V31.21ZM80.5583 32.68C80.5583 32.92 80.5433 33.17 80.5133 33.43H74.7083C74.7483 33.95 74.9133 34.35 75.2033 34.63C75.5033 34.9 75.8683 35.035 76.2983 35.035C76.9383 35.035 77.3833 34.765 77.6333 34.225H80.3633C80.2233 34.775 79.9683 35.27 79.5983 35.71C79.2383 36.15 78.7833 36.495 78.2333 36.745C77.6833 36.995 77.0683 37.12 76.3883 37.12C75.5683 37.12 74.8383 36.945 74.1983 36.595C73.5583 36.245 73.0583 35.745 72.6983 35.095C72.3383 34.445 72.1583 33.685 72.1583 32.815C72.1583 31.945 72.3333 31.185 72.6833 30.535C73.0433 29.885 73.5433 29.385 74.1833 29.035C74.8233 28.685 75.5583 28.51 76.3883 28.51C77.1983 28.51 77.9183 28.68 78.5483 29.02C79.1783 29.36 79.6683 29.845 80.0183 30.475C80.3783 31.105 80.5583 31.84 80.5583 32.68ZM77.9333 32.005C77.9333 31.565 77.7833 31.215 77.4833 30.955C77.1833 30.695 76.8083 30.565 76.3583 30.565C75.9283 30.565 75.5633 30.69 75.2633 30.94C74.9733 31.19 74.7933 31.545 74.7233 32.005H77.9333ZM81.4014 32.8C81.4014 31.94 81.5614 31.185 81.8814 30.535C82.2114 29.885 82.6564 29.385 83.2164 29.035C83.7764 28.685 84.4014 28.51 85.0914 28.51C85.6814 28.51 86.1964 28.63 86.6364 28.87C87.0864 29.11 87.4314 29.425 87.6714 29.815V28.63H90.2364V37H87.6714V35.815C87.4214 36.205 87.0714 36.52 86.6214 36.76C86.1814 37 85.6664 37.12 85.0764 37.12C84.3964 37.12 83.7764 36.945 83.2164 36.595C82.6564 36.235 82.2114 35.73 81.8814 35.08C81.5614 34.42 81.4014 33.66 81.4014 32.8ZM87.6714 32.815C87.6714 32.175 87.4914 31.67 87.1314 31.3C86.7814 30.93 86.3514 30.745 85.8414 30.745C85.3314 30.745 84.8964 30.93 84.5364 31.3C84.1864 31.66 84.0114 32.16 84.0114 32.8C84.0114 33.44 84.1864 33.95 84.5364 34.33C84.8964 34.7 85.3314 34.885 85.8414 34.885C86.3514 34.885 86.7814 34.7 87.1314 34.33C87.4914 33.96 87.6714 33.455 87.6714 32.815ZM94.6571 29.815C94.9071 29.425 95.2521 29.11 95.6921 28.87C96.1321 28.63 96.6471 28.51 97.2371 28.51C97.9271 28.51 98.5521 28.685 99.1121 29.035C99.6721 29.385 100.112 29.885 100.432 30.535C100.762 31.185 100.927 31.94 100.927 32.8C100.927 33.66 100.762 34.42 100.432 35.08C100.112 35.73 99.6721 36.235 99.1121 36.595C98.5521 36.945 97.9271 37.12 97.2371 37.12C96.6571 37.12 96.1421 37 95.6921 36.76C95.2521 36.52 94.9071 36.21 94.6571 35.83V40.99H92.0921V28.63H94.6571V29.815ZM98.3171 32.8C98.3171 32.16 98.1371 31.66 97.7771 31.3C97.4271 30.93 96.9921 30.745 96.4721 30.745C95.9621 30.745 95.5271 30.93 95.1671 31.3C94.8171 31.67 94.6421 32.175 94.6421 32.815C94.6421 33.455 94.8171 33.96 95.1671 34.33C95.5271 34.7 95.9621 34.885 96.4721 34.885C96.9821 34.885 97.4171 34.7 97.7771 34.33C98.1371 33.95 98.3171 33.44 98.3171 32.8Z" fill="#2E2E2E"/>
<path fill-rule="evenodd" clip-rule="evenodd" d="M146.999 30.2688L150.892 26.3757C152.041 25.2272 153.771 26.9724 152.622 28.1209L148.744 31.999L152.622 35.892C153.771 37.0405 152.041 38.7708 150.892 37.6223L146.999 33.7441L143.121 37.6223C141.972 38.7708 140.227 37.0405 141.376 35.892L145.269 31.999L141.376 28.1209C140.227 26.9724 141.972 25.2272 143.121 26.3757L146.999 30.2688Z" fill="#2E2E2E"/>
<defs>
<filter id="filter0_i" x="0" y="0" width="174" height="63" filterUnits="userSpaceOnUse" color-interpolation-filters="sRGB">
<feFlood flood-opacity="0" result="BackgroundImageFix"/>
<feBlend mode="normal" in="SourceGraphic" in2="BackgroundImageFix" result="shape"/>
<feColorMatrix in="SourceAlpha" type="matrix" values="0 0 0 0 0 0 0 0 0 0 0 0 0 0 0 0 0 0 127 0" result="hardAlpha"/>
<feOffset/>
<feGaussianBlur stdDeviation="2"/>
<feComposite in2="hardAlpha" operator="arithmetic" k2="-1" k3="1"/>
<feColorMatrix type="matrix" values="0 0 0 0 0.898039 0 0 0 0 0.898039 0 0 0 0 0.898039 0 0 0 0.49 0"/>
<feBlend mode="normal" in2="shape" result="effect1_innerShadow"/>
</filter>
</defs>
</svg>
