<svg width="45" height="36" viewBox="0 0 45 36" fill="none" xmlns="http://www.w3.org/2000/svg">
<path d="M42.5134 6.24756C35.3871 6.24756 28.9759 10.7128 26.4379 17.2706C26.0789 17.2122 25.712 17.1778 25.3372 17.1778C23.4986 17.1778 21.7179 17.9428 20.4515 19.2769C19.8861 19.8729 19.9106 20.8142 20.5063 21.3799C21.102 21.9454 22.0433 21.9203 22.6093 21.3251C23.327 20.569 24.2957 20.1524 25.3372 20.1524C26.8773 20.1524 28.2116 21.0675 28.7906 22.4229C28.2198 22.9005 27.743 23.5008 27.3989 24.2005C27.0367 24.9376 27.3403 25.8292 28.0774 26.1918C28.2885 26.2956 28.5122 26.3447 28.7328 26.3447C29.2818 26.3447 29.8099 26.0393 30.0687 25.5133C30.484 24.6683 31.3267 24.1434 32.2675 24.1434C33.1698 24.1434 33.9969 24.6379 34.4253 25.4339C34.8152 26.1575 35.7171 26.428 36.4401 26.0386C37.1634 25.6491 37.4342 24.747 37.0447 24.0237C36.0965 22.2625 34.2659 21.1688 32.2674 21.1688C32.0117 21.1688 31.7596 21.1872 31.5119 21.2213C31.0117 20.0635 30.2055 19.0868 29.1957 18.384C31.2838 12.9354 36.6012 9.22216 42.5133 9.22216C43.3347 9.22216 44.0007 8.55628 44.0007 7.73483C44.0007 6.91338 43.3348 6.24756 42.5134 6.24756Z" fill="#FFE9DF" stroke="#FFE9DF" stroke-width="0.7"/>
<path d="M43.999 12.9818C43.999 12.1604 43.3332 11.4944 42.5117 11.4944C38.4431 11.4944 34.687 13.5326 32.4641 16.9466C32.016 17.6351 32.2107 18.5567 32.8989 19.0048C33.1495 19.168 33.4311 19.2459 33.7093 19.2459C33.7682 19.2459 33.8256 19.2316 33.884 19.2246L33.8853 19.2359C34.1333 19.2064 34.3874 19.1916 34.6408 19.1916C38.1607 19.1916 41.0243 22.0553 41.0243 25.5751C41.0243 29.0949 38.1607 31.9586 34.6409 31.9586H8.25927C5.89676 31.9586 3.97465 30.0365 3.97465 27.674C3.97465 25.6122 5.44529 23.8424 7.47145 23.466C8.12709 23.344 8.62159 22.8006 8.68104 22.1362C9.09971 17.4663 12.9536 13.9444 17.6459 13.9444C19.4901 13.9444 21.261 14.4983 22.7674 15.5459L22.7686 15.5439C22.8319 15.588 22.8957 15.6315 22.9672 15.6661C23.1762 15.7676 23.3973 15.8157 23.6152 15.8157C24.1671 15.8157 24.6974 15.507 24.9543 14.9769C28.2461 8.19058 34.9737 3.9746 42.5117 3.9746C43.3331 3.9746 43.999 3.30872 43.999 2.48727C43.999 1.66582 43.3331 1 42.5117 1C34.4956 1 27.0185 5.36894 23.0348 12.2546C21.373 11.4132 19.539 10.9697 17.6458 10.9697C11.7581 10.9697 6.86209 15.1383 5.85672 20.8257C2.98665 21.8287 1 24.5541 1 27.674C1 31.6768 4.25648 34.9333 8.25927 34.9333H34.6409C39.801 34.9333 43.999 30.7352 43.999 25.5751C43.999 21.1693 40.935 17.4747 36.8284 16.4857C38.4124 15.1957 40.4064 14.469 42.5118 14.469C43.3331 14.469 43.999 13.8032 43.999 12.9818Z" fill="#FFE9DF" stroke="#FFE9DF" stroke-width="0.7"/>
</svg>
