<svg width="340" height="334" viewBox="0 0 340 334" fill="none" xmlns="http://www.w3.org/2000/svg">
<path d="M104 289.255C95.675 289.255 88.2844 284.922 84.1219 277.787C79.9594 270.566 79.9594 261.986 84.1219 254.766L101.027 225.543C101.621 224.524 102.726 223.844 104 223.844C105.274 223.844 106.294 224.524 106.973 225.543L123.878 254.766C128.041 261.986 128.041 270.566 123.878 277.787C119.716 284.922 112.325 289.255 104 289.255ZM104 234.038L89.9834 258.163C87.0102 263.26 87.0102 269.292 89.9834 274.389C92.8717 279.486 98.1385 282.459 104 282.459C109.861 282.459 115.128 279.401 118.017 274.389C120.905 269.292 120.905 263.26 118.017 258.163L104 234.038Z" fill="white" stroke="white" stroke-width="2"/>
<path d="M100.301 277.212C98.4324 277.212 96.9033 275.683 96.9033 273.814C96.9033 271.945 98.4324 270.416 100.301 270.416C104.549 270.416 107.947 267.018 107.947 262.77C107.947 260.901 109.476 259.372 111.345 259.372C113.214 259.372 114.743 260.901 114.743 262.77C114.743 270.756 108.287 277.212 100.301 277.212Z" fill="white" stroke="white" stroke-width="2"/>
<path d="M46.0566 322.394H161.197C163.122 322.39 165.045 322.266 166.954 322.022V328.151C166.954 329.678 167.561 331.143 168.641 332.222C169.72 333.302 171.185 333.908 172.712 333.908C174.238 333.908 175.703 333.302 176.782 332.222C177.862 331.143 178.469 329.678 178.469 328.151V319.021C187.849 315.248 195.723 308.484 200.867 299.78C206.011 291.075 208.138 280.916 206.918 270.878C228.769 263.635 247.787 249.701 261.28 231.049C274.772 212.398 282.054 189.974 282.095 166.954C282.095 106.64 233.026 57.5704 172.712 57.5704C112.397 57.5704 63.3277 106.64 63.3277 166.954C63.3289 175.483 64.3229 183.982 66.2897 192.28C60.8956 196.855 56.3927 202.387 53.0075 208.598C47.7302 209.998 42.7939 212.461 38.5005 215.834C38.2905 215.892 38.0841 215.963 37.8823 216.045L26.7158 220.626C25.6779 221.053 24.7874 221.774 24.1538 222.7C23.5202 223.627 23.1712 224.718 23.1496 225.84C23.1281 226.962 23.4349 228.066 24.0325 229.016C24.63 229.966 25.4922 230.721 26.5129 231.187C25.8927 232.57 25.3514 233.988 24.8916 235.433C15.7253 240.175 8.41768 247.859 4.14081 257.252C-0.136047 266.645 -1.13424 277.202 1.30637 287.229C3.74697 297.257 9.48491 306.175 17.5998 312.551C25.7146 318.928 35.7361 322.394 46.0566 322.394ZM74.8418 166.954C74.8418 112.988 118.746 69.0845 172.712 69.0845C226.677 69.0845 270.581 112.988 270.581 166.954C270.545 187.407 264.12 207.337 252.205 223.961C240.289 240.584 223.478 253.07 204.12 259.673C200.754 251.024 194.856 243.592 187.198 238.348C179.54 233.105 170.479 230.293 161.197 230.282H160.91C159.98 220.871 156.742 211.836 151.484 203.976C146.226 196.117 139.109 189.677 130.765 185.227C122.421 180.778 113.108 178.456 103.652 178.468C94.1954 178.481 84.8883 180.826 76.556 185.298C75.4136 179.25 74.8397 173.109 74.8418 166.954ZM32.0749 244.753C32.8841 244.394 33.5996 243.853 34.1658 243.173C34.7321 242.493 35.1338 241.691 35.3399 240.83C36.6332 235.438 39.4572 230.535 43.4719 226.71C47.4866 222.885 52.521 220.302 57.9694 219.271C58.8569 219.104 59.6926 218.73 60.4089 218.18C61.1252 217.63 61.7021 216.919 62.0928 216.105C66.6113 206.693 74.1928 199.096 83.5947 194.558C92.9967 190.019 103.661 188.81 113.841 191.126C124.021 193.443 133.111 199.149 139.623 207.309C146.136 215.469 149.683 225.599 149.683 236.039C149.683 237.566 150.29 239.03 151.37 240.11C152.449 241.189 153.914 241.796 155.44 241.796H161.197C170.359 241.796 179.145 245.435 185.623 251.913C192.1 258.391 195.74 267.177 195.74 276.338C195.74 285.499 192.1 294.285 185.623 300.763C179.145 307.241 170.359 310.88 161.197 310.88H46.0566C38.1366 310.88 30.4573 308.158 24.3051 303.17C18.153 298.183 13.9016 291.232 12.2632 283.483C10.6249 275.735 11.6991 267.658 15.3059 260.607C18.9126 253.556 24.8329 247.959 32.0749 244.753Z" fill="white"/>
<path d="M234.902 18.2368C233.493 17.6478 231.909 17.6424 230.496 18.2219C229.083 18.8014 227.959 19.9183 227.37 21.3269L216.264 47.8813C215.973 48.5788 215.821 49.327 215.819 50.083C215.816 50.839 215.963 51.5882 216.25 52.2876C216.537 52.9871 216.959 53.6231 217.492 54.1595C218.024 54.6959 218.658 55.122 219.355 55.4137C220.053 55.7053 220.801 55.8567 221.557 55.8592C222.313 55.8617 223.062 55.7153 223.762 55.4283C224.461 55.1413 225.097 54.7193 225.633 54.1865C226.17 53.6536 226.596 53.0204 226.888 52.3228L237.993 25.7685C238.582 24.3599 238.587 22.775 238.007 21.3626C237.428 19.9502 236.311 18.8258 234.902 18.2368Z" fill="white"/>
<path d="M111.528 17.8195C110.828 18.1065 110.192 18.5284 109.656 19.0612C109.119 19.594 108.693 20.2272 108.402 20.9247C108.11 21.6222 107.958 22.3703 107.956 23.1264C107.953 23.8824 108.1 24.6316 108.387 25.331L119.315 51.9624C119.912 53.3485 121.03 54.4446 122.428 55.0146C123.825 55.5846 125.391 55.5829 126.787 55.0099C128.184 54.4369 129.299 53.3385 129.894 51.9511C130.488 50.5636 130.514 48.9983 129.965 47.5921L119.039 20.9607C118.752 20.2612 118.33 19.6251 117.798 19.0887C117.265 18.5523 116.632 18.1261 115.934 17.8344C115.237 17.5427 114.489 17.3913 113.732 17.3887C112.976 17.3862 112.227 17.5325 111.528 17.8195Z" fill="white"/>
<path d="M27.0852 112.296L53.6396 123.401C55.0483 123.99 56.6333 123.996 58.046 123.416C59.4586 122.837 60.5832 121.72 61.1723 120.311C61.7614 118.902 61.7667 117.317 61.1872 115.905C60.6076 114.492 59.4906 113.367 58.0818 112.778L31.5275 101.673C30.1188 101.084 28.5338 101.079 27.1212 101.658C25.7086 102.238 24.5841 103.355 23.9951 104.764C23.4061 106.172 23.4009 107.757 23.9805 109.17C24.5602 110.583 25.6772 111.707 27.0859 112.296H27.0852Z" fill="white"/>
<path d="M231.712 316.521C232.657 316.521 233.588 316.288 234.422 315.843C235.256 315.398 235.967 314.755 236.493 313.969C237.02 313.184 237.345 312.282 237.439 311.341C237.534 310.401 237.396 309.452 237.037 308.577L226.108 281.946C225.511 280.56 224.393 279.464 222.995 278.894C221.598 278.324 220.032 278.325 218.636 278.898C217.239 279.471 216.124 280.57 215.529 281.957C214.935 283.345 214.909 284.91 215.458 286.316L226.384 312.948C226.817 314.005 227.555 314.909 228.504 315.545C229.453 316.181 230.57 316.521 231.712 316.521Z" fill="white"/>
<path d="M316.115 232.682C317.446 232.684 318.737 232.224 319.767 231.381C320.797 230.538 321.503 229.364 321.766 228.059C322.028 226.754 321.829 225.398 321.204 224.223C320.58 223.047 319.567 222.125 318.338 221.612L291.784 210.507C290.375 209.918 288.79 209.912 287.377 210.492C285.965 211.072 284.84 212.189 284.251 213.597C283.662 215.006 283.657 216.591 284.236 218.004C284.816 219.416 285.933 220.541 287.342 221.13L313.896 232.235C314.599 232.53 315.353 232.682 316.115 232.682Z" fill="white"/>
<path d="M284.563 121.067C284.85 121.767 285.271 122.403 285.804 122.94C286.337 123.476 286.97 123.903 287.667 124.194C288.365 124.486 289.113 124.637 289.869 124.64C290.625 124.642 291.375 124.495 292.074 124.208L318.705 113.282C320.089 112.683 321.183 111.566 321.751 110.169C322.32 108.772 322.318 107.208 321.746 105.813C321.173 104.417 320.076 103.303 318.69 102.708C317.305 102.113 315.741 102.085 314.335 102.631L287.704 113.558C286.292 114.137 285.168 115.254 284.579 116.662C283.99 118.07 283.984 119.655 284.563 121.067Z" fill="white"/>
<path d="M172.712 0C171.185 0 169.72 0.606543 168.641 1.6862C167.561 2.76585 166.955 4.23018 166.955 5.75704V46.0563C166.955 47.5832 167.561 49.0475 168.641 50.1272C169.72 51.2068 171.185 51.8134 172.712 51.8134C174.238 51.8134 175.703 51.2068 176.782 50.1272C177.862 49.0475 178.469 47.5832 178.469 46.0563V5.75704C178.469 4.23018 177.862 2.76585 176.782 1.6862C175.703 0.606543 174.238 0 172.712 0Z" fill="white"/>
<path d="M54.657 48.8996C54.1224 49.4341 53.6983 50.0688 53.409 50.7673C53.1196 51.4658 52.9707 52.2145 52.9707 52.9705C52.9707 53.7266 53.1196 54.4752 53.409 55.1737C53.6983 55.8722 54.1224 56.5069 54.657 57.0415L83.1544 85.5388C83.689 86.0734 84.3236 86.4975 85.0221 86.7868C85.7206 87.0761 86.4693 87.2251 87.2253 87.2251C87.9813 87.2251 88.73 87.0761 89.4285 86.7868C90.127 86.4975 90.7617 86.0734 91.2963 85.5388C91.8309 85.0042 92.2549 84.3695 92.5443 83.671C92.8336 82.9725 92.9825 82.2239 92.9825 81.4679C92.9825 80.7118 92.8336 79.9632 92.5443 79.2647C92.2549 78.5662 91.8309 77.9315 91.2963 77.3969L62.7989 48.8996C62.2643 48.3649 61.6296 47.9408 60.9311 47.6515C60.2326 47.3622 59.484 47.2133 58.728 47.2133C57.9719 47.2133 57.2233 47.3622 56.5248 47.6515C55.8263 47.9408 55.1916 48.3649 54.657 48.8996Z" fill="white"/>
<path d="M11.5146 172.711H51.8139C53.3408 172.711 54.8051 172.105 55.8847 171.025C56.9644 169.945 57.5709 168.481 57.5709 166.954C57.5709 165.427 56.9644 163.963 55.8847 162.883C54.8051 161.804 53.3408 161.197 51.8139 161.197H11.5146C9.98775 161.197 8.52342 161.804 7.44377 162.883C6.36411 163.963 5.75757 165.427 5.75757 166.954C5.75757 168.481 6.36411 169.945 7.44377 171.025C8.52342 172.105 9.98775 172.711 11.5146 172.711Z" fill="white"/>
<path d="M286.695 286.695C287.834 286.695 288.947 286.357 289.894 285.725C290.84 285.092 291.578 284.193 292.014 283.141C292.45 282.089 292.564 280.931 292.342 279.815C292.119 278.698 291.571 277.672 290.766 276.867L262.269 248.37C261.734 247.835 261.099 247.411 260.401 247.122C259.702 246.832 258.954 246.683 258.198 246.683C257.442 246.683 256.693 246.832 255.994 247.122C255.296 247.411 254.661 247.835 254.127 248.37C253.592 248.904 253.168 249.539 252.879 250.237C252.589 250.936 252.44 251.684 252.44 252.441C252.44 253.197 252.589 253.945 252.879 254.644C253.168 255.342 253.592 255.977 254.127 256.512L282.624 285.009C283.158 285.544 283.793 285.969 284.491 286.258C285.19 286.547 285.939 286.696 286.695 286.695Z" fill="white"/>
<path d="M287.853 166.954C287.853 168.481 288.459 169.945 289.539 171.025C290.618 172.105 292.083 172.711 293.61 172.711H333.909C335.436 172.711 336.9 172.105 337.98 171.025C339.059 169.945 339.666 168.481 339.666 166.954C339.666 165.427 339.059 163.963 337.98 162.883C336.9 161.804 335.436 161.197 333.909 161.197H293.61C292.083 161.197 290.618 161.804 289.539 162.883C288.459 163.963 287.853 165.427 287.853 166.954Z" fill="white"/>
<path d="M282.624 48.8996L254.126 77.397C253.592 77.9316 253.168 78.5663 252.878 79.2648C252.589 79.9633 252.44 80.7119 252.44 81.4679C252.44 82.224 252.589 82.9726 252.878 83.6711C253.168 84.3696 253.592 85.0043 254.126 85.5389C254.661 86.0735 255.295 86.4976 255.994 86.7869C256.692 87.0762 257.441 87.2251 258.197 87.2251C258.953 87.2251 259.702 87.0762 260.4 86.7869C261.099 86.4976 261.733 86.0735 262.268 85.5389L290.765 57.0415C291.845 55.9618 292.452 54.4973 292.452 52.9703C292.451 51.4434 291.845 49.979 290.765 48.8993C289.685 47.8196 288.221 47.2131 286.694 47.2131C285.167 47.2132 283.702 47.8199 282.623 48.8996H282.624Z" fill="white"/>
<path d="M138.169 166.954C144.528 166.954 149.683 161.799 149.683 155.44C149.683 149.081 144.528 143.926 138.169 143.926C131.81 143.926 126.655 149.081 126.655 155.44C126.655 161.799 131.81 166.954 138.169 166.954Z" fill="white"/>
<path d="M207.254 166.954C213.613 166.954 218.768 161.799 218.768 155.44C218.768 149.081 213.613 143.926 207.254 143.926C200.895 143.926 195.74 149.081 195.74 155.44C195.74 161.799 200.895 166.954 207.254 166.954Z" fill="white"/>
<path d="M153.621 189.687C166.017 193.79 179.406 193.79 191.803 189.687C192.529 189.455 193.202 189.082 193.783 188.588C194.364 188.094 194.841 187.49 195.187 186.81C195.533 186.131 195.74 185.389 195.796 184.629C195.853 183.869 195.758 183.104 195.517 182.381C195.276 181.658 194.893 180.99 194.392 180.415C193.891 179.841 193.28 179.372 192.596 179.035C191.912 178.699 191.168 178.502 190.407 178.455C189.646 178.408 188.883 178.513 188.163 178.764C178.13 182.084 167.294 182.084 157.26 178.764C156.54 178.513 155.778 178.408 155.017 178.455C154.256 178.502 153.511 178.699 152.827 179.035C152.143 179.372 151.533 179.841 151.031 180.415C150.53 180.99 150.147 181.658 149.906 182.381C149.665 183.104 149.57 183.869 149.627 184.629C149.684 185.389 149.891 186.131 150.236 186.81C150.582 187.49 151.059 188.094 151.64 188.588C152.221 189.082 152.894 189.455 153.621 189.687Z" fill="white"/>
</svg>
