<svg width="163" height="58" viewBox="0 0 163 58" fill="none" xmlns="http://www.w3.org/2000/svg">
<rect x="4" y="4" width="155" height="50" rx="15" fill="#FFF8F5" stroke="#FFF1EB" stroke-width="8"/>
<path d="M30.35 34H27.785L23.495 27.505V34H20.93V23.47H23.495L27.785 29.995V23.47H30.35V34ZM31.6993 29.8C31.6993 28.94 31.8593 28.185 32.1793 27.535C32.5093 26.885 32.9543 26.385 33.5143 26.035C34.0743 25.685 34.6993 25.51 35.3893 25.51C35.9793 25.51 36.4943 25.63 36.9343 25.87C37.3843 26.11 37.7293 26.425 37.9693 26.815V25.63H40.5343V34H37.9693V32.815C37.7193 33.205 37.3693 33.52 36.9193 33.76C36.4793 34 35.9643 34.12 35.3743 34.12C34.6943 34.12 34.0743 33.945 33.5143 33.595C32.9543 33.235 32.5093 32.73 32.1793 32.08C31.8593 31.42 31.6993 30.66 31.6993 29.8ZM37.9693 29.815C37.9693 29.175 37.7893 28.67 37.4293 28.3C37.0793 27.93 36.6493 27.745 36.1393 27.745C35.6293 27.745 35.1943 27.93 34.8343 28.3C34.4843 28.66 34.3093 29.16 34.3093 29.8C34.3093 30.44 34.4843 30.95 34.8343 31.33C35.1943 31.7 35.6293 31.885 36.1393 31.885C36.6493 31.885 37.0793 31.7 37.4293 31.33C37.7893 30.96 37.9693 30.455 37.9693 29.815ZM45.795 34.12C45.065 34.12 44.415 33.995 43.845 33.745C43.275 33.495 42.825 33.155 42.495 32.725C42.165 32.285 41.98 31.795 41.94 31.255H44.475C44.505 31.545 44.64 31.78 44.88 31.96C45.12 32.14 45.415 32.23 45.765 32.23C46.085 32.23 46.33 32.17 46.5 32.05C46.68 31.92 46.77 31.755 46.77 31.555C46.77 31.315 46.645 31.14 46.395 31.03C46.145 30.91 45.74 30.78 45.18 30.64C44.58 30.5 44.08 30.355 43.68 30.205C43.28 30.045 42.935 29.8 42.645 29.47C42.355 29.13 42.21 28.675 42.21 28.105C42.21 27.625 42.34 27.19 42.6 26.8C42.87 26.4 43.26 26.085 43.77 25.855C44.29 25.625 44.905 25.51 45.615 25.51C46.665 25.51 47.49 25.77 48.09 26.29C48.7 26.81 49.05 27.5 49.14 28.36H46.77C46.73 28.07 46.6 27.84 46.38 27.67C46.17 27.5 45.89 27.415 45.54 27.415C45.24 27.415 45.01 27.475 44.85 27.595C44.69 27.705 44.61 27.86 44.61 28.06C44.61 28.3 44.735 28.48 44.985 28.6C45.245 28.72 45.645 28.84 46.185 28.96C46.805 29.12 47.31 29.28 47.7 29.44C48.09 29.59 48.43 29.84 48.72 30.19C49.02 30.53 49.175 30.99 49.185 31.57C49.185 32.06 49.045 32.5 48.765 32.89C48.495 33.27 48.1 33.57 47.58 33.79C47.07 34.01 46.475 34.12 45.795 34.12ZM55.8992 25.54C56.8592 25.54 57.6292 25.86 58.2092 26.5C58.7892 27.13 59.0792 28 59.0792 29.11V34H56.5292V29.455C56.5292 28.895 56.3842 28.46 56.0942 28.15C55.8042 27.84 55.4142 27.685 54.9242 27.685C54.4342 27.685 54.0442 27.84 53.7542 28.15C53.4642 28.46 53.3192 28.895 53.3192 29.455V34H50.7542V22.9H53.3192V26.755C53.5792 26.385 53.9342 26.09 54.3842 25.87C54.8342 25.65 55.3392 25.54 55.8992 25.54ZM64.6266 31.6L66.4416 25.63H69.1716L66.2016 34H63.0366L60.0666 25.63H62.8116L64.6266 31.6ZM71.5413 24.76C71.0913 24.76 70.7213 24.63 70.4313 24.37C70.1513 24.1 70.0113 23.77 70.0113 23.38C70.0113 22.98 70.1513 22.65 70.4313 22.39C70.7213 22.12 71.0913 21.985 71.5413 21.985C71.9813 21.985 72.3413 22.12 72.6213 22.39C72.9113 22.65 73.0563 22.98 73.0563 23.38C73.0563 23.77 72.9113 24.1 72.6213 24.37C72.3413 24.63 71.9813 24.76 71.5413 24.76ZM72.8163 25.63V34H70.2513V25.63H72.8163ZM77.2401 22.9V34H74.6751V22.9H77.2401ZM81.6639 22.9V34H79.0989V22.9H81.6639ZM91.4128 29.68C91.4128 29.92 91.3978 30.17 91.3678 30.43H85.5628C85.6028 30.95 85.7678 31.35 86.0578 31.63C86.3578 31.9 86.7228 32.035 87.1528 32.035C87.7928 32.035 88.2378 31.765 88.4878 31.225H91.2178C91.0778 31.775 90.8228 32.27 90.4528 32.71C90.0928 33.15 89.6378 33.495 89.0878 33.745C88.5378 33.995 87.9228 34.12 87.2428 34.12C86.4228 34.12 85.6928 33.945 85.0528 33.595C84.4128 33.245 83.9128 32.745 83.5528 32.095C83.1928 31.445 83.0128 30.685 83.0128 29.815C83.0128 28.945 83.1878 28.185 83.5378 27.535C83.8978 26.885 84.3978 26.385 85.0378 26.035C85.6778 25.685 86.4128 25.51 87.2428 25.51C88.0528 25.51 88.7728 25.68 89.4028 26.02C90.0328 26.36 90.5228 26.845 90.8728 27.475C91.2328 28.105 91.4128 28.84 91.4128 29.68ZM88.7878 29.005C88.7878 28.565 88.6378 28.215 88.3378 27.955C88.0378 27.695 87.6628 27.565 87.2128 27.565C86.7828 27.565 86.4178 27.69 86.1178 27.94C85.8278 28.19 85.6478 28.545 85.5778 29.005H88.7878Z" fill="#2E2E2E"/>
<path fill-rule="evenodd" clip-rule="evenodd" d="M136.999 27.2688L140.892 23.3757C142.041 22.2272 143.771 23.9724 142.622 25.1209L138.744 28.999L142.622 32.892C143.771 34.0405 142.041 35.7708 140.892 34.6223L136.999 30.7441L133.121 34.6223C131.972 35.7708 130.227 34.0405 131.376 32.892L135.269 28.999L131.376 25.1209C130.227 23.9724 131.972 22.2272 133.121 23.3757L136.999 27.2688Z" fill="#2E2E2E"/>
</svg>
