<svg width="378" height="372" viewBox="0 0 378 372" fill="none" xmlns="http://www.w3.org/2000/svg">
<g filter="url(#filter0_d)">
<g filter="url(#filter1_b)">
<path d="M162.261 163.716L162.261 163.716C160.662 165.642 157.795 165.921 155.862 164.316L162.261 163.716ZM162.261 163.716C163.553 162.158 165.214 161.403 166.851 161.403C168.488 161.403 170.149 162.158 171.442 163.716L171.442 163.716M162.261 163.716L171.442 163.716M171.442 163.716C172.341 164.797 173.637 165.361 174.941 165.361C175.962 165.361 176.991 165.02 177.837 164.316M171.442 163.716L177.837 164.316M177.837 164.316C179.768 162.716 180.041 159.852 178.437 157.916C175.409 154.26 171.296 152.226 166.851 152.226C162.406 152.226 158.293 154.26 155.262 157.916L177.837 164.316ZM155.262 157.916C153.657 159.848 153.93 162.716 155.862 164.316L155.262 157.916Z" fill="white" stroke="white"/>
<path d="M210.8 163.716L210.8 163.716C209.197 165.641 206.335 165.921 204.401 164.316L210.8 163.716ZM210.8 163.716C212.093 162.158 213.754 161.403 215.391 161.403C217.027 161.403 218.689 162.158 219.981 163.716L219.982 163.716M210.8 163.716L219.982 163.716M219.982 163.716C220.881 164.797 222.176 165.361 223.481 165.361C224.502 165.361 225.53 165.02 226.376 164.316C228.308 162.716 228.581 159.852 226.976 157.916C223.949 154.26 219.836 152.226 215.391 152.226C210.946 152.226 206.833 154.26 203.802 157.916L219.982 163.716ZM203.801 157.916C202.197 159.848 202.47 162.716 204.401 164.316L203.801 157.916Z" fill="white" stroke="white"/>
<path d="M208.187 196.692L208.187 196.692C198.778 205.776 183.464 205.776 174.055 196.692L174.055 196.692C172.25 194.951 169.374 195.001 167.629 196.801L167.628 196.801C165.883 198.606 165.933 201.483 167.737 203.228L167.738 203.228C174.187 209.456 182.655 212.567 191.121 212.567C199.587 212.567 208.055 209.456 214.504 203.228L214.505 203.228C216.309 201.483 216.359 198.606 214.613 196.801C212.873 195.001 209.996 194.947 208.187 196.692Z" fill="white" stroke="white"/>
<path d="M62.0604 346.421H179.711C181.678 346.417 183.642 346.289 185.593 346.04V352.303C185.593 353.864 186.213 355.36 187.316 356.463C188.419 357.566 189.916 358.186 191.476 358.186C193.036 358.186 194.532 357.566 195.635 356.463C196.739 355.36 197.358 353.864 197.358 352.303V342.975C206.944 339.119 214.988 332.208 220.245 323.313C225.501 314.419 227.674 304.038 226.428 293.782C248.755 286.381 268.188 272.143 281.974 253.085C295.76 234.027 303.202 211.115 303.244 187.593C303.244 125.964 253.105 75.8252 191.476 75.8252C129.847 75.8252 79.708 125.964 79.708 187.593C79.7092 196.307 80.7249 204.992 82.7345 213.471C77.2229 218.146 72.6218 223.798 69.1628 230.144C63.7705 231.575 58.7266 234.091 54.3396 237.538C54.1251 237.598 53.9142 237.67 53.708 237.754L42.2981 242.435C41.2376 242.871 40.3277 243.608 39.6803 244.554C39.0329 245.501 38.6762 246.616 38.6542 247.762C38.6322 248.909 38.9457 250.037 39.5563 251.007C40.1668 251.978 41.0478 252.749 42.0907 253.226C41.457 254.639 40.9039 256.088 40.4341 257.564C31.0681 262.41 23.6011 270.262 19.2311 279.859C14.861 289.456 13.841 300.243 16.3348 310.49C18.8286 320.736 24.6916 329.848 32.9834 336.363C41.2751 342.879 51.515 346.421 62.0604 346.421ZM91.473 187.593C91.473 132.451 136.335 87.5902 191.476 87.5902C246.617 87.5902 291.479 132.451 291.479 187.593C291.442 208.492 284.877 228.856 272.702 245.842C260.526 262.828 243.349 275.585 223.569 282.332C220.129 273.495 214.103 265.901 206.278 260.543C198.453 255.185 189.194 252.313 179.711 252.301H179.417C178.467 242.685 175.159 233.453 169.786 225.422C164.413 217.391 157.141 210.811 148.615 206.264C140.089 201.718 130.573 199.345 120.911 199.358C111.248 199.371 101.738 201.767 93.2245 206.336C92.0573 200.157 91.4709 193.882 91.473 187.593ZM47.774 267.087C48.6008 266.72 49.3319 266.168 49.9105 265.473C50.4891 264.778 50.8996 263.959 51.1101 263.079C52.4317 257.569 55.3172 252.559 59.4194 248.651C63.5216 244.743 68.6657 242.104 74.2328 241.05C75.1397 240.879 75.9936 240.497 76.7255 239.935C77.4574 239.373 78.0469 238.647 78.4462 237.815C83.0631 228.198 90.8099 220.435 100.417 215.798C110.024 211.161 120.921 209.925 131.322 212.292C141.724 214.659 151.013 220.489 157.667 228.827C164.321 237.165 167.945 247.516 167.946 258.183C167.946 259.743 168.565 261.24 169.669 262.343C170.772 263.446 172.268 264.066 173.828 264.066H179.711C189.072 264.066 198.049 267.784 204.668 274.403C211.287 281.023 215.006 290 215.006 299.361C215.006 308.722 211.287 317.699 204.668 324.318C198.049 330.937 189.072 334.656 179.711 334.656H62.0604C53.9678 334.656 46.1211 331.874 39.8349 326.778C33.5486 321.681 29.2046 314.58 27.5305 306.662C25.8565 298.745 26.9541 290.492 30.6395 283.287C34.3248 276.083 40.3741 270.363 47.774 267.087Z" fill="white"/>
<path d="M255.022 35.6344C253.583 35.0325 251.963 35.027 250.52 35.6191C249.077 36.2113 247.928 37.3525 247.326 38.7918L235.978 65.9249C235.68 66.6377 235.526 67.4021 235.523 68.1746C235.52 68.9471 235.67 69.7126 235.963 70.4273C236.257 71.142 236.688 71.7919 237.232 72.34C237.777 72.888 238.424 73.3235 239.136 73.6215C239.849 73.9195 240.614 74.0742 241.386 74.0767C242.159 74.0793 242.924 73.9297 243.639 73.6364C244.353 73.3431 245.003 72.912 245.551 72.3675C246.099 71.8231 246.535 71.176 246.833 70.4633L258.18 43.3302C258.782 41.8908 258.787 40.2715 258.195 38.8283C257.603 37.385 256.461 36.2362 255.022 35.6344Z" fill="white"/>
<path d="M128.958 35.2078C128.244 35.501 127.594 35.9321 127.046 36.4765C126.498 37.0209 126.062 37.668 125.764 38.3807C125.466 39.0934 125.311 39.8578 125.309 40.6303C125.306 41.4029 125.456 42.1683 125.749 42.883L136.915 70.0948C137.526 71.5112 138.668 72.6311 140.096 73.2136C141.524 73.796 143.124 73.7943 144.551 73.2088C145.977 72.6233 147.117 71.5009 147.725 70.0833C148.332 68.6656 148.358 67.0661 147.798 65.6293L136.634 38.4175C136.341 37.7027 135.909 37.0528 135.365 36.5047C134.821 35.9566 134.174 35.5211 133.461 35.223C132.748 34.925 131.984 34.7702 131.211 34.7676C130.439 34.765 129.673 34.9146 128.958 35.2078Z" fill="white"/>
<path d="M42.6752 131.744L69.8083 143.091C71.2478 143.693 72.8673 143.698 74.3108 143.106C75.7542 142.514 76.9033 141.373 77.5052 139.933C78.1072 138.494 78.1126 136.874 77.5204 135.431C76.9282 133.987 75.7869 132.838 74.3474 132.236L47.2143 120.889C45.7749 120.287 44.1553 120.282 42.712 120.874C41.2686 121.466 40.1196 122.608 39.5178 124.047C38.916 125.487 38.9106 127.106 39.5029 128.55C40.0951 129.993 41.2365 131.142 42.676 131.744H42.6752Z" fill="white"/>
<path d="M251.762 340.419C252.728 340.419 253.679 340.181 254.531 339.727C255.383 339.272 256.11 338.615 256.648 337.812C257.186 337.01 257.518 336.088 257.615 335.127C257.712 334.166 257.57 333.196 257.204 332.303L246.036 305.091C245.426 303.675 244.284 302.555 242.856 301.972C241.428 301.39 239.828 301.392 238.401 301.977C236.974 302.563 235.834 303.685 235.227 305.103C234.62 306.52 234.593 308.12 235.154 309.557L246.318 336.768C246.761 337.848 247.515 338.772 248.485 339.422C249.454 340.073 250.595 340.42 251.762 340.419Z" fill="white"/>
<path d="M338.005 254.754C339.365 254.755 340.684 254.285 341.737 253.424C342.789 252.562 343.511 251.363 343.779 250.029C344.046 248.696 343.844 247.31 343.205 246.11C342.567 244.909 341.532 243.966 340.277 243.442L313.144 232.095C311.704 231.493 310.085 231.487 308.641 232.08C307.198 232.672 306.049 233.813 305.447 235.253C304.845 236.692 304.839 238.312 305.431 239.755C306.024 241.199 307.165 242.348 308.604 242.95L335.738 254.297C336.456 254.598 337.227 254.753 338.005 254.754Z" fill="white"/>
<path d="M305.765 140.706C306.058 141.421 306.489 142.071 307.033 142.619C307.577 143.167 308.224 143.603 308.937 143.901C309.65 144.199 310.414 144.354 311.187 144.356C311.959 144.359 312.725 144.209 313.439 143.915L340.65 132.751C342.065 132.139 343.183 130.997 343.764 129.57C344.345 128.143 344.343 126.545 343.758 125.119C343.173 123.693 342.052 122.554 340.636 121.946C339.22 121.338 337.622 121.31 336.186 121.868L308.975 133.033C307.532 133.625 306.383 134.766 305.781 136.205C305.179 137.643 305.173 139.262 305.765 140.706Z" fill="white"/>
<path d="M191.476 17C189.916 17 188.42 17.6198 187.316 18.7229C186.213 19.8261 185.594 21.3224 185.594 22.8825V64.0601C185.594 65.6203 186.213 67.1165 187.316 68.2197C188.42 69.3229 189.916 69.9427 191.476 69.9427C193.036 69.9427 194.532 69.3229 195.636 68.2197C196.739 67.1165 197.359 65.6203 197.359 64.0601V22.8825C197.359 21.3224 196.739 19.8261 195.636 18.7229C194.532 17.6198 193.036 17 191.476 17Z" fill="white"/>
<path d="M70.8483 66.9654C70.302 67.5116 69.8687 68.1601 69.5731 68.8738C69.2774 69.5875 69.1252 70.3525 69.1252 71.125C69.1252 71.8976 69.2774 72.6625 69.5731 73.3763C69.8687 74.09 70.302 74.7385 70.8483 75.2847L99.9668 104.403C100.513 104.949 101.162 105.383 101.875 105.678C102.589 105.974 103.354 106.126 104.126 106.126C104.899 106.126 105.664 105.974 106.378 105.678C107.091 105.383 107.74 104.949 108.286 104.403C108.832 103.857 109.266 103.208 109.561 102.495C109.857 101.781 110.009 101.016 110.009 100.243C110.009 99.471 109.857 98.706 109.561 97.9923C109.266 97.2786 108.832 96.6301 108.286 96.0838L79.1676 66.9654C78.6214 66.4191 77.9729 65.9858 77.2592 65.6901C76.5455 65.3945 75.7805 65.2423 75.008 65.2423C74.2354 65.2423 73.4705 65.3945 72.7568 65.6901C72.043 65.9858 71.3945 66.4191 70.8483 66.9654Z" fill="white"/>
<path d="M26.7653 193.476H67.943C69.5031 193.476 70.9993 192.856 72.1025 191.753C73.2057 190.65 73.8255 189.153 73.8255 187.593C73.8255 186.033 73.2057 184.537 72.1025 183.434C70.9993 182.33 69.5031 181.711 67.943 181.711H26.7653C25.2052 181.711 23.7089 182.33 22.6058 183.434C21.5026 184.537 20.8828 186.033 20.8828 187.593C20.8828 189.153 21.5026 190.65 22.6058 191.753C23.7089 192.856 25.2052 193.476 26.7653 193.476Z" fill="white"/>
<path d="M307.944 309.944C309.107 309.944 310.245 309.599 311.212 308.952C312.179 308.306 312.933 307.387 313.379 306.312C313.824 305.237 313.94 304.055 313.713 302.913C313.486 301.772 312.926 300.724 312.103 299.901L282.985 270.783C282.439 270.237 281.79 269.803 281.077 269.508C280.363 269.212 279.598 269.06 278.825 269.06C278.053 269.06 277.288 269.212 276.574 269.508C275.86 269.803 275.212 270.237 274.666 270.783C274.119 271.329 273.686 271.978 273.39 272.691C273.095 273.405 272.943 274.17 272.943 274.943C272.943 275.715 273.095 276.48 273.39 277.194C273.686 277.908 274.119 278.556 274.666 279.102L303.784 308.221C304.33 308.768 304.978 309.201 305.692 309.497C306.406 309.793 307.171 309.945 307.944 309.944Z" fill="white"/>
<path d="M309.126 187.593C309.126 189.153 309.746 190.65 310.849 191.753C311.952 192.856 313.449 193.476 315.009 193.476H356.186C357.747 193.476 359.243 192.856 360.346 191.753C361.449 190.65 362.069 189.153 362.069 187.593C362.069 186.033 361.449 184.537 360.346 183.434C359.243 182.33 357.747 181.711 356.186 181.711H315.009C313.449 181.711 311.952 182.33 310.849 183.434C309.746 184.537 309.126 186.033 309.126 187.593Z" fill="white"/>
<path d="M303.784 66.9654L274.665 96.0839C274.119 96.6302 273.686 97.2787 273.39 97.9924C273.094 98.7061 272.942 99.4711 272.942 100.244C272.942 101.016 273.094 101.781 273.39 102.495C273.686 103.208 274.119 103.857 274.665 104.403C275.211 104.95 275.86 105.383 276.574 105.678C277.287 105.974 278.052 106.126 278.825 106.126C279.597 106.126 280.362 105.974 281.076 105.678C281.79 105.383 282.438 104.95 282.984 104.403L312.103 75.2848C313.206 74.1815 313.826 72.6851 313.826 71.1249C313.826 69.5646 313.206 68.0683 312.103 66.9651C310.999 65.8619 309.503 65.2421 307.943 65.2422C306.382 65.2423 304.886 65.8621 303.783 66.9654H303.784Z" fill="white"/>
</g>
<path d="M118.716 312.926C111.574 312.926 105.234 309.21 101.663 303.088C98.0919 296.894 98.0919 289.533 101.663 283.339L116.165 258.269C116.675 257.395 117.623 256.812 118.716 256.812C119.809 256.812 120.684 257.395 121.267 258.269L135.769 283.339C139.34 289.533 139.34 296.894 135.769 303.088C132.198 309.21 125.858 312.926 118.716 312.926ZM118.716 265.557L106.691 286.254C104.141 290.626 104.141 295.8 106.691 300.173C109.169 304.546 113.687 307.096 118.716 307.096C123.744 307.096 128.263 304.473 130.741 300.173C133.218 295.8 133.218 290.626 130.741 286.254L118.716 265.557Z" fill="white" stroke="white" stroke-width="2"/>
<path d="M115.543 302.595C113.939 302.595 112.628 301.283 112.628 299.68C112.628 298.076 113.939 296.765 115.543 296.765C119.187 296.765 122.102 293.85 122.102 290.206C122.102 288.602 123.413 287.291 125.017 287.291C126.62 287.291 127.932 288.602 127.932 290.206C127.932 297.056 122.393 302.595 115.543 302.595Z" fill="white" stroke="white" stroke-width="2"/>
</g>
<defs>
<filter id="filter0_d" x="0" y="0" width="377.069" height="371.186" filterUnits="userSpaceOnUse" color-interpolation-filters="sRGB">
<feFlood flood-opacity="0" result="BackgroundImageFix"/>
<feColorMatrix in="SourceAlpha" type="matrix" values="0 0 0 0 0 0 0 0 0 0 0 0 0 0 0 0 0 0 127 0" result="hardAlpha"/>
<feOffset dy="-2"/>
<feGaussianBlur stdDeviation="7.5"/>
<feComposite in2="hardAlpha" operator="out"/>
<feColorMatrix type="matrix" values="0 0 0 0 1 0 0 0 0 0.737255 0 0 0 0 0.737255 0 0 0 0.3 0"/>
<feBlend mode="normal" in2="BackgroundImageFix" result="effect1_dropShadow"/>
<feBlend mode="normal" in="SourceGraphic" in2="effect1_dropShadow" result="shape"/>
</filter>
<filter id="filter1_b" x="11" y="13" width="355.069" height="349.186" filterUnits="userSpaceOnUse" color-interpolation-filters="sRGB">
<feFlood flood-opacity="0" result="BackgroundImageFix"/>
<feGaussianBlur in="BackgroundImage" stdDeviation="2"/>
<feComposite in2="SourceAlpha" operator="in" result="effect1_backgroundBlur"/>
<feBlend mode="normal" in="SourceGraphic" in2="effect1_backgroundBlur" result="shape"/>
</filter>
</defs>
</svg>
