<svg width="32" height="32" viewBox="0 0 32 32" fill="none" xmlns="http://www.w3.org/2000/svg">
<path d="M31.5049 0.436061C31.0848 0.0157693 30.4547 -0.110318 29.8246 0.0998277L1.00816 11.6579C0.420065 11.868 0 12.4984 0 13.1289C0 13.8014 0.462071 14.3898 1.05016 14.5579L13.232 18.7608L17.4327 30.9493C17.6427 31.5377 18.1468 31.9159 18.7769 32H18.8609C19.491 32 20.1211 31.5797 20.3311 30.9913L31.8829 2.11723C32.135 1.52882 31.9669 0.898383 31.5049 0.436061ZM19.323 14.8521C19.617 14.5579 19.7851 14.1796 19.7851 13.7593C19.7851 13.339 19.617 12.9608 19.323 12.6666C18.7349 12.0782 17.7267 12.0782 17.1386 12.6666L14.0722 15.7347L6.09094 13.0028L27.6823 4.34478L18.9869 25.9058L16.2565 17.8782L19.323 14.8521Z" fill="url(#paint0_linear)"/>
<defs>
<linearGradient id="paint0_linear" x1="16.0375" y1="-1.23653" x2="16.0375" y2="33.3489" gradientUnits="userSpaceOnUse">
<stop stop-color="#EDF6E5"/>
<stop offset="0.359375" stop-color="#B5EAEA"/>
<stop offset="0.458333" stop-color="#B5EAEA" stop-opacity="0.651042"/>
<stop offset="0.552083" stop-color="#FFBCBC" stop-opacity="0.651"/>
<stop offset="0.75" stop-color="#FFBCBC"/>
<stop offset="1" stop-color="#FDE29D" stop-opacity="0.35"/>
</linearGradient>
</defs>
</svg>
