<svg width="36" height="36" viewBox="0 0 36 36" fill="none" xmlns="http://www.w3.org/2000/svg">
<path d="M27.269 25.0024C29.2929 22.4524 30.5071 19.2548 30.5071 15.7738C30.5476 7.6381 23.9095 1 15.7738 1C7.6381 1 1 7.6381 1 15.7738C1 23.9095 7.6381 30.5476 15.7738 30.5476C19.2548 30.5476 22.4524 29.3333 25.0024 27.3095L32.2476 34.5548C32.5714 34.8381 32.9762 35 33.381 35C33.7857 35 34.1905 34.8381 34.5143 34.5143C35.1619 33.8667 35.1619 32.8548 34.5143 32.2071L27.269 25.0024ZM15.7738 27.3095C9.41905 27.3095 4.2381 22.1286 4.2381 15.7738C4.2381 9.41905 9.41905 4.2381 15.7738 4.2381C22.1286 4.2381 27.3095 9.41905 27.3095 15.7738C27.3095 22.1286 22.1286 27.3095 15.7738 27.3095Z" fill="#B5EAEA" stroke="#B5EAEA" stroke-width="0.2"/>
<path d="M21.9263 12.7786C21.2787 10.1477 18.9311 8.20483 16.0978 8.20483C13.6692 8.20483 11.5644 9.66198 10.6335 11.7667C10.593 11.7667 10.593 11.7667 10.5525 11.7667C8.12396 11.7667 6.14062 13.7501 6.14062 16.1786C6.14062 18.6072 8.32634 20.8334 10.7144 20.8334H20.8335C23.1406 20.8334 24.8811 19.0929 24.8811 16.7858C24.8811 14.8834 23.6263 13.3048 21.9263 12.7786ZM20.8335 17.5953H10.7144C10.1073 17.5953 9.37872 16.8263 9.37872 16.1786C9.37872 15.531 9.90491 15.0048 10.5525 15.0048C10.7144 15.0048 10.9168 15.0453 11.0787 15.1263C11.5644 15.3691 12.0906 15.3286 12.5763 15.0858C13.0216 14.8429 13.3454 14.3572 13.4263 13.831C13.5882 12.4548 14.7621 11.4025 16.1382 11.4025C17.6359 11.4025 18.8906 12.6167 18.8906 14.1144V14.1548C18.8906 14.6001 19.093 15.0453 19.4168 15.3286C19.7406 15.6525 20.1859 15.7739 20.6311 15.7739C20.6716 15.7739 20.6716 15.7739 20.7121 15.7739C21.2382 15.7739 21.6835 16.2191 21.6835 16.7453C21.643 17.312 21.3597 17.5953 20.8335 17.5953Z" fill="#B5EAEA" stroke="#B5EAEA" stroke-width="0.2"/>
</svg>
