<svg width="166" height="55" viewBox="0 0 166 55" fill="none" xmlns="http://www.w3.org/2000/svg">
<rect width="166" height="55" rx="10" fill="url(#paint0_linear)"/>
<path d="M28.855 22.47V33H26.29V26.685L23.935 33H21.865L19.495 26.67V33H16.93V22.47H19.96L22.915 29.76L25.84 22.47H28.855ZM34.5095 33.12C33.6895 33.12 32.9495 32.945 32.2895 32.595C31.6395 32.245 31.1245 31.745 30.7445 31.095C30.3745 30.445 30.1895 29.685 30.1895 28.815C30.1895 27.955 30.3795 27.2 30.7595 26.55C31.1395 25.89 31.6595 25.385 32.3195 25.035C32.9795 24.685 33.7195 24.51 34.5395 24.51C35.3595 24.51 36.0995 24.685 36.7595 25.035C37.4195 25.385 37.9395 25.89 38.3195 26.55C38.6995 27.2 38.8895 27.955 38.8895 28.815C38.8895 29.675 38.6945 30.435 38.3045 31.095C37.9245 31.745 37.3995 32.245 36.7295 32.595C36.0695 32.945 35.3295 33.12 34.5095 33.12ZM34.5095 30.9C34.9995 30.9 35.4145 30.72 35.7545 30.36C36.1045 30 36.2795 29.485 36.2795 28.815C36.2795 28.145 36.1095 27.63 35.7695 27.27C35.4395 26.91 35.0295 26.73 34.5395 26.73C34.0395 26.73 33.6245 26.91 33.2945 27.27C32.9645 27.62 32.7995 28.135 32.7995 28.815C32.7995 29.485 32.9595 30 33.2795 30.36C33.6095 30.72 34.0195 30.9 34.5095 30.9ZM45.3503 24.54C46.3303 24.54 47.1103 24.86 47.6903 25.5C48.2803 26.13 48.5753 27 48.5753 28.11V33H46.0253V28.455C46.0253 27.895 45.8803 27.46 45.5903 27.15C45.3003 26.84 44.9103 26.685 44.4203 26.685C43.9303 26.685 43.5403 26.84 43.2503 27.15C42.9603 27.46 42.8153 27.895 42.8153 28.455V33H40.2503V24.63H42.8153V25.74C43.0753 25.37 43.4253 25.08 43.8653 24.87C44.3053 24.65 44.8003 24.54 45.3503 24.54ZM55.0227 30.825V33H53.7177C52.7877 33 52.0627 32.775 51.5427 32.325C51.0227 31.865 50.7627 31.12 50.7627 30.09V26.76H49.7427V24.63H50.7627V22.59H53.3277V24.63H55.0077V26.76H53.3277V30.12C53.3277 30.37 53.3877 30.55 53.5077 30.66C53.6277 30.77 53.8277 30.825 54.1077 30.825H55.0227ZM59.0165 26.025C59.3165 25.565 59.6915 25.205 60.1415 24.945C60.5915 24.675 61.0915 24.54 61.6415 24.54V27.255H60.9365C60.2965 27.255 59.8165 27.395 59.4965 27.675C59.1765 27.945 59.0165 28.425 59.0165 29.115V33H56.4515V24.63H59.0165V26.025ZM70.7575 28.68C70.7575 28.92 70.7425 29.17 70.7125 29.43H64.9075C64.9475 29.95 65.1125 30.35 65.4025 30.63C65.7025 30.9 66.0675 31.035 66.4975 31.035C67.1375 31.035 67.5825 30.765 67.8325 30.225H70.5625C70.4225 30.775 70.1675 31.27 69.7975 31.71C69.4375 32.15 68.9825 32.495 68.4325 32.745C67.8825 32.995 67.2675 33.12 66.5875 33.12C65.7675 33.12 65.0375 32.945 64.3975 32.595C63.7575 32.245 63.2575 31.745 62.8975 31.095C62.5375 30.445 62.3575 29.685 62.3575 28.815C62.3575 27.945 62.5325 27.185 62.8825 26.535C63.2425 25.885 63.7425 25.385 64.3825 25.035C65.0225 24.685 65.7575 24.51 66.5875 24.51C67.3975 24.51 68.1175 24.68 68.7475 25.02C69.3775 25.36 69.8675 25.845 70.2175 26.475C70.5775 27.105 70.7575 27.84 70.7575 28.68ZM68.1325 28.005C68.1325 27.565 67.9825 27.215 67.6825 26.955C67.3825 26.695 67.0075 26.565 66.5575 26.565C66.1275 26.565 65.7625 26.69 65.4625 26.94C65.1725 27.19 64.9925 27.545 64.9225 28.005H68.1325ZM71.6007 28.8C71.6007 27.94 71.7607 27.185 72.0807 26.535C72.4107 25.885 72.8557 25.385 73.4157 25.035C73.9757 24.685 74.6007 24.51 75.2907 24.51C75.8807 24.51 76.3957 24.63 76.8357 24.87C77.2857 25.11 77.6307 25.425 77.8707 25.815V24.63H80.4357V33H77.8707V31.815C77.6207 32.205 77.2707 32.52 76.8207 32.76C76.3807 33 75.8657 33.12 75.2757 33.12C74.5957 33.12 73.9757 32.945 73.4157 32.595C72.8557 32.235 72.4107 31.73 72.0807 31.08C71.7607 30.42 71.6007 29.66 71.6007 28.8ZM77.8707 28.815C77.8707 28.175 77.6907 27.67 77.3307 27.3C76.9807 26.93 76.5507 26.745 76.0407 26.745C75.5307 26.745 75.0957 26.93 74.7357 27.3C74.3857 27.66 74.2107 28.16 74.2107 28.8C74.2107 29.44 74.3857 29.95 74.7357 30.33C75.0957 30.7 75.5307 30.885 76.0407 30.885C76.5507 30.885 76.9807 30.7 77.3307 30.33C77.6907 29.96 77.8707 29.455 77.8707 28.815ZM84.8563 21.9V33H82.2913V21.9H84.8563Z" fill="#2E2E2E"/>
<path fill-rule="evenodd" clip-rule="evenodd" d="M142.999 26.2688L146.892 22.3757C148.041 21.2272 149.771 22.9724 148.622 24.1209L144.744 27.999L148.622 31.892C149.771 33.0405 148.041 34.7708 146.892 33.6223L142.999 29.7441L139.121 33.6223C137.972 34.7708 136.227 33.0405 137.376 31.892L141.269 27.999L137.376 24.1209C136.227 22.9724 137.972 21.2272 139.121 22.3757L142.999 26.2688Z" fill="#2E2E2E"/>
<defs>
<linearGradient id="paint0_linear" x1="0" y1="55" x2="166" y2="55" gradientUnits="userSpaceOnUse">
<stop stop-color="#EDF6E5"/>
<stop offset="0.177083" stop-color="#FFD4C0" stop-opacity="0.6"/>
<stop offset="0.430647" stop-color="#D4F1E7"/>
<stop offset="0.578125" stop-color="#B5EAEA" stop-opacity="0.6"/>
<stop offset="0.739583" stop-color="#FFF6A3" stop-opacity="0.6"/>
<stop offset="1" stop-color="#FFBCBC" stop-opacity="0.5"/>
</linearGradient>
</defs>
</svg>
