<svg width="166" height="55" viewBox="0 0 166 55" fill="none" xmlns="http://www.w3.org/2000/svg">
<g filter="url(#filter0_i)">
<rect width="166" height="55" rx="10" fill="#FFD9B6"/>
</g>
<path d="M23.485 31.14H19.555L18.925 33H16.24L20.05 22.47H23.02L26.83 33H24.115L23.485 31.14ZM22.825 29.16L21.52 25.305L20.23 29.16H22.825ZM36.2546 24.63V33H33.6896V31.86C33.4296 32.23 33.0746 32.53 32.6246 32.76C32.1846 32.98 31.6946 33.09 31.1546 33.09C30.5146 33.09 29.9496 32.95 29.4596 32.67C28.9696 32.38 28.5896 31.965 28.3196 31.425C28.0496 30.885 27.9146 30.25 27.9146 29.52V24.63H30.4646V29.175C30.4646 29.735 30.6096 30.17 30.8996 30.48C31.1896 30.79 31.5796 30.945 32.0696 30.945C32.5696 30.945 32.9646 30.79 33.2546 30.48C33.5446 30.17 33.6896 29.735 33.6896 29.175V24.63H36.2546ZM41.502 33.12C40.772 33.12 40.122 32.995 39.552 32.745C38.982 32.495 38.532 32.155 38.202 31.725C37.872 31.285 37.687 30.795 37.647 30.255H40.182C40.212 30.545 40.347 30.78 40.587 30.96C40.827 31.14 41.122 31.23 41.472 31.23C41.792 31.23 42.037 31.17 42.207 31.05C42.387 30.92 42.477 30.755 42.477 30.555C42.477 30.315 42.352 30.14 42.102 30.03C41.852 29.91 41.447 29.78 40.887 29.64C40.287 29.5 39.787 29.355 39.387 29.205C38.987 29.045 38.642 28.8 38.352 28.47C38.062 28.13 37.917 27.675 37.917 27.105C37.917 26.625 38.047 26.19 38.307 25.8C38.577 25.4 38.967 25.085 39.477 24.855C39.997 24.625 40.612 24.51 41.322 24.51C42.372 24.51 43.197 24.77 43.797 25.29C44.407 25.81 44.757 26.5 44.847 27.36H42.477C42.437 27.07 42.307 26.84 42.087 26.67C41.877 26.5 41.597 26.415 41.247 26.415C40.947 26.415 40.717 26.475 40.557 26.595C40.397 26.705 40.317 26.86 40.317 27.06C40.317 27.3 40.442 27.48 40.692 27.6C40.952 27.72 41.352 27.84 41.892 27.96C42.512 28.12 43.017 28.28 43.407 28.44C43.797 28.59 44.137 28.84 44.427 29.19C44.727 29.53 44.882 29.99 44.892 30.57C44.892 31.06 44.752 31.5 44.472 31.89C44.202 32.27 43.807 32.57 43.287 32.79C42.777 33.01 42.182 33.12 41.502 33.12ZM51.1263 30.825V33H49.8213C48.8913 33 48.1663 32.775 47.6463 32.325C47.1263 31.865 46.8663 31.12 46.8663 30.09V26.76H45.8463V24.63H46.8663V22.59H49.4313V24.63H51.1113V26.76H49.4313V30.12C49.4313 30.37 49.4913 30.55 49.6113 30.66C49.7313 30.77 49.9313 30.825 50.2113 30.825H51.1263ZM53.845 23.76C53.395 23.76 53.025 23.63 52.735 23.37C52.455 23.1 52.315 22.77 52.315 22.38C52.315 21.98 52.455 21.65 52.735 21.39C53.025 21.12 53.395 20.985 53.845 20.985C54.285 20.985 54.645 21.12 54.925 21.39C55.215 21.65 55.36 21.98 55.36 22.38C55.36 22.77 55.215 23.1 54.925 23.37C54.645 23.63 54.285 23.76 53.845 23.76ZM55.12 24.63V33H52.555V24.63H55.12ZM62.0788 24.54C63.0588 24.54 63.8388 24.86 64.4188 25.5C65.0088 26.13 65.3038 27 65.3038 28.11V33H62.7538V28.455C62.7538 27.895 62.6088 27.46 62.3188 27.15C62.0288 26.84 61.6388 26.685 61.1488 26.685C60.6588 26.685 60.2688 26.84 59.9788 27.15C59.6888 27.46 59.5438 27.895 59.5438 28.455V33H56.9788V24.63H59.5438V25.74C59.8038 25.37 60.1538 25.08 60.5938 24.87C61.0338 24.65 61.5288 24.54 62.0788 24.54Z" fill="#2E2E2E"/>
<path fill-rule="evenodd" clip-rule="evenodd" d="M142.999 26.2688L146.892 22.3757C148.041 21.2272 149.771 22.9724 148.622 24.1209L144.744 27.999L148.622 31.892C149.771 33.0405 148.041 34.7708 146.892 33.6223L142.999 29.7441L139.121 33.6223C137.972 34.7708 136.227 33.0405 137.376 31.892L141.269 27.999L137.376 24.1209C136.227 22.9724 137.972 21.2272 139.121 22.3757L142.999 26.2688Z" fill="#2E2E2E"/>
<defs>
<filter id="filter0_i" x="0" y="0" width="166" height="55" filterUnits="userSpaceOnUse" color-interpolation-filters="sRGB">
<feFlood flood-opacity="0" result="BackgroundImageFix"/>
<feBlend mode="normal" in="SourceGraphic" in2="BackgroundImageFix" result="shape"/>
<feColorMatrix in="SourceAlpha" type="matrix" values="0 0 0 0 0 0 0 0 0 0 0 0 0 0 0 0 0 0 127 0" result="hardAlpha"/>
<feOffset/>
<feGaussianBlur stdDeviation="2"/>
<feComposite in2="hardAlpha" operator="arithmetic" k2="-1" k3="1"/>
<feColorMatrix type="matrix" values="0 0 0 0 0.898039 0 0 0 0 0.898039 0 0 0 0 0.898039 0 0 0 0.49 0"/>
<feBlend mode="normal" in2="shape" result="effect1_innerShadow"/>
</filter>
</defs>
</svg>
