<svg width="30" height="30" viewBox="0 0 30 30" fill="none" xmlns="http://www.w3.org/2000/svg">
<path d="M23.1786 21.1786C24.9643 18.9286 26.0357 16.1071 26.0357 13.0357C26.0714 5.85714 20.2143 0 13.0357 0C5.85714 0 0 5.85714 0 13.0357C0 20.2143 5.85714 26.0714 13.0357 26.0714C16.1071 26.0714 18.9286 25 21.1786 23.2143L27.5714 29.6071C27.8571 29.8571 28.2143 30 28.5714 30C28.9286 30 29.2857 29.8571 29.5714 29.5714C30.1429 29 30.1429 28.1071 29.5714 27.5357L23.1786 21.1786ZM13.0357 23.2143C7.42857 23.2143 2.85714 18.6429 2.85714 13.0357C2.85714 7.42857 7.42857 2.85714 13.0357 2.85714C18.6429 2.85714 23.2143 7.42857 23.2143 13.0357C23.2143 18.6429 18.6429 23.2143 13.0357 23.2143Z" fill="black"/>
<path d="M18.4637 10.3929C17.8923 8.07146 15.8209 6.35718 13.3209 6.35718C11.178 6.35718 9.32087 7.64289 8.49944 9.50003C8.46373 9.50003 8.46373 9.50003 8.42801 9.50003C6.28516 9.50003 4.53516 11.25 4.53516 13.3929C4.53516 15.5357 6.46373 17.5 8.57087 17.5H17.4994C19.5352 17.5 21.0709 15.9643 21.0709 13.9286C21.0709 12.25 19.9637 10.8572 18.4637 10.3929ZM17.4994 14.6429H8.57087C8.03516 14.6429 7.3923 13.9643 7.3923 13.3929C7.3923 12.8215 7.85658 12.3572 8.42801 12.3572C8.57087 12.3572 8.74944 12.3929 8.8923 12.4643C9.32087 12.6786 9.78516 12.6429 10.2137 12.4286C10.6066 12.2143 10.8923 11.7857 10.9637 11.3215C11.1066 10.1072 12.1423 9.17861 13.3566 9.17861C14.678 9.17861 15.7852 10.25 15.7852 11.5715V11.6072C15.7852 12 15.9637 12.3929 16.2494 12.6429C16.5352 12.9286 16.928 13.0357 17.3209 13.0357C17.3566 13.0357 17.3566 13.0357 17.3923 13.0357C17.8566 13.0357 18.2494 13.4286 18.2494 13.8929C18.2137 14.3929 17.9637 14.6429 17.4994 14.6429Z" fill="black"/>
</svg>
