<svg width="37" height="30" viewBox="0 0 37 30" fill="none" xmlns="http://www.w3.org/2000/svg">
<path d="M34.7903 5.271C28.9897 5.271 23.7712 8.90561 21.7053 14.2434C21.4131 14.1959 21.1145 14.1679 20.8093 14.1679C19.3128 14.1679 17.8634 14.7906 16.8325 15.8765C16.3723 16.3616 16.3923 17.1278 16.8772 17.5883C17.3621 18.0486 18.1282 18.0281 18.5889 17.5437C19.1731 16.9283 19.9616 16.5891 20.8093 16.5891C22.0629 16.5891 23.149 17.3341 23.6204 18.4373C23.1557 18.826 22.7676 19.3146 22.4875 19.8842C22.1927 20.4842 22.4398 21.2099 23.0398 21.505C23.2116 21.5895 23.3937 21.6295 23.5732 21.6295C24.0202 21.6295 24.45 21.381 24.6606 20.9528C24.9987 20.265 25.6846 19.8377 26.4504 19.8377C27.1849 19.8377 27.8581 20.2402 28.2068 20.8882C28.5242 21.4771 29.2583 21.6973 29.8468 21.3803C30.4355 21.0633 30.656 20.329 30.339 19.7403C29.5671 18.3067 28.077 17.4164 26.4503 17.4164C26.2422 17.4164 26.037 17.4315 25.8353 17.4592C25.4283 16.5168 24.772 15.7218 23.95 15.1497C25.6497 10.7147 29.978 7.69223 34.7902 7.69223C35.4588 7.69223 36.0009 7.15023 36.0009 6.48159C36.0009 5.81295 35.4589 5.271 34.7903 5.271Z" fill="#FFD4C0" stroke="#FFD4C0" stroke-width="0.82"/>
<path d="M36 10.7528C36 10.0842 35.458 9.54218 34.7894 9.54218C31.4776 9.54218 28.4203 11.2012 26.6109 13.9801C26.2462 14.5405 26.4047 15.2906 26.9648 15.6554C27.1688 15.7882 27.398 15.8516 27.6244 15.8516C27.6724 15.8516 27.7191 15.84 27.7667 15.8343L27.7677 15.8435C27.9696 15.8195 28.1764 15.8074 28.3827 15.8074C31.2477 15.8074 33.5787 18.1384 33.5787 21.0034C33.5787 23.8685 31.2478 26.1994 28.3827 26.1994H6.90884C4.98582 26.1994 3.42128 24.6349 3.42128 22.7119C3.42128 21.0337 4.61834 19.593 6.26758 19.2867C6.80125 19.1874 7.20376 18.7451 7.25215 18.2043C7.59294 14.4031 10.7299 11.5364 14.5493 11.5364C16.0504 11.5364 17.4919 11.9873 18.718 12.84L18.719 12.8383C18.7706 12.8742 18.8225 12.9096 18.8807 12.9378C19.0508 13.0204 19.2308 13.0596 19.4081 13.0596C19.8573 13.0596 20.289 12.8083 20.4982 12.3768C23.1776 6.85293 28.6536 3.42124 34.7894 3.42124C35.458 3.42124 36 2.87924 36 2.2106C36 1.54196 35.458 1 34.7894 1C28.2645 1 22.1784 4.55619 18.9357 10.1609C17.583 9.47606 16.0902 9.11507 14.5492 9.11507C9.75676 9.11507 5.77158 12.5082 4.95324 17.1375C2.61708 17.954 1 20.1724 1 22.7119C1 25.97 3.65068 28.6207 6.90884 28.6207H28.3827C32.5829 28.6207 36 25.2036 36 21.0034C36 17.4172 33.5059 14.4099 30.1633 13.6049C31.4526 12.5549 33.0757 11.9634 34.7894 11.9634C35.458 11.9634 36 11.4214 36 10.7528Z" fill="#FFD4C0" stroke="#FFD4C0" stroke-width="0.82"/>
</svg>
