<svg width="174" height="63" viewBox="0 0 174 63" fill="none" xmlns="http://www.w3.org/2000/svg">
<g filter="url(#filter0_i)">
<rect x="4" y="4" width="166" height="55" rx="15" fill="#FFF1EB"/>
</g>
<rect x="4" y="4" width="166" height="55" rx="15" stroke="#FFF1EB" stroke-width="8"/>
<path d="M28.955 29.86C28.955 30.47 28.815 31.03 28.535 31.54C28.255 32.04 27.825 32.445 27.245 32.755C26.665 33.065 25.945 33.22 25.085 33.22H23.495V37H20.93V26.47H25.085C25.925 26.47 26.635 26.615 27.215 26.905C27.795 27.195 28.23 27.595 28.52 28.105C28.81 28.615 28.955 29.2 28.955 29.86ZM24.89 31.18C25.38 31.18 25.745 31.065 25.985 30.835C26.225 30.605 26.345 30.28 26.345 29.86C26.345 29.44 26.225 29.115 25.985 28.885C25.745 28.655 25.38 28.54 24.89 28.54H23.495V31.18H24.89ZM29.7804 32.8C29.7804 31.94 29.9404 31.185 30.2604 30.535C30.5904 29.885 31.0354 29.385 31.5954 29.035C32.1554 28.685 32.7804 28.51 33.4704 28.51C34.0604 28.51 34.5754 28.63 35.0154 28.87C35.4654 29.11 35.8104 29.425 36.0504 29.815V28.63H38.6154V37H36.0504V35.815C35.8004 36.205 35.4504 36.52 35.0004 36.76C34.5604 37 34.0454 37.12 33.4554 37.12C32.7754 37.12 32.1554 36.945 31.5954 36.595C31.0354 36.235 30.5904 35.73 30.2604 35.08C29.9404 34.42 29.7804 33.66 29.7804 32.8ZM36.0504 32.815C36.0504 32.175 35.8704 31.67 35.5104 31.3C35.1604 30.93 34.7304 30.745 34.2204 30.745C33.7104 30.745 33.2754 30.93 32.9154 31.3C32.5654 31.66 32.3904 32.16 32.3904 32.8C32.3904 33.44 32.5654 33.95 32.9154 34.33C33.2754 34.7 33.7104 34.885 34.2204 34.885C34.7304 34.885 35.1604 34.7 35.5104 34.33C35.8704 33.96 36.0504 33.455 36.0504 32.815ZM43.036 25.9V37H40.471V25.9H43.036ZM52.7848 32.68C52.7848 32.92 52.7698 33.17 52.7398 33.43H46.9348C46.9748 33.95 47.1398 34.35 47.4298 34.63C47.7298 34.9 48.0948 35.035 48.5248 35.035C49.1648 35.035 49.6098 34.765 49.8598 34.225H52.5898C52.4498 34.775 52.1948 35.27 51.8248 35.71C51.4648 36.15 51.0098 36.495 50.4598 36.745C49.9098 36.995 49.2948 37.12 48.6148 37.12C47.7948 37.12 47.0648 36.945 46.4248 36.595C45.7848 36.245 45.2848 35.745 44.9248 35.095C44.5648 34.445 44.3848 33.685 44.3848 32.815C44.3848 31.945 44.5598 31.185 44.9098 30.535C45.2698 29.885 45.7698 29.385 46.4098 29.035C47.0498 28.685 47.7848 28.51 48.6148 28.51C49.4248 28.51 50.1448 28.68 50.7748 29.02C51.4048 29.36 51.8948 29.845 52.2448 30.475C52.6048 31.105 52.7848 31.84 52.7848 32.68ZM50.1598 32.005C50.1598 31.565 50.0098 31.215 49.7098 30.955C49.4098 30.695 49.0348 30.565 48.5848 30.565C48.1548 30.565 47.7898 30.69 47.4898 30.94C47.1998 31.19 47.0198 31.545 46.9498 32.005H50.1598ZM56.703 30.025C57.003 29.565 57.378 29.205 57.828 28.945C58.278 28.675 58.778 28.54 59.328 28.54V31.255H58.623C57.983 31.255 57.503 31.395 57.183 31.675C56.863 31.945 56.703 32.425 56.703 33.115V37H54.138V28.63H56.703V30.025ZM71.234 28.54C72.274 28.54 73.099 28.855 73.709 29.485C74.329 30.115 74.639 30.99 74.639 32.11V37H72.089V32.455C72.089 31.915 71.944 31.5 71.654 31.21C71.374 30.91 70.984 30.76 70.484 30.76C69.984 30.76 69.589 30.91 69.299 31.21C69.019 31.5 68.879 31.915 68.879 32.455V37H66.329V32.455C66.329 31.915 66.184 31.5 65.894 31.21C65.614 30.91 65.224 30.76 64.724 30.76C64.224 30.76 63.829 30.91 63.539 31.21C63.259 31.5 63.119 31.915 63.119 32.455V37H60.554V28.63H63.119V29.68C63.379 29.33 63.719 29.055 64.139 28.855C64.559 28.645 65.034 28.54 65.564 28.54C66.194 28.54 66.754 28.675 67.244 28.945C67.744 29.215 68.134 29.6 68.414 30.1C68.704 29.64 69.099 29.265 69.599 28.975C70.099 28.685 70.644 28.54 71.234 28.54ZM80.2429 37.12C79.4229 37.12 78.6829 36.945 78.0229 36.595C77.3729 36.245 76.8579 35.745 76.4779 35.095C76.1079 34.445 75.9229 33.685 75.9229 32.815C75.9229 31.955 76.1129 31.2 76.4929 30.55C76.8729 29.89 77.3929 29.385 78.0529 29.035C78.7129 28.685 79.4529 28.51 80.2729 28.51C81.0929 28.51 81.8329 28.685 82.4929 29.035C83.1529 29.385 83.6729 29.89 84.0529 30.55C84.4329 31.2 84.6229 31.955 84.6229 32.815C84.6229 33.675 84.4279 34.435 84.0379 35.095C83.6579 35.745 83.1329 36.245 82.4629 36.595C81.8029 36.945 81.0629 37.12 80.2429 37.12ZM80.2429 34.9C80.7329 34.9 81.1479 34.72 81.4879 34.36C81.8379 34 82.0129 33.485 82.0129 32.815C82.0129 32.145 81.8429 31.63 81.5029 31.27C81.1729 30.91 80.7629 30.73 80.2729 30.73C79.7729 30.73 79.3579 30.91 79.0279 31.27C78.6979 31.62 78.5329 32.135 78.5329 32.815C78.5329 33.485 78.6929 34 79.0129 34.36C79.3429 34.72 79.7529 34.9 80.2429 34.9Z" fill="black"/>
<path fill-rule="evenodd" clip-rule="evenodd" d="M146.999 30.2688L150.892 26.3757C152.041 25.2272 153.771 26.9724 152.622 28.1209L148.744 31.999L152.622 35.892C153.771 37.0405 152.041 38.7708 150.892 37.6223L146.999 33.7441L143.121 37.6223C141.972 38.7708 140.227 37.0405 141.376 35.892L145.269 31.999L141.376 28.1209C140.227 26.9724 141.972 25.2272 143.121 26.3757L146.999 30.2688Z" fill="#2E2E2E"/>
<defs>
<filter id="filter0_i" x="0" y="0" width="174" height="63" filterUnits="userSpaceOnUse" color-interpolation-filters="sRGB">
<feFlood flood-opacity="0" result="BackgroundImageFix"/>
<feBlend mode="normal" in="SourceGraphic" in2="BackgroundImageFix" result="shape"/>
<feColorMatrix in="SourceAlpha" type="matrix" values="0 0 0 0 0 0 0 0 0 0 0 0 0 0 0 0 0 0 127 0" result="hardAlpha"/>
<feOffset/>
<feGaussianBlur stdDeviation="2"/>
<feComposite in2="hardAlpha" operator="arithmetic" k2="-1" k3="1"/>
<feColorMatrix type="matrix" values="0 0 0 0 0.898039 0 0 0 0 0.898039 0 0 0 0 0.898039 0 0 0 0.49 0"/>
<feBlend mode="normal" in2="shape" result="effect1_innerShadow"/>
</filter>
</defs>
</svg>
