<svg width="45" height="36" viewBox="0 0 45 36" fill="none" xmlns="http://www.w3.org/2000/svg">
<g filter="url(#filter0_i)">
<path d="M42.5124 6.2476C35.3861 6.2476 28.9749 10.7129 26.4369 17.2706C26.078 17.2122 25.7111 17.1778 25.3362 17.1778C23.4976 17.1778 21.7169 17.9429 20.4505 19.277C19.8851 19.8729 19.9096 20.8142 20.5054 21.38C21.1011 21.9454 22.0424 21.9203 22.6083 21.3251C23.326 20.569 24.2947 20.1524 25.3362 20.1524C26.8763 20.1524 28.2106 21.0676 28.7897 22.4229C28.2188 22.9005 27.742 23.5008 27.3979 24.2005C27.0357 24.9377 27.3393 25.8293 28.0764 26.1918C28.2875 26.2956 28.5112 26.3448 28.7318 26.3448C29.2809 26.3448 29.8089 26.0394 30.0677 25.5133C30.483 24.6683 31.3257 24.1434 32.2665 24.1434C33.1688 24.1434 33.9959 24.6379 34.4243 25.434C34.8143 26.1575 35.7161 26.428 36.4391 26.0386C37.1624 25.6491 37.4332 24.747 37.0438 24.0238C36.0955 22.2626 34.2649 21.1688 32.2664 21.1688C32.0107 21.1688 31.7586 21.1873 31.5109 21.2213C31.0108 20.0635 30.2045 19.0868 29.1947 18.3841C31.2828 12.9354 36.6003 9.22219 42.5124 9.22219C43.3338 9.22219 43.9997 8.55632 43.9997 7.73487C43.9997 6.91342 43.3338 6.2476 42.5124 6.2476Z" fill="#FFE9DF" stroke="#FFE9DF" stroke-width="0.7"/>
<path d="M43.999 12.9818C43.999 12.1604 43.3332 11.4944 42.5117 11.4944C38.4431 11.4944 34.687 13.5326 32.4641 16.9466C32.016 17.6351 32.2107 18.5567 32.8989 19.0048C33.1495 19.168 33.4311 19.2459 33.7093 19.2459C33.7682 19.2459 33.8256 19.2316 33.884 19.2246L33.8853 19.2359C34.1333 19.2064 34.3874 19.1916 34.6408 19.1916C38.1607 19.1916 41.0243 22.0553 41.0243 25.5751C41.0243 29.0949 38.1607 31.9586 34.6409 31.9586H8.25927C5.89676 31.9586 3.97465 30.0365 3.97465 27.674C3.97465 25.6122 5.44529 23.8424 7.47145 23.466C8.12709 23.344 8.62159 22.8006 8.68104 22.1362C9.09971 17.4663 12.9536 13.9444 17.6459 13.9444C19.4901 13.9444 21.261 14.4983 22.7674 15.5459L22.7686 15.5439C22.8319 15.588 22.8957 15.6315 22.9672 15.6661C23.1762 15.7676 23.3973 15.8157 23.6152 15.8157C24.1671 15.8157 24.6974 15.507 24.9543 14.9769C28.2461 8.19058 34.9737 3.9746 42.5117 3.9746C43.3331 3.9746 43.999 3.30872 43.999 2.48727C43.999 1.66582 43.3331 1 42.5117 1C34.4956 1 27.0185 5.36894 23.0348 12.2546C21.373 11.4132 19.539 10.9697 17.6458 10.9697C11.7581 10.9697 6.86209 15.1383 5.85672 20.8257C2.98665 21.8287 1 24.5541 1 27.674C1 31.6768 4.25648 34.9333 8.25927 34.9333H34.6409C39.801 34.9333 43.999 30.7352 43.999 25.5751C43.999 21.1693 40.935 17.4747 36.8284 16.4857C38.4124 15.1957 40.4064 14.469 42.5118 14.469C43.3331 14.469 43.999 13.8032 43.999 12.9818Z" fill="#FFE9DF" stroke="#FFE9DF" stroke-width="0.7"/>
</g>
<defs>
<filter id="filter0_i" x="0.650391" y="0.649994" width="43.6997" height="38.6333" filterUnits="userSpaceOnUse" color-interpolation-filters="sRGB">
<feFlood flood-opacity="0" result="BackgroundImageFix"/>
<feBlend mode="normal" in="SourceGraphic" in2="BackgroundImageFix" result="shape"/>
<feColorMatrix in="SourceAlpha" type="matrix" values="0 0 0 0 0 0 0 0 0 0 0 0 0 0 0 0 0 0 127 0" result="hardAlpha"/>
<feOffset dy="10"/>
<feGaussianBlur stdDeviation="2"/>
<feComposite in2="hardAlpha" operator="arithmetic" k2="-1" k3="1"/>
<feColorMatrix type="matrix" values="0 0 0 0 0.898039 0 0 0 0 0.898039 0 0 0 0 0.898039 0 0 0 0.25 0"/>
<feBlend mode="normal" in2="shape" result="effect1_innerShadow"/>
</filter>
</defs>
</svg>
