<svg width="163" height="58" viewBox="0 0 163 58" fill="none" xmlns="http://www.w3.org/2000/svg">
<rect x="4" y="4" width="155" height="50" rx="15" fill="#FFF8F5" stroke="#FFF1EB" stroke-width="8"/>
<path d="M28.955 26.86C28.955 27.47 28.815 28.03 28.535 28.54C28.255 29.04 27.825 29.445 27.245 29.755C26.665 30.065 25.945 30.22 25.085 30.22H23.495V34H20.93V23.47H25.085C25.925 23.47 26.635 23.615 27.215 23.905C27.795 24.195 28.23 24.595 28.52 25.105C28.81 25.615 28.955 26.2 28.955 26.86ZM24.89 28.18C25.38 28.18 25.745 28.065 25.985 27.835C26.225 27.605 26.345 27.28 26.345 26.86C26.345 26.44 26.225 26.115 25.985 25.885C25.745 25.655 25.38 25.54 24.89 25.54H23.495V28.18H24.89ZM29.7804 29.8C29.7804 28.94 29.9404 28.185 30.2604 27.535C30.5904 26.885 31.0354 26.385 31.5954 26.035C32.1554 25.685 32.7804 25.51 33.4704 25.51C34.0604 25.51 34.5754 25.63 35.0154 25.87C35.4654 26.11 35.8104 26.425 36.0504 26.815V25.63H38.6154V34H36.0504V32.815C35.8004 33.205 35.4504 33.52 35.0004 33.76C34.5604 34 34.0454 34.12 33.4554 34.12C32.7754 34.12 32.1554 33.945 31.5954 33.595C31.0354 33.235 30.5904 32.73 30.2604 32.08C29.9404 31.42 29.7804 30.66 29.7804 29.8ZM36.0504 29.815C36.0504 29.175 35.8704 28.67 35.5104 28.3C35.1604 27.93 34.7304 27.745 34.2204 27.745C33.7104 27.745 33.2754 27.93 32.9154 28.3C32.5654 28.66 32.3904 29.16 32.3904 29.8C32.3904 30.44 32.5654 30.95 32.9154 31.33C33.2754 31.7 33.7104 31.885 34.2204 31.885C34.7304 31.885 35.1604 31.7 35.5104 31.33C35.8704 30.96 36.0504 30.455 36.0504 29.815ZM43.036 27.025C43.336 26.565 43.711 26.205 44.161 25.945C44.611 25.675 45.111 25.54 45.661 25.54V28.255H44.956C44.316 28.255 43.836 28.395 43.516 28.675C43.196 28.945 43.036 29.425 43.036 30.115V34H40.471V25.63H43.036V27.025ZM48.177 24.76C47.727 24.76 47.357 24.63 47.067 24.37C46.787 24.1 46.647 23.77 46.647 23.38C46.647 22.98 46.787 22.65 47.067 22.39C47.357 22.12 47.727 21.985 48.177 21.985C48.617 21.985 48.977 22.12 49.257 22.39C49.547 22.65 49.692 22.98 49.692 23.38C49.692 23.77 49.547 24.1 49.257 24.37C48.977 24.63 48.617 24.76 48.177 24.76ZM49.452 25.63V34H46.887V25.63H49.452ZM54.7159 34.12C53.9859 34.12 53.3359 33.995 52.7659 33.745C52.1959 33.495 51.7459 33.155 51.4159 32.725C51.0859 32.285 50.9009 31.795 50.8609 31.255H53.3959C53.4259 31.545 53.5609 31.78 53.8009 31.96C54.0409 32.14 54.3359 32.23 54.6859 32.23C55.0059 32.23 55.2509 32.17 55.4209 32.05C55.6009 31.92 55.6909 31.755 55.6909 31.555C55.6909 31.315 55.5659 31.14 55.3159 31.03C55.0659 30.91 54.6609 30.78 54.1009 30.64C53.5009 30.5 53.0009 30.355 52.6009 30.205C52.2009 30.045 51.8559 29.8 51.5659 29.47C51.2759 29.13 51.1309 28.675 51.1309 28.105C51.1309 27.625 51.2609 27.19 51.5209 26.8C51.7909 26.4 52.1809 26.085 52.6909 25.855C53.2109 25.625 53.8259 25.51 54.5359 25.51C55.5859 25.51 56.4109 25.77 57.0109 26.29C57.6209 26.81 57.9709 27.5 58.0609 28.36H55.6909C55.6509 28.07 55.5209 27.84 55.3009 27.67C55.0909 27.5 54.8109 27.415 54.4609 27.415C54.1609 27.415 53.9309 27.475 53.7709 27.595C53.6109 27.705 53.5309 27.86 53.5309 28.06C53.5309 28.3 53.6559 28.48 53.9059 28.6C54.1659 28.72 54.5659 28.84 55.1059 28.96C55.7259 29.12 56.2309 29.28 56.6209 29.44C57.0109 29.59 57.3509 29.84 57.6409 30.19C57.9409 30.53 58.0959 30.99 58.1059 31.57C58.1059 32.06 57.9659 32.5 57.6859 32.89C57.4159 33.27 57.0209 33.57 56.5009 33.79C55.9909 34.01 55.3959 34.12 54.7159 34.12Z" fill="#2E2E2E"/>
<path fill-rule="evenodd" clip-rule="evenodd" d="M136.999 27.2688L140.892 23.3757C142.041 22.2272 143.771 23.9724 142.622 25.1209L138.744 28.999L142.622 32.892C143.771 34.0405 142.041 35.7708 140.892 34.6223L136.999 30.7441L133.121 34.6223C131.972 35.7708 130.227 34.0405 131.376 32.892L135.269 28.999L131.376 25.1209C130.227 23.9724 131.972 22.2272 133.121 23.3757L136.999 27.2688Z" fill="#2E2E2E"/>
</svg>
