<svg width="36" height="36" viewBox="0 0 36 36" fill="none" xmlns="http://www.w3.org/2000/svg">
<path d="M27.269 25.0024C29.2929 22.4524 30.5071 19.2548 30.5071 15.7738C30.5476 7.6381 23.9095 1 15.7738 1C7.6381 1 1 7.6381 1 15.7738C1 23.9095 7.6381 30.5476 15.7738 30.5476C19.2548 30.5476 22.4524 29.3333 25.0024 27.3095L32.2476 34.5548C32.5714 34.8381 32.9762 35 33.381 35C33.7857 35 34.1905 34.8381 34.5143 34.5143C35.1619 33.8667 35.1619 32.8548 34.5143 32.2071L27.269 25.0024ZM15.7738 27.3095C9.41905 27.3095 4.2381 22.1286 4.2381 15.7738C4.2381 9.41905 9.41905 4.2381 15.7738 4.2381C22.1286 4.2381 27.3095 9.41905 27.3095 15.7738C27.3095 22.1286 22.1286 27.3095 15.7738 27.3095Z" fill="#BFF2F9" stroke="#BFF2F9" stroke-width="0.15"/>
<path d="M21.9263 12.7784C21.2787 10.1474 18.9311 8.20459 16.0978 8.20459C13.6692 8.20459 11.5644 9.66173 10.6335 11.7665C10.593 11.7665 10.593 11.7665 10.5525 11.7665C8.12396 11.7665 6.14062 13.7498 6.14062 16.1784C6.14062 18.607 8.32634 20.8332 10.7144 20.8332H20.8335C23.1406 20.8332 24.8811 19.0927 24.8811 16.7855C24.8811 14.8832 23.6263 13.3046 21.9263 12.7784ZM20.8335 17.5951H10.7144C10.1073 17.5951 9.37872 16.826 9.37872 16.1784C9.37872 15.5308 9.90491 15.0046 10.5525 15.0046C10.7144 15.0046 10.9168 15.0451 11.0787 15.126C11.5644 15.3689 12.0906 15.3284 12.5763 15.0855C13.0216 14.8427 13.3454 14.357 13.4263 13.8308C13.5882 12.4546 14.7621 11.4022 16.1382 11.4022C17.6359 11.4022 18.8906 12.6165 18.8906 14.1141V14.1546C18.8906 14.5998 19.093 15.0451 19.4168 15.3284C19.7406 15.6522 20.1859 15.7736 20.6311 15.7736C20.6716 15.7736 20.6716 15.7736 20.7121 15.7736C21.2382 15.7736 21.6835 16.2189 21.6835 16.7451C21.643 17.3117 21.3597 17.5951 20.8335 17.5951Z" fill="#BFF2F9" stroke="#BFF2F9" stroke-width="0.15"/>
</svg>
