<svg width="174" height="63" viewBox="0 0 174 63" fill="none" xmlns="http://www.w3.org/2000/svg">
<g filter="url(#filter0_i)">
<rect x="4" y="4" width="166" height="55" rx="10" fill="#FFF8F5"/>
</g>
<rect x="4" y="4" width="166" height="55" rx="10" stroke="#FFF1EB" stroke-width="8"/>
<path d="M24.74 37.105C23.97 37.105 23.28 36.98 22.67 36.73C22.06 36.48 21.57 36.11 21.2 35.62C20.84 35.13 20.65 34.54 20.63 33.85H23.36C23.4 34.24 23.535 34.54 23.765 34.75C23.995 34.95 24.295 35.05 24.665 35.05C25.045 35.05 25.345 34.965 25.565 34.795C25.785 34.615 25.895 34.37 25.895 34.06C25.895 33.8 25.805 33.585 25.625 33.415C25.455 33.245 25.24 33.105 24.98 32.995C24.73 32.885 24.37 32.76 23.9 32.62C23.22 32.41 22.665 32.2 22.235 31.99C21.805 31.78 21.435 31.47 21.125 31.06C20.815 30.65 20.66 30.115 20.66 29.455C20.66 28.475 21.015 27.71 21.725 27.16C22.435 26.6 23.36 26.32 24.5 26.32C25.66 26.32 26.595 26.6 27.305 27.16C28.015 27.71 28.395 28.48 28.445 29.47H25.67C25.65 29.13 25.525 28.865 25.295 28.675C25.065 28.475 24.77 28.375 24.41 28.375C24.1 28.375 23.85 28.46 23.66 28.63C23.47 28.79 23.375 29.025 23.375 29.335C23.375 29.675 23.535 29.94 23.855 30.13C24.175 30.32 24.675 30.525 25.355 30.745C26.035 30.975 26.585 31.195 27.005 31.405C27.435 31.615 27.805 31.92 28.115 32.32C28.425 32.72 28.58 33.235 28.58 33.865C28.58 34.465 28.425 35.01 28.115 35.5C27.815 35.99 27.375 36.38 26.795 36.67C26.215 36.96 25.53 37.105 24.74 37.105ZM29.6485 32.8C29.6485 31.94 29.8085 31.185 30.1285 30.535C30.4585 29.885 30.9035 29.385 31.4635 29.035C32.0235 28.685 32.6485 28.51 33.3385 28.51C33.9285 28.51 34.4435 28.63 34.8835 28.87C35.3335 29.11 35.6785 29.425 35.9185 29.815V28.63H38.4835V37H35.9185V35.815C35.6685 36.205 35.3185 36.52 34.8685 36.76C34.4285 37 33.9135 37.12 33.3235 37.12C32.6435 37.12 32.0235 36.945 31.4635 36.595C30.9035 36.235 30.4585 35.73 30.1285 35.08C29.8085 34.42 29.6485 33.66 29.6485 32.8ZM35.9185 32.815C35.9185 32.175 35.7385 31.67 35.3785 31.3C35.0285 30.93 34.5985 30.745 34.0885 30.745C33.5785 30.745 33.1435 30.93 32.7835 31.3C32.4335 31.66 32.2585 32.16 32.2585 32.8C32.2585 33.44 32.4335 33.95 32.7835 34.33C33.1435 34.7 33.5785 34.885 34.0885 34.885C34.5985 34.885 35.0285 34.7 35.3785 34.33C35.7385 33.96 35.9185 33.455 35.9185 32.815ZM45.4392 28.54C46.4192 28.54 47.1992 28.86 47.7792 29.5C48.3692 30.13 48.6642 31 48.6642 32.11V37H46.1142V32.455C46.1142 31.895 45.9692 31.46 45.6792 31.15C45.3892 30.84 44.9992 30.685 44.5092 30.685C44.0192 30.685 43.6292 30.84 43.3392 31.15C43.0492 31.46 42.9042 31.895 42.9042 32.455V37H40.3392V28.63H42.9042V29.74C43.1642 29.37 43.5142 29.08 43.9542 28.87C44.3942 28.65 44.8892 28.54 45.4392 28.54ZM60.2253 26.47V33.64C60.2253 34.75 59.9103 35.605 59.2803 36.205C58.6603 36.805 57.8203 37.105 56.7603 37.105C55.6503 37.105 54.7603 36.79 54.0903 36.16C53.4203 35.53 53.0853 34.635 53.0853 33.475H55.6353C55.6353 33.915 55.7253 34.25 55.9053 34.48C56.0853 34.7 56.3453 34.81 56.6853 34.81C56.9953 34.81 57.2353 34.71 57.4053 34.51C57.5753 34.31 57.6603 34.02 57.6603 33.64V26.47H60.2253ZM66.1072 37.12C65.2872 37.12 64.5472 36.945 63.8872 36.595C63.2372 36.245 62.7222 35.745 62.3422 35.095C61.9722 34.445 61.7872 33.685 61.7872 32.815C61.7872 31.955 61.9772 31.2 62.3572 30.55C62.7372 29.89 63.2572 29.385 63.9172 29.035C64.5772 28.685 65.3172 28.51 66.1372 28.51C66.9572 28.51 67.6972 28.685 68.3572 29.035C69.0172 29.385 69.5372 29.89 69.9172 30.55C70.2972 31.2 70.4872 31.955 70.4872 32.815C70.4872 33.675 70.2922 34.435 69.9022 35.095C69.5222 35.745 68.9972 36.245 68.3272 36.595C67.6672 36.945 66.9272 37.12 66.1072 37.12ZM66.1072 34.9C66.5972 34.9 67.0122 34.72 67.3522 34.36C67.7022 34 67.8772 33.485 67.8772 32.815C67.8772 32.145 67.7072 31.63 67.3672 31.27C67.0372 30.91 66.6272 30.73 66.1372 30.73C65.6372 30.73 65.2222 30.91 64.8922 31.27C64.5622 31.62 64.3972 32.135 64.3972 32.815C64.3972 33.485 64.5572 34 64.8772 34.36C65.2072 34.72 65.6172 34.9 66.1072 34.9ZM75.253 37.12C74.523 37.12 73.873 36.995 73.303 36.745C72.733 36.495 72.283 36.155 71.953 35.725C71.623 35.285 71.438 34.795 71.398 34.255H73.933C73.963 34.545 74.098 34.78 74.338 34.96C74.578 35.14 74.873 35.23 75.223 35.23C75.543 35.23 75.788 35.17 75.958 35.05C76.138 34.92 76.228 34.755 76.228 34.555C76.228 34.315 76.103 34.14 75.853 34.03C75.603 33.91 75.198 33.78 74.638 33.64C74.038 33.5 73.538 33.355 73.138 33.205C72.738 33.045 72.393 32.8 72.103 32.47C71.813 32.13 71.668 31.675 71.668 31.105C71.668 30.625 71.798 30.19 72.058 29.8C72.328 29.4 72.718 29.085 73.228 28.855C73.748 28.625 74.363 28.51 75.073 28.51C76.123 28.51 76.948 28.77 77.548 29.29C78.158 29.81 78.508 30.5 78.598 31.36H76.228C76.188 31.07 76.058 30.84 75.838 30.67C75.628 30.5 75.348 30.415 74.998 30.415C74.698 30.415 74.468 30.475 74.308 30.595C74.148 30.705 74.068 30.86 74.068 31.06C74.068 31.3 74.193 31.48 74.443 31.6C74.703 31.72 75.103 31.84 75.643 31.96C76.263 32.12 76.768 32.28 77.158 32.44C77.548 32.59 77.888 32.84 78.178 33.19C78.478 33.53 78.633 33.99 78.643 34.57C78.643 35.06 78.503 35.5 78.223 35.89C77.953 36.27 77.558 36.57 77.038 36.79C76.528 37.01 75.933 37.12 75.253 37.12ZM88.1022 32.68C88.1022 32.92 88.0872 33.17 88.0572 33.43H82.2522C82.2922 33.95 82.4572 34.35 82.7472 34.63C83.0472 34.9 83.4122 35.035 83.8422 35.035C84.4822 35.035 84.9272 34.765 85.1772 34.225H87.9072C87.7672 34.775 87.5122 35.27 87.1422 35.71C86.7822 36.15 86.3272 36.495 85.7772 36.745C85.2272 36.995 84.6122 37.12 83.9322 37.12C83.1122 37.12 82.3822 36.945 81.7422 36.595C81.1022 36.245 80.6022 35.745 80.2422 35.095C79.8822 34.445 79.7022 33.685 79.7022 32.815C79.7022 31.945 79.8772 31.185 80.2272 30.535C80.5872 29.885 81.0872 29.385 81.7272 29.035C82.3672 28.685 83.1022 28.51 83.9322 28.51C84.7422 28.51 85.4622 28.68 86.0922 29.02C86.7222 29.36 87.2122 29.845 87.5622 30.475C87.9222 31.105 88.1022 31.84 88.1022 32.68ZM85.4772 32.005C85.4772 31.565 85.3272 31.215 85.0272 30.955C84.7272 30.695 84.3522 30.565 83.9022 30.565C83.4722 30.565 83.1072 30.69 82.8072 30.94C82.5172 31.19 82.3372 31.545 82.2672 32.005H85.4772ZM85.6572 26.485L82.0422 28V26.23L85.6572 24.49V26.485Z" fill="#2E2E2E"/>
<path fill-rule="evenodd" clip-rule="evenodd" d="M146.999 30.2688L150.892 26.3757C152.041 25.2272 153.771 26.9724 152.622 28.1209L148.744 31.999L152.622 35.892C153.771 37.0405 152.041 38.7708 150.892 37.6223L146.999 33.7441L143.121 37.6223C141.972 38.7708 140.227 37.0405 141.376 35.892L145.269 31.999L141.376 28.1209C140.227 26.9724 141.972 25.2272 143.121 26.3757L146.999 30.2688Z" fill="#2E2E2E"/>
<defs>
<filter id="filter0_i" x="0" y="0" width="174" height="63" filterUnits="userSpaceOnUse" color-interpolation-filters="sRGB">
<feFlood flood-opacity="0" result="BackgroundImageFix"/>
<feBlend mode="normal" in="SourceGraphic" in2="BackgroundImageFix" result="shape"/>
<feColorMatrix in="SourceAlpha" type="matrix" values="0 0 0 0 0 0 0 0 0 0 0 0 0 0 0 0 0 0 127 0" result="hardAlpha"/>
<feOffset/>
<feGaussianBlur stdDeviation="2"/>
<feComposite in2="hardAlpha" operator="arithmetic" k2="-1" k3="1"/>
<feColorMatrix type="matrix" values="0 0 0 0 0.898039 0 0 0 0 0.898039 0 0 0 0 0.898039 0 0 0 0.49 0"/>
<feBlend mode="normal" in2="shape" result="effect1_innerShadow"/>
</filter>
</defs>
</svg>
