<svg width="33" height="27" viewBox="0 0 33 27" fill="none" xmlns="http://www.w3.org/2000/svg">
<path d="M31.5837 4.8656C26.3334 4.8656 21.6101 8.15535 19.7402 12.9867C19.4757 12.9437 19.2054 12.9183 18.9293 12.9183C17.5747 12.9183 16.2628 13.482 15.3298 14.4649C14.9132 14.9039 14.9313 15.5974 15.3702 16.0142C15.8091 16.4308 16.5026 16.4123 16.9195 15.9738C17.4483 15.4168 18.162 15.1098 18.9293 15.1098C20.0639 15.1098 21.047 15.7841 21.4736 16.7826C21.053 17.1345 20.7017 17.5768 20.4482 18.0923C20.1813 18.6353 20.405 19.2922 20.9481 19.5593C21.1036 19.6358 21.2684 19.672 21.4309 19.672C21.8355 19.672 22.2245 19.447 22.4151 19.0595C22.7211 18.4369 23.342 18.0502 24.0351 18.0502C24.6999 18.0502 25.3092 18.4145 25.6248 19.001C25.9121 19.534 26.5766 19.7333 27.1092 19.4464C27.6421 19.1595 27.8416 18.4949 27.5547 17.962C26.8561 16.6645 25.5074 15.8587 24.035 15.8587C23.8467 15.8587 23.6609 15.8723 23.4784 15.8974C23.1099 15.0444 22.5159 14.3248 21.772 13.807C23.3104 9.79281 27.228 7.05711 31.5836 7.05711C32.1888 7.05711 32.6794 6.56653 32.6794 5.96133C32.6794 5.35614 32.1888 4.8656 31.5837 4.8656Z" fill="black" stroke="black" stroke-width="0.4"/>
<path d="M32.6791 9.82745C32.6791 9.22229 32.1886 8.73168 31.5834 8.73168C28.5858 8.73168 25.8186 10.2333 24.1809 12.7485C23.8507 13.2557 23.9942 13.9347 24.5012 14.2649C24.6858 14.3851 24.8933 14.4425 25.0983 14.4425C25.1417 14.4425 25.184 14.4319 25.227 14.4268L25.2279 14.4351C25.4107 14.4134 25.5979 14.4025 25.7846 14.4025C28.3778 14.4025 30.4875 16.5123 30.4875 19.1055C30.4875 21.6987 28.3778 23.8085 25.7846 23.8085H6.3482C4.60764 23.8085 3.19154 22.3924 3.19154 20.6518C3.19154 19.1328 4.27502 17.8289 5.76778 17.5516C6.25082 17.4618 6.61513 17.0614 6.65893 16.5719C6.96739 13.1314 9.80673 10.5366 13.2637 10.5366C14.6224 10.5366 15.9271 10.9448 17.0369 11.7166L17.0378 11.7151C17.0844 11.7475 17.1315 11.7796 17.1841 11.8051C17.3381 11.8799 17.501 11.9154 17.6615 11.9154C18.0681 11.9154 18.4588 11.6879 18.6481 11.2974C21.0733 6.29759 26.0298 3.19151 31.5834 3.19151C32.1885 3.19151 32.6791 2.70093 32.6791 2.09573C32.6791 1.49054 32.1885 1 31.5834 1C25.6776 1 20.1689 4.21878 17.2339 9.29172C16.0096 8.67184 14.6584 8.3451 13.2636 8.3451C8.9259 8.3451 5.31884 11.4162 4.57814 15.6064C2.46365 16.3454 1 18.3533 1 20.6518C1 23.6008 3.39918 26 6.3482 26H25.7846C29.5863 26 32.6791 22.9071 32.6791 19.1055C32.6791 15.8595 30.4217 13.1376 27.3963 12.4089C28.5632 11.4585 30.0323 10.9232 31.5834 10.9232C32.1885 10.9232 32.6791 10.4326 32.6791 9.82745Z" fill="black" stroke="black" stroke-width="0.4"/>
</svg>
