<svg width="144" height="159" viewBox="0 0 144 159" fill="none" xmlns="http://www.w3.org/2000/svg">
<path d="M28.0533 143.931L28.0533 143.931L28.0572 143.938C29.7269 146.8 32.7111 148.554 36.064 148.554C39.417 148.554 42.4012 146.8 44.0709 143.938L44.0709 143.938L44.0748 143.931C45.7474 141.03 45.7474 137.562 44.0748 134.66L44.0736 134.659L38.3662 124.792L38.3424 124.751L38.3159 124.712C37.8685 124.04 37.0954 123.47 36.064 123.47C35.0849 123.47 34.2263 123.996 33.7646 124.788L33.7645 124.788L33.7618 124.792L28.0544 134.659L28.0533 134.66C26.3807 137.562 26.3807 141.03 28.0533 143.931ZM32.6288 137.31L36.064 131.398L39.4949 137.303C40.2055 138.562 40.2052 140.032 39.494 141.29C38.7868 142.514 37.5062 143.259 36.064 143.259C34.6078 143.259 33.3371 142.531 32.6368 141.295L32.6322 141.287L32.6274 141.279C31.8961 140.025 31.8961 138.566 32.6274 137.313L32.6288 137.31Z" fill="#FFF1EB" stroke="#FFF1EB" stroke-width="3"/>
<path d="M63.8658 152.176L63.8658 152.176L63.8697 152.183C65.5394 155.045 68.5236 156.799 71.8765 156.799C75.2295 156.799 78.2137 155.045 79.8834 152.183L79.8834 152.183L79.8873 152.176C81.5599 149.275 81.5599 145.807 79.8873 142.906L79.8861 142.904L74.1787 133.038L74.1549 132.996L74.1284 132.957C73.681 132.285 72.9079 131.715 71.8765 131.715C70.8974 131.715 70.0388 132.241 69.5771 133.033L69.577 133.033L69.5743 133.038L63.8669 142.904L63.8658 142.906C62.1932 145.807 62.1932 149.275 63.8658 152.176ZM68.4413 145.555L71.8765 139.643L75.3074 145.548C76.018 146.807 76.0177 148.277 75.3065 149.536C74.5993 150.759 73.3187 151.505 71.8765 151.505C70.4203 151.505 69.1496 150.776 68.4493 149.54L68.4447 149.532L68.4399 149.524C67.7086 148.27 67.7086 146.812 68.4399 145.558L68.4413 145.555Z" fill="#FFF1EB" stroke="#FFF1EB" stroke-width="3"/>
<path d="M99.6793 143.929L99.6793 143.929L99.6831 143.936C101.353 146.798 104.337 148.552 107.69 148.552C111.043 148.552 114.027 146.798 115.697 143.936L115.697 143.936L115.701 143.929C117.373 141.028 117.373 137.56 115.701 134.659L115.7 134.657L109.992 124.791L109.968 124.749L109.942 124.71C109.494 124.039 108.721 123.468 107.69 123.468C106.711 123.468 105.852 123.995 105.391 124.786L105.391 124.786L105.388 124.791L99.6804 134.657L99.6793 134.659C98.0066 137.56 98.0066 141.028 99.6793 143.929ZM104.255 137.309L107.69 131.396L111.121 137.301C111.832 138.56 111.831 140.03 111.12 141.289C110.413 142.512 109.132 143.258 107.69 143.258C106.234 143.258 104.963 142.529 104.263 141.294L104.258 141.285L104.253 141.277C103.522 140.023 103.522 138.565 104.253 137.311L104.255 137.309Z" fill="#FFF1EB" stroke="#FFF1EB" stroke-width="3"/>
<path d="M138.088 18.3269C114.554 18.3269 93.382 33.073 85.0004 54.7293C83.815 54.5364 82.6034 54.4229 81.3655 54.4229C75.2937 54.4229 69.4132 56.9494 65.231 61.3551C63.3636 63.3231 63.4447 66.4318 65.412 68.3C67.3793 70.1673 70.4879 70.0845 72.3569 68.1189C74.7269 65.6221 77.9261 64.2462 81.3655 64.2462C86.4515 64.2462 90.858 67.2684 92.7702 71.7444C90.885 73.3216 89.3104 75.304 88.1741 77.6147C86.9778 80.049 87.9804 82.9935 90.4147 84.1907C91.1118 84.5335 91.8505 84.6958 92.579 84.6958C94.3923 84.6958 96.136 83.6873 96.9907 81.9501C98.3622 79.1596 101.145 77.426 104.252 77.426C107.232 77.426 109.963 79.0591 111.378 81.688C112.666 84.0774 115.644 84.9708 118.032 83.6847C120.42 82.3986 121.315 79.4195 120.028 77.0309C116.897 71.2148 110.852 67.6027 104.252 67.6027C103.407 67.6027 102.575 67.6637 101.757 67.7762C100.105 63.9527 97.4424 60.7271 94.1077 58.4063C101.004 40.4129 118.564 28.1502 138.088 28.1502C140.801 28.1502 143 25.9512 143 23.2385C143 20.5257 140.801 18.3269 138.088 18.3269Z" fill="#FFF1EB" stroke="#FFF1EB" stroke-width="0.4"/>
<path d="M143 40.5686C143 37.856 140.801 35.6568 138.088 35.6568C124.652 35.6568 112.248 42.3877 104.907 53.6621C103.427 55.9356 104.07 58.9792 106.343 60.459C107.17 60.9979 108.1 61.2552 109.019 61.2552C109.214 61.2552 109.403 61.2079 109.596 61.1851L109.6 61.2223C110.419 61.1249 111.259 61.0759 112.095 61.0759C123.719 61.0759 133.176 70.5329 133.176 82.1568C133.176 93.7807 123.72 103.238 112.096 103.238H24.973C17.1711 103.238 10.8235 96.8901 10.8235 89.0881C10.8235 82.2795 15.6801 76.4346 22.3713 75.1916C24.5365 74.7889 26.1695 72.9942 26.3659 70.8003C27.7485 55.3781 40.4757 43.7475 55.9715 43.7475C62.0617 43.7475 67.9101 45.5768 72.8845 49.0365L72.8887 49.0297C73.0977 49.1753 73.3084 49.3191 73.5444 49.4333C74.2348 49.7684 74.965 49.9275 75.6843 49.9275C77.5069 49.9275 79.2583 48.9079 80.1068 47.1574C90.9775 24.7462 113.195 10.8233 138.088 10.8233C140.801 10.8233 143 8.62433 143 5.91157C143 3.1988 140.801 1 138.088 1C111.616 1 86.9237 15.428 73.7676 38.1672C68.2797 35.3886 62.2232 33.924 55.9711 33.924C36.5274 33.924 20.359 47.6902 17.0388 66.4723C7.56071 69.7848 1 78.785 1 89.0881C1 102.307 11.7542 113.061 24.973 113.061H112.096C129.136 113.061 143 99.1976 143 82.1568C143 67.607 132.881 55.406 119.32 52.14C124.551 47.8798 131.136 45.4801 138.088 45.4801C140.801 45.4801 143 43.2812 143 40.5686Z" fill="#FFF1EB" stroke="#FFF1EB" stroke-width="0.4"/>
</svg>
