<svg width="174" height="63" viewBox="0 0 174 63" fill="none" xmlns="http://www.w3.org/2000/svg">
<g filter="url(#filter0_i)">
<rect x="4" y="4" width="166" height="55" rx="10" fill="#FFF8F5"/>
</g>
<rect x="4" y="4" width="166" height="55" rx="10" stroke="#FFF1EB" stroke-width="8"/>
<path d="M28.955 29.86C28.955 30.47 28.815 31.03 28.535 31.54C28.255 32.04 27.825 32.445 27.245 32.755C26.665 33.065 25.945 33.22 25.085 33.22H23.495V37H20.93V26.47H25.085C25.925 26.47 26.635 26.615 27.215 26.905C27.795 27.195 28.23 27.595 28.52 28.105C28.81 28.615 28.955 29.2 28.955 29.86ZM24.89 31.18C25.38 31.18 25.745 31.065 25.985 30.835C26.225 30.605 26.345 30.28 26.345 29.86C26.345 29.44 26.225 29.115 25.985 28.885C25.745 28.655 25.38 28.54 24.89 28.54H23.495V31.18H24.89ZM29.7804 32.8C29.7804 31.94 29.9404 31.185 30.2604 30.535C30.5904 29.885 31.0354 29.385 31.5954 29.035C32.1554 28.685 32.7804 28.51 33.4704 28.51C34.0604 28.51 34.5754 28.63 35.0154 28.87C35.4654 29.11 35.8104 29.425 36.0504 29.815V28.63H38.6154V37H36.0504V35.815C35.8004 36.205 35.4504 36.52 35.0004 36.76C34.5604 37 34.0454 37.12 33.4554 37.12C32.7754 37.12 32.1554 36.945 31.5954 36.595C31.0354 36.235 30.5904 35.73 30.2604 35.08C29.9404 34.42 29.7804 33.66 29.7804 32.8ZM36.0504 32.815C36.0504 32.175 35.8704 31.67 35.5104 31.3C35.1604 30.93 34.7304 30.745 34.2204 30.745C33.7104 30.745 33.2754 30.93 32.9154 31.3C32.5654 31.66 32.3904 32.16 32.3904 32.8C32.3904 33.44 32.5654 33.95 32.9154 34.33C33.2754 34.7 33.7104 34.885 34.2204 34.885C34.7304 34.885 35.1604 34.7 35.5104 34.33C35.8704 33.96 36.0504 33.455 36.0504 32.815ZM43.036 30.025C43.336 29.565 43.711 29.205 44.161 28.945C44.611 28.675 45.111 28.54 45.661 28.54V31.255H44.956C44.316 31.255 43.836 31.395 43.516 31.675C43.196 31.945 43.036 32.425 43.036 33.115V37H40.471V28.63H43.036V30.025ZM48.177 27.76C47.727 27.76 47.357 27.63 47.067 27.37C46.787 27.1 46.647 26.77 46.647 26.38C46.647 25.98 46.787 25.65 47.067 25.39C47.357 25.12 47.727 24.985 48.177 24.985C48.617 24.985 48.977 25.12 49.257 25.39C49.547 25.65 49.692 25.98 49.692 26.38C49.692 26.77 49.547 27.1 49.257 27.37C48.977 27.63 48.617 27.76 48.177 27.76ZM49.452 28.63V37H46.887V28.63H49.452ZM54.7159 37.12C53.9859 37.12 53.3359 36.995 52.7659 36.745C52.1959 36.495 51.7459 36.155 51.4159 35.725C51.0859 35.285 50.9009 34.795 50.8609 34.255H53.3959C53.4259 34.545 53.5609 34.78 53.8009 34.96C54.0409 35.14 54.3359 35.23 54.6859 35.23C55.0059 35.23 55.2509 35.17 55.4209 35.05C55.6009 34.92 55.6909 34.755 55.6909 34.555C55.6909 34.315 55.5659 34.14 55.3159 34.03C55.0659 33.91 54.6609 33.78 54.1009 33.64C53.5009 33.5 53.0009 33.355 52.6009 33.205C52.2009 33.045 51.8559 32.8 51.5659 32.47C51.2759 32.13 51.1309 31.675 51.1309 31.105C51.1309 30.625 51.2609 30.19 51.5209 29.8C51.7909 29.4 52.1809 29.085 52.6909 28.855C53.2109 28.625 53.8259 28.51 54.5359 28.51C55.5859 28.51 56.4109 28.77 57.0109 29.29C57.6209 29.81 57.9709 30.5 58.0609 31.36H55.6909C55.6509 31.07 55.5209 30.84 55.3009 30.67C55.0909 30.5 54.8109 30.415 54.4609 30.415C54.1609 30.415 53.9309 30.475 53.7709 30.595C53.6109 30.705 53.5309 30.86 53.5309 31.06C53.5309 31.3 53.6559 31.48 53.9059 31.6C54.1659 31.72 54.5659 31.84 55.1059 31.96C55.7259 32.12 56.2309 32.28 56.6209 32.44C57.0109 32.59 57.3509 32.84 57.6409 33.19C57.9409 33.53 58.0959 33.99 58.1059 34.57C58.1059 35.06 57.9659 35.5 57.6859 35.89C57.4159 36.27 57.0209 36.57 56.5009 36.79C55.9909 37.01 55.3959 37.12 54.7159 37.12Z" fill="#2E2E2E"/>
<path fill-rule="evenodd" clip-rule="evenodd" d="M146.999 30.2688L150.892 26.3757C152.041 25.2272 153.771 26.9724 152.622 28.1209L148.744 31.999L152.622 35.892C153.771 37.0405 152.041 38.7708 150.892 37.6223L146.999 33.7441L143.121 37.6223C141.972 38.7708 140.227 37.0405 141.376 35.892L145.269 31.999L141.376 28.1209C140.227 26.9724 141.972 25.2272 143.121 26.3757L146.999 30.2688Z" fill="#2E2E2E"/>
<defs>
<filter id="filter0_i" x="0" y="0" width="174" height="63" filterUnits="userSpaceOnUse" color-interpolation-filters="sRGB">
<feFlood flood-opacity="0" result="BackgroundImageFix"/>
<feBlend mode="normal" in="SourceGraphic" in2="BackgroundImageFix" result="shape"/>
<feColorMatrix in="SourceAlpha" type="matrix" values="0 0 0 0 0 0 0 0 0 0 0 0 0 0 0 0 0 0 127 0" result="hardAlpha"/>
<feOffset/>
<feGaussianBlur stdDeviation="2"/>
<feComposite in2="hardAlpha" operator="arithmetic" k2="-1" k3="1"/>
<feColorMatrix type="matrix" values="0 0 0 0 0.898039 0 0 0 0 0.898039 0 0 0 0 0.898039 0 0 0 0.49 0"/>
<feBlend mode="normal" in2="shape" result="effect1_innerShadow"/>
</filter>
</defs>
</svg>
