<svg width="142" height="55" viewBox="0 0 142 55" fill="none" xmlns="http://www.w3.org/2000/svg">
<rect y="1.10008" width="142" height="52.8" rx="10" fill="#FFF1EB"/>
<path d="M48.8653 33.105C48.1353 33.105 47.4753 32.98 46.8853 32.73C46.3053 32.48 45.8453 32.12 45.5053 31.65C45.1653 31.18 44.9903 30.625 44.9803 29.985H47.2303C47.2603 30.415 47.4103 30.755 47.6803 31.005C47.9603 31.255 48.3403 31.38 48.8203 31.38C49.3103 31.38 49.6953 31.265 49.9753 31.035C50.2553 30.795 50.3953 30.485 50.3953 30.105C50.3953 29.795 50.3003 29.54 50.1103 29.34C49.9203 29.14 49.6803 28.985 49.3903 28.875C49.1103 28.755 48.7203 28.625 48.2203 28.485C47.5403 28.285 46.9853 28.09 46.5553 27.9C46.1353 27.7 45.7703 27.405 45.4603 27.015C45.1603 26.615 45.0103 26.085 45.0103 25.425C45.0103 24.805 45.1653 24.265 45.4753 23.805C45.7853 23.345 46.2203 22.995 46.7803 22.755C47.3403 22.505 47.9803 22.38 48.7003 22.38C49.7803 22.38 50.6553 22.645 51.3253 23.175C52.0053 23.695 52.3803 24.425 52.4503 25.365H50.1403C50.1203 25.005 49.9653 24.71 49.6753 24.48C49.3953 24.24 49.0203 24.12 48.5503 24.12C48.1403 24.12 47.8103 24.225 47.5603 24.435C47.3203 24.645 47.2003 24.95 47.2003 25.35C47.2003 25.63 47.2903 25.865 47.4703 26.055C47.6603 26.235 47.8903 26.385 48.1603 26.505C48.4403 26.615 48.8303 26.745 49.3303 26.895C50.0103 27.095 50.5653 27.295 50.9953 27.495C51.4253 27.695 51.7953 27.995 52.1053 28.395C52.4153 28.795 52.5703 29.32 52.5703 29.97C52.5703 30.53 52.4253 31.05 52.1353 31.53C51.8453 32.01 51.4203 32.395 50.8603 32.685C50.3003 32.965 49.6353 33.105 48.8653 33.105ZM62.116 28.665C62.116 28.965 62.096 29.235 62.056 29.475H55.981C56.031 30.075 56.241 30.545 56.611 30.885C56.981 31.225 57.436 31.395 57.976 31.395C58.756 31.395 59.311 31.06 59.641 30.39H61.906C61.666 31.19 61.206 31.85 60.526 32.37C59.846 32.88 59.011 33.135 58.021 33.135C57.221 33.135 56.501 32.96 55.861 32.61C55.231 32.25 54.736 31.745 54.376 31.095C54.026 30.445 53.851 29.695 53.851 28.845C53.851 27.985 54.026 27.23 54.376 26.58C54.726 25.93 55.216 25.43 55.846 25.08C56.476 24.73 57.201 24.555 58.021 24.555C58.811 24.555 59.516 24.725 60.136 25.065C60.766 25.405 61.251 25.89 61.591 26.52C61.941 27.14 62.116 27.855 62.116 28.665ZM59.941 28.065C59.931 27.525 59.736 27.095 59.356 26.775C58.976 26.445 58.511 26.28 57.961 26.28C57.441 26.28 57.001 26.44 56.641 26.76C56.291 27.07 56.076 27.505 55.996 28.065H59.941ZM63.1088 28.815C63.1088 27.975 63.2738 27.23 63.6038 26.58C63.9438 25.93 64.3988 25.43 64.9688 25.08C65.5488 24.73 66.1938 24.555 66.9038 24.555C67.5238 24.555 68.0638 24.68 68.5238 24.93C68.9938 25.18 69.3688 25.495 69.6488 25.875V24.69H71.7638V33H69.6488V31.785C69.3788 32.175 69.0038 32.5 68.5238 32.76C68.0538 33.01 67.5088 33.135 66.8888 33.135C66.1888 33.135 65.5488 32.955 64.9688 32.595C64.3988 32.235 63.9438 31.73 63.6038 31.08C63.2738 30.42 63.1088 29.665 63.1088 28.815ZM69.6488 28.845C69.6488 28.335 69.5488 27.9 69.3488 27.54C69.1488 27.17 68.8788 26.89 68.5388 26.7C68.1988 26.5 67.8338 26.4 67.4438 26.4C67.0538 26.4 66.6938 26.495 66.3638 26.685C66.0338 26.875 65.7638 27.155 65.5538 27.525C65.3538 27.885 65.2538 28.315 65.2538 28.815C65.2538 29.315 65.3538 29.755 65.5538 30.135C65.7638 30.505 66.0338 30.79 66.3638 30.99C66.7038 31.19 67.0638 31.29 67.4438 31.29C67.8338 31.29 68.1988 31.195 68.5388 31.005C68.8788 30.805 69.1488 30.525 69.3488 30.165C69.5488 29.795 69.6488 29.355 69.6488 28.845ZM75.9148 25.98C76.1848 25.54 76.5348 25.195 76.9648 24.945C77.4048 24.695 77.9048 24.57 78.4648 24.57V26.775H77.9098C77.2498 26.775 76.7498 26.93 76.4098 27.24C76.0798 27.55 75.9148 28.09 75.9148 28.86V33H73.8148V24.69H75.9148V25.98ZM79.3392 28.845C79.3392 27.985 79.5142 27.235 79.8642 26.595C80.2142 25.945 80.6992 25.445 81.3192 25.095C81.9392 24.735 82.6492 24.555 83.4492 24.555C84.4792 24.555 85.3292 24.815 85.9992 25.335C86.6792 25.845 87.1342 26.565 87.3642 27.495H85.0992C84.9792 27.135 84.7742 26.855 84.4842 26.655C84.2042 26.445 83.8542 26.34 83.4342 26.34C82.8342 26.34 82.3592 26.56 82.0092 27C81.6592 27.43 81.4842 28.045 81.4842 28.845C81.4842 29.635 81.6592 30.25 82.0092 30.69C82.3592 31.12 82.8342 31.335 83.4342 31.335C84.2842 31.335 84.8392 30.955 85.0992 30.195H87.3642C87.1342 31.095 86.6792 31.81 85.9992 32.34C85.3192 32.87 84.4692 33.135 83.4492 33.135C82.6492 33.135 81.9392 32.96 81.3192 32.61C80.6992 32.25 80.2142 31.75 79.8642 31.11C79.5142 30.46 79.3392 29.705 79.3392 28.845ZM93.5827 24.57C94.2127 24.57 94.7727 24.71 95.2627 24.99C95.7527 25.26 96.1327 25.665 96.4027 26.205C96.6827 26.735 96.8227 27.375 96.8227 28.125V33H94.7227V28.41C94.7227 27.75 94.5577 27.245 94.2277 26.895C93.8977 26.535 93.4477 26.355 92.8777 26.355C92.2977 26.355 91.8377 26.535 91.4977 26.895C91.1677 27.245 91.0027 27.75 91.0027 28.41V33H88.9027V21.9H91.0027V25.725C91.2727 25.365 91.6327 25.085 92.0827 24.885C92.5327 24.675 93.0327 24.57 93.5827 24.57Z" fill="#2E2E2E"/>
</svg>
