<svg width="274" height="274" viewBox="0 0 274 274" fill="none" xmlns="http://www.w3.org/2000/svg">
<g filter="url(#filter0_d)">
<circle cx="137" cy="137" r="127" fill="#FFF8F5"/>
<circle cx="137" cy="137" r="127" stroke="#FFF1EB" stroke-width="5"/>
</g>
<path d="M79.4238 208.966H132.983C133.878 208.964 134.773 208.906 135.661 208.792V211.644C135.661 212.354 135.943 213.035 136.445 213.537C136.948 214.04 137.629 214.322 138.339 214.322C139.049 214.322 139.73 214.04 140.233 213.537C140.735 213.035 141.017 212.354 141.017 211.644V207.397C145.381 205.642 149.043 202.496 151.436 198.446C153.829 194.397 154.818 189.671 154.251 185.002C164.415 181.633 173.262 175.152 179.538 166.476C185.814 157.8 189.201 147.369 189.22 136.661C189.22 108.605 166.395 85.7796 138.339 85.7796C110.283 85.7796 87.4577 108.605 87.4577 136.661C87.4583 140.628 87.9207 144.581 88.8355 148.442C86.3264 150.57 84.2318 153.143 82.6571 156.032C80.2023 156.683 77.9062 157.829 75.909 159.398C75.8113 159.425 75.7153 159.458 75.6215 159.496L70.4272 161.627C69.9444 161.826 69.5302 162.161 69.2355 162.592C68.9407 163.023 68.7784 163.53 68.7684 164.052C68.7583 164.574 68.9011 165.088 69.179 165.53C69.457 165.972 69.858 166.323 70.3328 166.54C70.0443 167.183 69.7925 167.843 69.5786 168.515C65.3148 170.721 61.9156 174.295 59.9262 178.664C57.9367 183.033 57.4724 187.944 58.6077 192.608C59.743 197.273 62.412 201.421 66.1868 204.387C69.9615 207.354 74.6231 208.966 79.4238 208.966ZM92.8136 136.661C92.8136 111.558 113.236 91.1355 138.339 91.1355C163.442 91.1355 183.864 111.558 183.864 136.661C183.848 146.175 180.859 155.446 175.316 163.178C169.774 170.911 161.954 176.719 152.949 179.79C151.383 175.767 148.64 172.31 145.078 169.871C141.515 167.432 137.3 166.124 132.983 166.118H132.849C132.417 161.741 130.911 157.538 128.465 153.882C126.019 150.226 122.708 147.231 118.827 145.161C114.946 143.091 110.614 142.011 106.215 142.017C101.816 142.022 97.4869 143.114 93.611 145.194C93.0796 142.38 92.8127 139.524 92.8136 136.661ZM72.9201 172.85C73.2965 172.683 73.6293 172.431 73.8927 172.115C74.1561 171.799 74.343 171.426 74.4388 171.025C75.0404 168.517 76.354 166.236 78.2215 164.457C80.089 162.678 82.4308 161.476 84.9652 160.997C85.378 160.919 85.7668 160.745 86.1 160.489C86.4332 160.233 86.7015 159.903 86.8833 159.524C88.9851 155.146 92.5117 151.612 96.8852 149.501C101.259 147.39 106.219 146.827 110.955 147.905C115.69 148.982 119.919 151.637 122.948 155.432C125.977 159.228 127.627 163.94 127.627 168.796C127.627 169.507 127.909 170.188 128.412 170.69C128.914 171.192 129.595 171.474 130.305 171.474H132.983C137.245 171.474 141.331 173.167 144.345 176.181C147.358 179.194 149.051 183.281 149.051 187.542C149.051 191.804 147.358 195.891 144.345 198.904C141.331 201.917 137.245 203.61 132.983 203.61H79.4238C75.7397 203.61 72.1676 202.344 69.3059 200.024C66.4441 197.703 64.4665 194.47 63.7044 190.866C62.9423 187.262 63.442 183.505 65.1197 180.225C66.7975 176.945 69.5514 174.341 72.9201 172.85Z" fill="#2E2E2E"/>
<path d="M167.267 67.4831C166.612 67.2091 165.875 67.2066 165.218 67.4762C164.561 67.7457 164.038 68.2653 163.764 68.9205L158.598 81.2726C158.462 81.5971 158.392 81.9451 158.391 82.2968C158.389 82.6485 158.458 82.9969 158.591 83.3223C158.725 83.6476 158.921 83.9435 159.169 84.193C159.417 84.4425 159.711 84.6407 160.036 84.7764C160.36 84.9121 160.708 84.9825 161.06 84.9836C161.411 84.9848 161.76 84.9167 162.085 84.7832C162.411 84.6497 162.707 84.4534 162.956 84.2055C163.205 83.9577 163.404 83.6631 163.539 83.3387L168.705 70.9866C168.979 70.3313 168.981 69.5941 168.712 68.9371C168.442 68.2801 167.923 67.7571 167.267 67.4831Z" fill="#2E2E2E"/>
<path d="M109.878 67.289C109.553 67.4225 109.257 67.6187 109.008 67.8665C108.758 68.1144 108.56 68.4089 108.424 68.7334C108.288 69.0578 108.218 69.4058 108.217 69.7575C108.216 70.1092 108.284 70.4577 108.417 70.783L113.501 83.171C113.779 83.8158 114.299 84.3256 114.949 84.5908C115.599 84.8559 116.327 84.8551 116.977 84.5886C117.626 84.322 118.145 83.8111 118.422 83.1657C118.698 82.5203 118.71 81.7922 118.455 81.1381L113.372 68.7501C113.239 68.4248 113.043 68.1289 112.795 67.8794C112.547 67.6298 112.252 67.4316 111.928 67.2959C111.604 67.1602 111.256 67.0898 110.904 67.0886C110.552 67.0874 110.204 67.1555 109.878 67.289Z" fill="#2E2E2E"/>
<path d="M70.5988 111.236L82.9509 116.402C83.6061 116.676 84.3434 116.678 85.0006 116.409C85.6577 116.139 86.1808 115.619 86.4548 114.964C86.7288 114.309 86.7313 113.572 86.4617 112.914C86.1921 112.257 85.6725 111.734 85.0172 111.46L72.6651 106.294C72.0099 106.02 71.2726 106.018 70.6155 106.288C69.9584 106.557 69.4353 107.077 69.1614 107.732C68.8874 108.387 68.8849 109.125 69.1546 109.782C69.4242 110.439 69.9438 110.962 70.5991 111.236H70.5988Z" fill="#2E2E2E"/>
<path d="M165.784 206.234C166.224 206.234 166.656 206.125 167.044 205.918C167.432 205.711 167.763 205.412 168.008 205.047C168.253 204.682 168.404 204.262 168.448 203.824C168.492 203.387 168.428 202.945 168.261 202.539L163.177 190.151C162.899 189.506 162.379 188.996 161.729 188.731C161.079 188.466 160.351 188.467 159.701 188.733C159.052 189 158.533 189.511 158.256 190.156C157.98 190.801 157.968 191.53 158.223 192.184L163.306 204.572C163.507 205.063 163.85 205.484 164.292 205.78C164.733 206.076 165.253 206.234 165.784 206.234Z" fill="#2E2E2E"/>
<path d="M205.045 167.235C205.664 167.236 206.264 167.022 206.744 166.63C207.223 166.238 207.551 165.692 207.673 165.084C207.795 164.477 207.703 163.847 207.412 163.3C207.122 162.753 206.65 162.324 206.079 162.086L193.727 156.92C193.072 156.646 192.334 156.643 191.677 156.913C191.02 157.183 190.497 157.702 190.223 158.358C189.949 159.013 189.946 159.75 190.216 160.407C190.486 161.064 191.005 161.587 191.661 161.862L204.013 167.027C204.34 167.164 204.69 167.235 205.045 167.235Z" fill="#2E2E2E"/>
<path d="M190.368 115.316C190.501 115.641 190.697 115.937 190.945 116.187C191.193 116.437 191.488 116.635 191.812 116.771C192.137 116.906 192.485 116.977 192.836 116.978C193.188 116.979 193.536 116.911 193.862 116.777L206.249 111.695C206.893 111.416 207.402 110.896 207.667 110.246C207.931 109.597 207.93 108.869 207.664 108.22C207.398 107.571 206.887 107.053 206.243 106.776C205.598 106.499 204.871 106.486 204.217 106.74L191.829 111.823C191.172 112.092 190.649 112.612 190.375 113.267C190.101 113.922 190.099 114.659 190.368 115.316Z" fill="#2E2E2E"/>
<path d="M138.339 59C137.629 59 136.948 59.2821 136.445 59.7844C135.943 60.2866 135.661 60.9677 135.661 61.678V80.4237C135.661 81.1339 135.943 81.8151 136.445 82.3173C136.948 82.8195 137.629 83.1017 138.339 83.1017C139.049 83.1017 139.73 82.8195 140.233 82.3173C140.735 81.8151 141.017 81.1339 141.017 80.4237V61.678C141.017 60.9677 140.735 60.2866 140.233 59.7844C139.73 59.2821 139.049 59 138.339 59Z" fill="#2E2E2E"/>
<path d="M83.4241 81.7463C83.1754 81.995 82.9781 82.2902 82.8435 82.6151C82.7089 82.94 82.6396 83.2883 82.6396 83.64C82.6396 83.9917 82.7089 84.3399 82.8435 84.6648C82.9781 84.9897 83.1754 85.285 83.4241 85.5336L96.68 98.7895C96.9286 99.0382 97.2239 99.2355 97.5488 99.3701C97.8737 99.5047 98.2219 99.5739 98.5736 99.5739C98.9253 99.5739 99.2735 99.5047 99.5985 99.3701C99.9234 99.2355 100.219 99.0382 100.467 98.7895C100.716 98.5409 100.913 98.2456 101.048 97.9207C101.182 97.5958 101.252 97.2476 101.252 96.8959C101.252 96.5442 101.182 96.196 101.048 95.8711C100.913 95.5461 100.716 95.2509 100.467 95.0022L87.2114 81.7463C86.9627 81.4976 86.6675 81.3004 86.3426 81.1658C86.0176 81.0312 85.6694 80.9619 85.3177 80.9619C84.966 80.9619 84.6178 81.0312 84.2929 81.1658C83.968 81.3004 83.6727 81.4976 83.4241 81.7463Z" fill="#2E2E2E"/>
<path d="M63.3567 139.339H82.1024C82.8127 139.339 83.4938 139.057 83.996 138.555C84.4982 138.052 84.7804 137.371 84.7804 136.661C84.7804 135.951 84.4982 135.27 83.996 134.767C83.4938 134.265 82.8127 133.983 82.1024 133.983H63.3567C62.6464 133.983 61.9653 134.265 61.4631 134.767C60.9609 135.27 60.6787 135.951 60.6787 136.661C60.6787 137.371 60.9609 138.052 61.4631 138.555C61.9653 139.057 62.6464 139.339 63.3567 139.339Z" fill="#2E2E2E"/>
<path d="M191.36 192.36C191.889 192.36 192.407 192.203 192.848 191.909C193.288 191.614 193.631 191.196 193.834 190.707C194.037 190.217 194.09 189.679 193.986 189.159C193.883 188.64 193.628 188.163 193.253 187.788L179.997 174.532C179.749 174.284 179.454 174.086 179.129 173.952C178.804 173.817 178.455 173.748 178.104 173.748C177.752 173.748 177.404 173.817 177.079 173.952C176.754 174.086 176.459 174.284 176.21 174.532C175.961 174.781 175.764 175.076 175.63 175.401C175.495 175.726 175.426 176.074 175.426 176.426C175.426 176.778 175.495 177.126 175.63 177.451C175.764 177.776 175.961 178.071 176.21 178.32L189.466 191.576C189.715 191.825 190.01 192.022 190.335 192.157C190.66 192.291 191.008 192.36 191.36 192.36Z" fill="#2E2E2E"/>
<path d="M191.898 136.661C191.898 137.371 192.181 138.052 192.683 138.555C193.185 139.057 193.866 139.339 194.576 139.339H213.322C214.032 139.339 214.714 139.057 215.216 138.555C215.718 138.052 216 137.371 216 136.661C216 135.951 215.718 135.27 215.216 134.767C214.714 134.265 214.032 133.983 213.322 133.983H194.576C193.866 133.983 193.185 134.265 192.683 134.767C192.181 135.27 191.898 135.951 191.898 136.661Z" fill="#2E2E2E"/>
<path d="M189.466 81.7463L176.21 95.0022C175.961 95.2509 175.764 95.5461 175.63 95.871C175.495 96.1959 175.426 96.5442 175.426 96.8959C175.426 97.2475 175.495 97.5958 175.63 97.9207C175.764 98.2456 175.961 98.5408 176.21 98.7895C176.459 99.0382 176.754 99.2355 177.079 99.37C177.404 99.5046 177.752 99.5739 178.104 99.5739C178.455 99.5739 178.804 99.5046 179.129 99.37C179.454 99.2355 179.749 99.0382 179.997 98.7895L193.253 85.5336C193.756 85.0313 194.038 84.3501 194.038 83.6398C194.038 82.9295 193.755 82.2484 193.253 81.7461C192.751 81.2439 192.07 80.9618 191.359 80.9618C190.649 80.9618 189.968 81.244 189.466 81.7463H189.466Z" fill="#2E2E2E"/>
<path d="M125.249 125.965L125.249 125.965C124.426 126.957 122.949 127.101 121.952 126.274C120.958 125.45 120.817 123.973 121.643 122.977L125.249 125.965ZM125.249 125.965C125.79 125.313 126.472 125.011 127.129 125.011C127.786 125.011 128.468 125.313 129.009 125.965L129.01 125.966M125.249 125.965L129.01 125.966M129.01 125.966C129.472 126.522 130.14 126.812 130.812 126.812C131.337 126.812 131.868 126.637 132.304 126.274M129.01 125.966L132.304 126.274M132.304 126.274C133.299 125.45 133.439 123.974 132.613 122.977C131.188 121.256 129.241 120.288 127.129 120.288C125.017 120.288 123.071 121.256 121.644 122.977L132.304 126.274Z" fill="#2E2E2E" stroke="#2E2E2E"/>
<path d="M147.346 125.965L147.345 125.966C146.52 126.957 145.046 127.101 144.049 126.274C143.054 125.45 142.913 123.973 143.74 122.977L147.346 125.965ZM147.346 125.965C147.887 125.313 148.569 125.011 149.226 125.011C149.883 125.011 150.565 125.313 151.106 125.965L151.106 125.966M147.346 125.965L151.106 125.966M151.106 125.966C151.569 126.522 152.237 126.812 152.909 126.812M151.106 125.966L152.909 126.812M152.909 126.812C153.434 126.812 153.964 126.637 154.401 126.274M152.909 126.812L154.401 126.274M154.401 126.274C155.396 125.45 155.536 123.975 154.71 122.977L154.401 126.274ZM146.961 125.646C146.311 126.427 145.151 126.539 144.368 125.889L146.961 125.646ZM146.961 125.646C148.217 124.132 150.235 124.132 151.491 125.646H146.961ZM149.226 120.288C147.114 120.288 145.167 121.256 143.74 122.977L154.71 122.977C153.284 121.256 151.337 120.288 149.226 120.288Z" fill="#2E2E2E" stroke="#2E2E2E"/>
<path d="M145.757 140.607L145.757 140.607C141.579 144.641 134.774 144.641 130.596 140.607L130.596 140.607C129.667 139.71 128.185 139.736 127.286 140.663L127.286 140.663L127.286 140.664C126.387 141.593 126.413 143.076 127.342 143.974L127.342 143.975C130.332 146.862 134.256 148.302 138.177 148.302C142.097 148.302 146.021 146.862 149.011 143.975L149.011 143.974C149.94 143.076 149.966 141.593 149.067 140.664C148.17 139.736 146.688 139.708 145.757 140.607ZM146.104 140.967C141.732 145.188 134.621 145.188 130.249 140.967L148.663 143.615C149.395 142.908 149.415 141.742 148.708 141.011C148.002 140.282 146.837 140.26 146.104 140.967Z" fill="#2E2E2E" stroke="#2E2E2E"/>
<path d="M105.215 193.718C101.964 193.718 99.0773 192.026 97.4517 189.239C95.826 186.419 95.826 183.068 97.4517 180.248L104.054 168.836C104.286 168.437 104.717 168.172 105.215 168.172C105.713 168.172 106.111 168.437 106.376 168.836L112.978 180.248C114.604 183.068 114.604 186.419 112.978 189.239C111.353 192.026 108.466 193.718 105.215 193.718ZM105.215 172.153L99.7408 181.575C98.5797 183.566 98.5797 185.921 99.7408 187.912C100.869 189.903 102.926 191.064 105.215 191.064C107.504 191.064 109.561 189.869 110.689 187.912C111.817 185.921 111.817 183.566 110.689 181.575L105.215 172.153Z" fill="#2E2E2E" stroke="#2E2E2E" stroke-width="2"/>
<path d="M103.77 189.014C103.041 189.014 102.443 188.417 102.443 187.687C102.443 186.957 103.041 186.36 103.77 186.36C105.429 186.36 106.756 185.033 106.756 183.374C106.756 182.645 107.353 182.047 108.083 182.047C108.813 182.047 109.41 182.645 109.41 183.374C109.41 186.493 106.889 189.014 103.77 189.014Z" fill="#2E2E2E" stroke="#2E2E2E" stroke-width="2"/>
<defs>
<filter id="filter0_d" x="0.5" y="0.5" width="273" height="273" filterUnits="userSpaceOnUse" color-interpolation-filters="sRGB">
<feFlood flood-opacity="0" result="BackgroundImageFix"/>
<feColorMatrix in="SourceAlpha" type="matrix" values="0 0 0 0 0 0 0 0 0 0 0 0 0 0 0 0 0 0 127 0" result="hardAlpha"/>
<feOffset/>
<feGaussianBlur stdDeviation="3.5"/>
<feComposite in2="hardAlpha" operator="out"/>
<feColorMatrix type="matrix" values="0 0 0 0 0.898039 0 0 0 0 0.898039 0 0 0 0 0.898039 0 0 0 0.5 0"/>
<feBlend mode="normal" in2="BackgroundImageFix" result="effect1_dropShadow"/>
<feBlend mode="normal" in="SourceGraphic" in2="effect1_dropShadow" result="shape"/>
</filter>
</defs>
</svg>
